<?xml version="1.0" encoding="UTF-8"?>
<svg version="1.1" xmlns="http://www.w3.org/2000/svg" width="300" height="100">
<path d="M0 0 C2.29231987 0.08863637 4.58388615 0.19681009 6.875 0.3125 C8.15117187 0.37050781 9.42734375 0.42851562 10.7421875 0.48828125 C19.29183453 1.2653222 26.96135815 4.68843941 34.515625 8.5625 C35.37508728 8.99506104 36.23454956 9.42762207 37.12005615 9.87329102 C39.83393453 11.24130537 42.54200503 12.62038242 45.25 14 C47.08035197 14.92522574 48.91107833 15.84971124 50.7421875 16.7734375 C54.09901693 18.46809407 57.45365718 20.16691886 60.80566406 21.87109375 C61.52612915 22.23662354 62.24659424 22.60215332 62.9888916 22.97875977 C64.79817223 23.89751192 66.60573829 24.81963866 68.41308594 25.7421875 C70.64341676 26.82662166 72.57622697 27.5338898 75 28 C72.89653263 21.57273858 69.927744 16.49121491 66 11 C69 11 69 11 70.40234375 12.36328125 C70.90894531 13.00652344 71.41554688 13.64976563 71.9375 14.3125 C74.16606897 17.03096991 76.42516152 19.42552736 79.125 21.6640625 C87.56138743 28.68008218 87.56138743 28.68008218 88.83984375 32.52734375 C88.90151923 36.64589498 87.89459921 40.32921403 86 44 C85.34 44 84.68 44 84 44 C83.01 42.02 82.02 40.04 81 38 C77.34310819 41.05984825 73.85002143 44.10833002 70.5625 47.5625 C65.87551521 52.33412559 60.11046657 56.8034376 53.22265625 57.1328125 C52.17980469 57.13023438 51.13695312 57.12765625 50.0625 57.125 C49.02222656 57.12757812 47.98195312 57.13015625 46.91015625 57.1328125 C44.42334029 57.01932023 42.36907593 56.71928571 40 56 C40 55.34 40 54.68 40 54 C40.98742188 53.86722656 41.97484375 53.73445313 42.9921875 53.59765625 C44.27351563 53.42105469 45.55484375 53.24445313 46.875 53.0625 C48.15117188 52.88847656 49.42734375 52.71445313 50.7421875 52.53515625 C53.87559454 52.18566773 53.87559454 52.18566773 56 51 C55.07058594 50.96261719 54.14117187 50.92523438 53.18359375 50.88671875 C43.97672639 50.3970939 36.79685872 49.79685872 30 43 C26.10968917 37.35446476 25.2764482 31.74533613 25 25 C23.35 25 21.7 25 20 25 C19.06425602 34.35743981 22.52334438 41.48774483 28.203125 48.859375 C28.79609375 49.56578125 29.3890625 50.2721875 30 51 C24.71449345 49.55849821 21.32897497 46.1908711 18 42 C14.05535199 34.96360084 12.86727875 28.96327481 13 21 C17.95 19.35 22.9 17.7 28 16 C18.86998073 10.68187964 9.91035799 5.73515386 0 2 C0 1.34 0 0.68 0 0 Z " fill="#062560" transform="translate(10,19)"/>
<path d="M0 0 C4.43090471 1.20842856 6.98112756 2.51668565 10 6 C7.11371599 7.57554035 4.46657616 8.46276373 1.25 9.125 C0.45078125 9.29257812 -0.3484375 9.46015625 -1.171875 9.6328125 C-1.77515625 9.75398438 -2.3784375 9.87515625 -3 10 C-2.02212536 21.39729754 0.1806326 31.88501088 8.8125 40 C15.02764911 44.85113738 21.06656218 47.6751862 29 47 C29 47.33 29 47.66 29 48 C37.56675251 48.56175426 44.7537394 47.1831854 51.74609375 41.94140625 C55.45685321 38.67174747 58.88098234 35.2769925 62 31.4375 C62.66 30.633125 63.32 29.82875 64 29 C64.66 29 65.32 29 66 29 C65.67 31.31 65.34 33.62 65 36 C66.65 36.66 68.3 37.32 70 38 C66.535 44.93 66.535 44.93 63 52 C60.75390625 51.4140625 58.5078125 50.828125 56.26171875 50.2421875 C53.71792767 49.72572666 53.71792767 49.72572666 51 52 C51.495 54.97 51.495 54.97 52 58 C50.09118566 59.03544174 48.17260796 60.05290085 46.25 61.0625 C45.18265625 61.63097656 44.1153125 62.19945312 43.015625 62.78515625 C40 64 40 64 37.66015625 63.80859375 C36 63 36 63 35.1875 61 C34.795625 60.34 34.40375 59.68 34 59 C30.43793339 58.18129815 30.43793339 58.18129815 27 58 C27 59.65 27 61.3 27 63 C15.47835991 62.03644647 15.47835991 62.03644647 10 61 C10.33 58.36 10.66 55.72 11 53 C9.38305196 51.24348469 9.38305196 51.24348469 7 50 C5.02 50.66 3.04 51.32 1 52 C-2.3 48.37 -5.6 44.74 -9 41 C-7.02 38.525 -7.02 38.525 -5 36 C-5.13986273 32.26276567 -5.13986273 32.26276567 -6 29 C-8.31 28.34 -10.62 27.68 -13 27 C-12.67 22.05 -12.34 17.1 -12 12 C-9.69 12 -7.38 12 -5 12 C-4.9175 11.319375 -4.835 10.63875 -4.75 9.9375 C-3.77667472 6.1253093 -2.04192545 3.35929671 0 0 Z " fill="#062763" transform="translate(25,29)"/>
<path d="M0 0 C0.350625 0.969375 0.70125 1.93875 1.0625 2.9375 C2.75003667 6.39434602 2.75003667 6.39434602 6.6875 6.875 C7.780625 6.91625 8.87375 6.9575 10 7 C10.33 5.02 10.66 3.04 11 1 C16.60461531 1.42089996 21.72086547 1.91613111 27 4 C26.67 6.97 26.34 9.94 26 13 C28.475 13.99 28.475 13.99 31 15 C31.99 14.01 32.98 13.02 34 12 C37.45201639 13.47721422 39.64961936 15.43794001 42.25 18.125 C42.95640625 18.84945313 43.6628125 19.57390625 44.390625 20.3203125 C44.92171875 20.87460937 45.4528125 21.42890625 46 22 C44.84826645 24.46800047 43.95216435 26.04783565 42 28 C41.83318891 31.08347826 41.83318891 31.08347826 42 34 C38.31930113 32.46356148 36.01224796 30.21849055 33.25 27.375 C32.05117187 26.14910156 32.05117187 26.14910156 30.828125 24.8984375 C30.22484375 24.27195312 29.6215625 23.64546875 29 23 C28.34 23.66 27.68 24.32 27 25 C27.49371094 25.74765625 27.98742187 26.4953125 28.49609375 27.265625 C29.13675781 28.25046875 29.77742188 29.2353125 30.4375 30.25 C31.07558594 31.22453125 31.71367188 32.1990625 32.37109375 33.203125 C33.7576136 35.58381615 34.546581 37.31780307 35 40 C30.43399305 39.38665578 26.73634899 37.51937687 22.71484375 35.39453125 C22.01790909 35.03284348 21.32097443 34.6711557 20.60292053 34.29850769 C18.37800693 33.14235862 16.15766292 31.97774154 13.9375 30.8125 C11.74776752 29.67029408 9.55711669 28.52986468 7.36636353 27.38961792 C5.94017297 26.64713949 4.5143665 25.90392277 3.08895874 25.15994263 C-2.90561525 22.03498179 -8.93901509 18.99440214 -15 16 C-14.83959229 15.06567139 -14.67918457 14.13134277 -14.51391602 13.16870117 C-13.97171805 10.08763097 -13.97171805 10.08763097 -13.77734375 7.30078125 C-13 5 -13 5 -10.56640625 3.41796875 C-9.57511719 3.01191406 -8.58382812 2.60585937 -7.5625 2.1875 C-6.57378906 1.76855469 -5.58507812 1.34960938 -4.56640625 0.91796875 C-2 0 -2 0 0 0 Z " fill="#042766" transform="translate(49,6)"/>
<path d="M0 0 C2.29231987 0.08863637 4.58388615 0.19681009 6.875 0.3125 C8.15117187 0.37050781 9.42734375 0.42851562 10.7421875 0.48828125 C19.69969234 1.31115748 27.6290578 4.98306724 35.5625 9 C36.46291016 9.43828125 37.36332031 9.8765625 38.29101562 10.328125 C39.14501953 10.75609375 39.99902344 11.1840625 40.87890625 11.625 C42.03241577 12.20121094 42.03241577 12.20121094 43.20922852 12.7890625 C45 14 45 14 46 17 C46.94875 17.268125 47.8975 17.53625 48.875 17.8125 C52 19 52 19 53.8125 22.0625 C54.4003125 23.5165625 54.4003125 23.5165625 55 25 C55.33 25.33 55.66 25.66 56 26 C55.65274725 32.25054945 55.65274725 32.25054945 53.3125 34.9375 C50.26397123 36.33817538 48.32073048 36.4842732 45 36 C42.625 34.3125 42.625 34.3125 41 32 C40.75 29.25 40.75 29.25 41 27 C42.65 27.33 44.3 27.66 46 28 C46 27.01 46 26.02 46 25 C45.01 24.67 44.02 24.34 43 24 C42.34 23.01 41.68 22.02 41 21 C38.79274927 20.63637182 38.79274927 20.63637182 36.375 20.8125 C35.55773438 20.83957031 34.74046875 20.86664063 33.8984375 20.89453125 C32.95871094 20.94673828 32.95871094 20.94673828 32 21 C29.98794322 25.02411356 30.40199867 29.63574031 31 34 C33.10047358 39.0336349 35.68433712 42.22034792 40.375 45 C44.30982751 46.08546966 47.94219283 46.59421928 52 47 C52.99 47.33 53.98 47.66 55 48 C56.66621616 48.03874921 58.33394172 48.0450286 60 48 C59.67 49.32 59.34 50.64 59 52 C57.02 52.495 57.02 52.495 55 53 C55 53.66 55 54.32 55 55 C55.55429688 54.69964844 56.10859375 54.39929688 56.6796875 54.08984375 C57.40414062 53.70957031 58.12859375 53.32929687 58.875 52.9375 C59.59429687 52.55464844 60.31359375 52.17179687 61.0546875 51.77734375 C62.01761719 51.39255859 62.01761719 51.39255859 63 51 C63.66 51.33 64.32 51.66 65 52 C59.72077983 55.63679612 56.464794 57.14082767 50.0625 57.125 C49.02222656 57.12757812 47.98195312 57.13015625 46.91015625 57.1328125 C44.42334029 57.01932023 42.36907593 56.71928571 40 56 C40 55.34 40 54.68 40 54 C40.98742188 53.86722656 41.97484375 53.73445313 42.9921875 53.59765625 C44.27351563 53.42105469 45.55484375 53.24445313 46.875 53.0625 C48.15117188 52.88847656 49.42734375 52.71445313 50.7421875 52.53515625 C53.87559454 52.18566773 53.87559454 52.18566773 56 51 C55.07058594 50.96261719 54.14117187 50.92523438 53.18359375 50.88671875 C43.97672639 50.3970939 36.79685872 49.79685872 30 43 C26.10968917 37.35446476 25.2764482 31.74533613 25 25 C23.35 25 21.7 25 20 25 C19.06425602 34.35743981 22.52334438 41.48774483 28.203125 48.859375 C28.79609375 49.56578125 29.3890625 50.2721875 30 51 C24.71449345 49.55849821 21.32897497 46.1908711 18 42 C14.05535199 34.96360084 12.86727875 28.96327481 13 21 C17.95 19.35 22.9 17.7 28 16 C18.86998073 10.68187964 9.91035799 5.73515386 0 2 C0 1.34 0 0.68 0 0 Z " fill="#042461" transform="translate(10,19)"/>
<path d="M0 0 C1.98 0.495 1.98 0.495 4 1 C4 7.6 4 14.2 4 21 C4.99 20.67 5.98 20.34 7 20 C8.17138134 16.56684863 8.17138134 16.56684863 9 13 C9.33 12.34 9.66 11.68 10 11 C16.88843537 9.53197279 16.88843537 9.53197279 20.375 11 C22.62379272 13.76774489 23.22100175 16.55942438 24 20 C25.65 20 27.3 20 29 20 C28.34 19.01 27.68 18.02 27 17 C26.875 14.3125 26.875 14.3125 27 12 C34.87746171 8.74398249 34.87746171 8.74398249 39.5625 9.8125 C40.366875 10.204375 41.17125 10.59625 42 11 C42 13.31 42 15.62 42 18 C43.32 18.33 44.64 18.66 46 19 C46 13.06 46 7.12 46 1 C47.32 0.67 48.64 0.34 50 0 C51.68516954 1.68516954 51.13008019 3.78767788 51.1328125 6.09375 C51.13474609 7.63869141 51.13474609 7.63869141 51.13671875 9.21484375 C51.13285156 10.29894531 51.12898438 11.38304687 51.125 12.5 C51.13080078 14.12615234 51.13080078 14.12615234 51.13671875 15.78515625 C51.13542969 16.81511719 51.13414062 17.84507813 51.1328125 18.90625 C51.13168457 19.85822266 51.13055664 20.81019531 51.12939453 21.79101562 C51 24 51 24 50 25 C47.96256598 25.0877391 45.92211363 25.10695311 43.8828125 25.09765625 C42.63628906 25.09443359 41.38976562 25.09121094 40.10546875 25.08789062 C38.79191406 25.07951172 37.47835937 25.07113281 36.125 25.0625 C34.81917969 25.05798828 33.51335937 25.05347656 32.16796875 25.04882812 C29.74364326 25.04007153 27.31932376 25.02927527 24.89501953 25.01586914 C22.93003542 25.00509802 20.96501363 25 19 25 C12.66666667 25 6.33333333 25 0 25 C-0.19585353 21.02119772 -0.3802867 17.04194844 -0.5625 13.0625 C-0.61857422 11.92619141 -0.67464844 10.78988281 -0.73242188 9.61914062 C-0.78076172 8.53955078 -0.82910156 7.45996094 -0.87890625 6.34765625 C-0.9260376 5.34742432 -0.97316895 4.34719238 -1.02172852 3.31665039 C-1 1 -1 1 0 0 Z M14 14 C13.34 14.66 12.68 15.32 12 16 C12.32041397 18.60280568 12.32041397 18.60280568 13 21 C14.65 20.67 16.3 20.34 18 20 C18 18.35 18 16.7 18 15 C16.10820797 14.3185177 16.10820797 14.3185177 14 14 Z M32 14 C32 14.33 32 14.66 32 15 C34.97 15.495 34.97 15.495 38 16 C38 15.34 38 14.68 38 14 C36.02 14 34.04 14 32 14 Z M32 16 C32.99 16.99 33.98 17.98 35 19 C35.66 18.67 36.32 18.34 37 18 C37 17.34 37 16.68 37 16 C35.35 16 33.7 16 32 16 Z M39 20 C39 20.33 39 20.66 39 21 C41.31 21 43.62 21 46 21 C46 20.67 46 20.34 46 20 C43.69 20 41.38 20 39 20 Z " fill="#1E2042" transform="translate(146,36)"/>
<path d="M0 0 C-0.33 0.66 -0.66 1.32 -1 2 C2.63 2 6.26 2 10 2 C10 2.33 10 2.66 10 3 C9.04287109 3.07347656 9.04287109 3.07347656 8.06640625 3.1484375 C7.24011719 3.22320312 6.41382812 3.29796875 5.5625 3.375 C4.73878906 3.44460937 3.91507813 3.51421875 3.06640625 3.5859375 C2.38449219 3.72257812 1.70257813 3.85921875 1 4 C-1.01205678 8.02411356 -0.59800133 12.63574031 0 17 C2.10047358 22.0336349 4.68433712 25.22034792 9.375 28 C13.30982751 29.08546966 16.94219283 29.59421928 21 30 C21.99 30.33 22.98 30.66 24 31 C25.66621616 31.03874921 27.33394172 31.0450286 29 31 C28.67 32.32 28.34 33.64 28 35 C26.02 35.495 26.02 35.495 24 36 C24 36.66 24 37.32 24 38 C24.55429688 37.69964844 25.10859375 37.39929688 25.6796875 37.08984375 C26.40414062 36.70957031 27.12859375 36.32929687 27.875 35.9375 C28.59429687 35.55464844 29.31359375 35.17179687 30.0546875 34.77734375 C31.01761719 34.39255859 31.01761719 34.39255859 32 34 C32.99 34.495 32.99 34.495 34 35 C28.72077983 38.63679612 25.464794 40.14082767 19.0625 40.125 C18.02222656 40.12757812 16.98195312 40.13015625 15.91015625 40.1328125 C13.42334029 40.01932023 11.36907593 39.71928571 9 39 C9 38.34 9 37.68 9 37 C10.48113281 36.80083984 10.48113281 36.80083984 11.9921875 36.59765625 C13.27351563 36.42105469 14.55484375 36.24445313 15.875 36.0625 C17.15117188 35.88847656 18.42734375 35.71445313 19.7421875 35.53515625 C22.87559454 35.18566773 22.87559454 35.18566773 25 34 C24.07058594 33.96261719 23.14117187 33.92523438 22.18359375 33.88671875 C12.97672639 33.3970939 5.79685872 32.79685872 -1 26 C-4.89031083 20.35446476 -5.7235518 14.74533613 -6 8 C-7.65 8 -9.3 8 -11 8 C-11.93574398 17.35743981 -8.47665562 24.48774483 -2.796875 31.859375 C-2.20390625 32.56578125 -1.6109375 33.2721875 -1 34 C-6.28550655 32.55849821 -9.67102503 29.1908711 -13 25 C-16.95502059 17.9450984 -18.13319958 11.9919748 -18 4 C-15.37764986 3.13683464 -12.75266548 2.28419221 -10.125 1.4375 C-9.37863281 1.19064453 -8.63226563 0.94378906 -7.86328125 0.68945312 C-2.2265625 -1.11328125 -2.2265625 -1.11328125 0 0 Z " fill="#10214B" transform="translate(41,36)"/>
<path d="M0 0 C1.32 0 2.64 0 4 0 C4 8.25 4 16.5 4 25 C-0.36020819 25.04592378 -4.71957661 25.08574415 -9.07983398 25.10986328 C-10.56293583 25.11991821 -12.04601788 25.13356404 -13.52905273 25.15087891 C-15.66134531 25.17515006 -17.79337569 25.18648799 -19.92578125 25.1953125 C-21.85031128 25.21102295 -21.85031128 25.21102295 -23.8137207 25.22705078 C-27 25 -27 25 -30 23 C-31.55234657 16.23620423 -31.55234657 16.23620423 -29.6875 12.0625 C-28 10 -28 10 -26 9 C-24.125 9.234375 -24.125 9.234375 -22 9.75 C-20.948125 9.98976563 -20.948125 9.98976563 -19.875 10.234375 C-18 11 -18 11 -16 14 C-15.92094936 16.33199388 -15.91201231 18.66832622 -16 21 C-14.35 21 -12.7 21 -11 21 C-11 17.7 -11 14.4 -11 11 C-9.68 11 -8.36 11 -7 11 C-6.67 13.64 -6.34 16.28 -6 19 C-4.35 19 -2.7 19 -1 19 C-1.01160156 17.71222656 -1.02320313 16.42445312 -1.03515625 15.09765625 C-1.0445327 13.41927228 -1.05363305 11.74088674 -1.0625 10.0625 C-1.07087891 9.21236328 -1.07925781 8.36222656 -1.08789062 7.48632812 C-1.09272461 6.27299805 -1.09272461 6.27299805 -1.09765625 5.03515625 C-1.10551147 3.91185913 -1.10551147 3.91185913 -1.11352539 2.76586914 C-1 1 -1 1 0 0 Z M-25 14 C-26.29633621 15.06645115 -26.29633621 15.06645115 -26.0625 17.5625 C-26.041875 18.366875 -26.02125 19.17125 -26 20 C-23.525 20.495 -23.525 20.495 -21 21 C-21 19.02 -21 17.04 -21 15 C-22.94603274 14.40929986 -22.94603274 14.40929986 -25 14 Z M-5 20 C-5 20.33 -5 20.66 -5 21 C-3.35 21 -1.7 21 0 21 C0 20.67 0 20.34 0 20 C-1.65 20 -3.3 20 -5 20 Z " fill="#1C213F" transform="translate(138,36)"/>
<path d="M0 0 C3.3 0 6.6 0 10 0 C9.773125 0.763125 9.54625 1.52625 9.3125 2.3125 C9.1578125 3.6428125 9.1578125 3.6428125 9 5 C10.37485532 6.54166642 10.37485532 6.54166642 12 8 C12.144375 8.825 12.28875 9.65 12.4375 10.5 C12.77964372 13.16453708 12.77964372 13.16453708 15.0625 14.8125 C15.701875 15.204375 16.34125 15.59625 17 16 C17 13.36 17 10.72 17 8 C18.875 6.9375 18.875 6.9375 21 6 C21.66 6.33 22.32 6.66 23 7 C23 11.62 23 16.24 23 21 C19.58285851 21.0809323 16.16763315 21.14046835 12.75 21.1875 C11.78191406 21.21263672 10.81382812 21.23777344 9.81640625 21.26367188 C8.88183594 21.27333984 7.94726562 21.28300781 6.984375 21.29296875 C6.12553711 21.3086792 5.26669922 21.32438965 4.38183594 21.34057617 C1.43262618 20.91887183 0.09408229 20.10391507 -2 18 C-2.64684364 12.27081351 -2.03213018 9.87777463 1 5 C0.78670551 2.25760857 0.78670551 2.25760857 0 0 Z M4 11 C4.99 11.495 4.99 11.495 6 12 C6.625 14.0625 6.625 14.0625 7 16 C7 14.35 7 12.7 7 11 C6.01 11 5.02 11 4 11 Z M3 12 C3 12.99 3 13.98 3 15 C3.66 14.67 4.32 14.34 5 14 C4.34 13.34 3.68 12.68 3 12 Z " fill="#101D46" transform="translate(216,40)"/>
<path d="M0 0 C1.98 0 3.96 0 6 0 C5.95875 0.70125 5.9175 1.4025 5.875 2.125 C6.05315054 6.22246248 7.33914628 9.64157846 9.125 13.3125 C10.70576214 18.167698 10.54197455 23.04055355 9.1875 27.9375 C8 30 8 30 5 32 C2.73828125 32.1953125 2.73828125 32.1953125 0.3125 32.125 C-0.49574219 32.10695312 -1.30398437 32.08890625 -2.13671875 32.0703125 C-2.75160156 32.04710937 -3.36648437 32.02390625 -4 32 C-3.67 30.35 -3.34 28.7 -3 27 C-1.02 26.67 0.96 26.34 3 26 C1.865625 25.525625 0.73125 25.05125 -0.4375 24.5625 C-4 23 -4 23 -5 22 C-5.37376185 16.39357218 -5.1285671 13.76086298 -2 9 C-2.33 8.01 -2.66 7.02 -3 6 C-1.5625 2.8125 -1.5625 2.8125 0 0 Z M1 15 C0.67 16.32 0.34 17.64 0 19 C1.32 19.33 2.64 19.66 4 20 C4 18.35 4 16.7 4 15 C3.01 15 2.02 15 1 15 Z " fill="#1B264F" transform="translate(247,36)"/>
<path d="M0 0 C1.67542976 0.28604898 3.34385343 0.61781233 5 1 C5.02887236 4.81248426 5.04675492 8.6249407 5.0625 12.4375 C5.07087891 13.52611328 5.07925781 14.61472656 5.08789062 15.73632812 C5.09272461 17.28803711 5.09272461 17.28803711 5.09765625 18.87109375 C5.10551147 20.30859985 5.10551147 20.30859985 5.11352539 21.77514648 C5 24 5 24 4 25 C2.14712498 25.07226502 0.29166122 25.0838122 -1.5625 25.0625 C-2.57441406 25.05347656 -3.58632813 25.04445313 -4.62890625 25.03515625 C-5.80259766 25.01775391 -5.80259766 25.01775391 -7 25 C-7.11730469 25.62261719 -7.23460937 26.24523437 -7.35546875 26.88671875 C-8 29 -8 29 -10.3125 30.8125 C-13 32 -13 32 -15.3125 31.6875 C-15.869375 31.460625 -16.42625 31.23375 -17 31 C-17 29.35 -17 27.7 -17 26 C-15.35 26 -13.7 26 -12 26 C-12 21.05 -12 16.1 -12 11 C-10.35 11 -8.7 11 -7 11 C-6.67 13.97 -6.34 16.94 -6 20 C-4.35 19.67 -2.7 19.34 -1 19 C-1.01160156 17.71222656 -1.02320313 16.42445312 -1.03515625 15.09765625 C-1.0445327 13.41927228 -1.05363305 11.74088674 -1.0625 10.0625 C-1.07087891 9.21236328 -1.07925781 8.36222656 -1.08789062 7.48632812 C-1.09111328 6.67744141 -1.09433594 5.86855469 -1.09765625 5.03515625 C-1.10289307 4.2862915 -1.10812988 3.53742676 -1.11352539 2.76586914 C-1 1 -1 1 0 0 Z " fill="#182552" transform="translate(274,36)"/>
<path d="M0 0 C1.65 0 3.3 0 5 0 C5 0.99 5 1.98 5 3 C4.01 3 3.02 3 2 3 C2.680625 3.7425 2.680625 3.7425 3.375 4.5 C4.9326022 6.89631108 5.40683167 8.33292031 6 11.0625 C6.70392542 14.19235021 7.23453602 16.11948449 10 18 C10.99 18.33 11.98 18.66 13 19 C13 19.66 13 20.32 13 21 C16.96 20.505 16.96 20.505 21 20 C21.33 19.01 21.66 18.02 22 17 C23.32 17.33 24.64 17.66 26 18 C26 17.34 26 16.68 26 16 C26.66 15.67 27.32 15.34 28 15 C28.33 14.01 28.66 13.02 29 12 C29.66 12 30.32 12 31 12 C31 11.34 31 10.68 31 10 C32.32 10 33.64 10 35 10 C34.8611021 15.55591586 32.47697155 18.41815163 28.8203125 22.296875 C24.7295111 26.12432009 20.67478936 26.40859618 15.26953125 26.23828125 C10.72127939 25.76075395 7.37641441 24.5193378 4.26953125 21.08984375 C0.67067064 16.37969602 -1.1407933 13.50145524 -1.125 7.5 C-1.12757812 6.5203125 -1.13015625 5.540625 -1.1328125 4.53125 C-1 2 -1 2 0 0 Z " fill="#B68F1F" transform="translate(41,40)"/>
<path d="M0 0 C2.97 0 5.94 0 9 0 C9.66 1.32 10.32 2.64 11 4 C13.05000871 4.80528889 13.05000871 4.80528889 15 5 C14.67 6.32 14.34 7.64 14 9 C12.68 8.67 11.36 8.34 10 8 C10.57452746 11.93075644 10.57452746 11.93075644 13 15 C16.60999687 15.47086916 18.3343777 15.48572438 21.3125 13.3125 C23.14301602 10.80401508 23.66009204 9.05917167 24 6 C27.91211733 7.15585285 30.8745041 8.35534962 34 11 C32.68 11 31.36 11 30 11 C30 11.66 30 12.32 30 13 C29.34 13 28.68 13 28 13 C27.67 14.32 27.34 15.64 27 17 C26.34 17 25.68 17 25 17 C25 17.66 25 18.32 25 19 C23.68 19 22.36 19 21 19 C20.67 19.66 20.34 20.32 20 21 C17.35139573 21.59355614 14.70802678 21.74209269 12 22 C12 21.34 12 20.68 12 20 C10.68 19.67 9.36 19.34 8 19 C8 18.34 8 17.68 8 17 C7.01 16.67 6.02 16.34 5 16 C4.0859375 14.0390625 4.0859375 14.0390625 3.375 11.625 C3.13523438 10.83351563 2.89546875 10.04203125 2.6484375 9.2265625 C2.43445312 8.49179687 2.22046875 7.75703125 2 7 C1.67 6.01 1.34 5.02 1 4 C1.99 4 2.98 4 4 4 C4 3.01 4 2.02 4 1 C2.68 0.67 1.36 0.34 0 0 Z " fill="#314A6E" transform="translate(42,39)"/>
<path d="M0 0 C4.43090471 1.20842856 6.98112756 2.51668565 10 6 C7.11371599 7.57554035 4.46657616 8.46276373 1.25 9.125 C0.45078125 9.29257812 -0.3484375 9.46015625 -1.171875 9.6328125 C-1.77515625 9.75398438 -2.3784375 9.87515625 -3 10 C-2.03137596 18.0110906 -0.86750338 25.44021836 2 33 C1.34 33 0.68 33 0 33 C-0.66 31.35 -1.32 29.7 -2 28 C-2.33 29.98 -2.66 31.96 -3 34 C-5 32 -5 32 -6 29 C-8.31 28.34 -10.62 27.68 -13 27 C-12.67 22.05 -12.34 17.1 -12 12 C-9.69 12 -7.38 12 -5 12 C-4.9175 11.319375 -4.835 10.63875 -4.75 9.9375 C-3.77667472 6.1253093 -2.04192545 3.35929671 0 0 Z " fill="#0B215A" transform="translate(25,29)"/>
<path d="M0 0 C-0.515625 0.680625 -1.03125 1.36125 -1.5625 2.0625 C-3.39207088 5.80118832 -2.86178872 8.00443413 -2 12 C-3.093125 12.433125 -4.18625 12.86625 -5.3125 13.3125 C-8.09408793 14.49495641 -10.06361939 15.60800043 -12 18 C-15.32901247 15.78065836 -15.75023244 14.65316671 -17 11 C-19.64 10.67 -22.28 10.34 -25 10 C-26.125 6.25 -26.125 6.25 -25 4 C-16.585 3.505 -16.585 3.505 -8 3 C-8 2.34 -8 1.68 -8 1 C-2.25 -1.125 -2.25 -1.125 0 0 Z " fill="#062E6D" transform="translate(77,75)"/>
<path d="M0 0 C1.98 0.495 1.98 0.495 4 1 C4 7.6 4 14.2 4 21 C4.99 20.67 5.98 20.34 7 20 C8.17138134 16.56684863 8.17138134 16.56684863 9 13 C9.33 12.34 9.66 11.68 10 11 C11.32 11.66 12.64 12.32 14 13 C13.67 13.33 13.34 13.66 13 14 C12.95919217 15.99958364 12.95745644 18.00045254 13 20 C14.98 20.33 16.96 20.66 19 21 C19 22.32 19 23.64 19 25 C12.73 25 6.46 25 0 25 C-0.19373189 21.02104506 -0.38028506 17.04198423 -0.5625 13.0625 C-0.61857422 11.92619141 -0.67464844 10.78988281 -0.73242188 9.61914062 C-0.78076172 8.53955078 -0.82910156 7.45996094 -0.87890625 6.34765625 C-0.9260376 5.34742432 -0.97316895 4.34719238 -1.02172852 3.31665039 C-1 1 -1 1 0 0 Z " fill="#121939" transform="translate(146,36)"/>
<path d="M0 0 C5.19565217 1.94836957 5.19565217 1.94836957 6.5 4.3125 C6.4333964 8.04230144 6.30428591 10.38906062 3.8125 13.25 C0.76397123 14.65067538 -1.17926952 14.7967732 -4.5 14.3125 C-6.875 12.625 -6.875 12.625 -8.5 10.3125 C-8.75 7.5625 -8.75 7.5625 -8.5 5.3125 C-6.025 5.8075 -6.025 5.8075 -3.5 6.3125 C-3.5 5.3225 -3.5 4.3325 -3.5 3.3125 C-4.49 2.6525 -5.48 1.9925 -6.5 1.3125 C-3.5 -0.6875 -3.5 -0.6875 0 0 Z " fill="#030409" transform="translate(59.5,40.6875)"/>
<path d="M0 0 C0.66 0.70125 1.32 1.4025 2 2.125 C8.16680312 8.25696243 14.98758328 13.76131349 23.9375 14.1875 C24.948125 14.125625 25.95875 14.06375 27 14 C27 14.33 27 14.66 27 15 C32.12583611 15.10251672 36.94997778 15.03590199 42 14 C42 14.66 42 15.32 42 16 C38.56166484 17.71916758 34.72657765 17.22698358 30.9375 17.25 C29.70483398 17.2809375 29.70483398 17.2809375 28.44726562 17.3125 C22.45213153 17.35023491 17.55877234 16.22250328 12 14 C11.67 16.31 11.34 18.62 11 21 C10.67 20.34 10.34 19.68 10 19 C5.33557724 17.12972864 5.33557724 17.12972864 0.5625 17.875 C0.046875 18.24625 -0.46875 18.6175 -1 19 C-2.32 17.35 -3.64 15.7 -5 14 C-2.69 14.66 -0.38 15.32 2 16 C2 15.34 2 14.68 2 14 C3.65 14.33 5.3 14.66 7 15 C7.66 13.35 8.32 11.7 9 10 C8.2575 9.7525 7.515 9.505 6.75 9.25 C3.72742651 7.87610296 2.06022838 6.59436166 0 4 C0 2.68 0 1.36 0 0 Z " fill="#0E2557" transform="translate(27,62)"/>
<path d="M0 0 C1.65 0 3.3 0 5 0 C5.33 2.97 5.66 5.94 6 9 C7.98 8.67 9.96 8.34 12 8 C12 8.66 12 9.32 12 10 C10.02 10.33 8.04 10.66 6 11 C5.8453125 12.3921875 5.8453125 12.3921875 5.6875 13.8125 C4.98079826 17.08902627 4.71837973 18.15538519 2 20 C-2.41538462 21.29230769 -2.41538462 21.29230769 -5 20 C-5 18.35 -5 16.7 -5 15 C-3.35 15 -1.7 15 0 15 C0 10.05 0 5.1 0 0 Z " fill="#1B2B55" transform="translate(262,47)"/>
<path d="M0 0 C1.65 0 3.3 0 5 0 C5 8.25 5 16.5 5 25 C3.35 25 1.7 25 0 25 C-1.02820502 21.91538494 -1.04582849 20.10314761 -0.87890625 16.89453125 C-0.83056641 15.91162109 -0.78222656 14.92871094 -0.73242188 13.91601562 C-0.67634766 12.89185547 -0.62027344 11.86769531 -0.5625 10.8125 C-0.51029297 9.77673828 -0.45808594 8.74097656 -0.40429688 7.67382812 C-0.27461607 5.11557951 -0.13965022 2.55772062 0 0 Z " fill="#172651" transform="translate(283,36)"/>
<path d="M0 0 C3.04218216 1.43641085 6.08365123 2.87432554 9.125 4.3125 C10.40890625 4.91868164 10.40890625 4.91868164 11.71875 5.53710938 C15.32108207 7.24128955 18.91054534 8.95486972 22.46875 10.75 C24.67869679 11.84133175 26.59085043 12.53670201 29 13 C29.33 12.01 29.66 11.02 30 10 C30 11.65 30 13.3 30 15 C23.25 14.125 23.25 14.125 21 13 C21 13.66 21 14.32 21 15 C21.66 15 22.32 15 23 15 C22.4740625 16.1446875 22.4740625 16.1446875 21.9375 17.3125 C20.67639116 20.04759379 20.67639116 20.04759379 22 23 C20.68 23.33 19.36 23.66 18 24 C18.66 21.03 19.32 18.06 20 15 C18.68 14.67 17.36 14.34 16 14 C13.17212692 12.91153564 10.51896016 11.69242636 8 10 C7.27840576 8.35636866 6.60648579 6.68949614 6 5 C2.98303591 3.15725024 2.98303591 3.15725024 0 2 C0 1.34 0 0.68 0 0 Z " fill="#13204B" transform="translate(56,34)"/>
<path d="M0 0 C11.26206412 0.43546648 20.94465875 1.44310089 31 7 C27.37673261 8.2077558 26.35853631 7.54311128 23 6 C22.01 7.485 22.01 7.485 21 9 C22.32 10.32 23.64 11.64 25 13 C20.06083831 11.10032243 15.3068807 8.82840493 10.52734375 6.56640625 C7.05604832 4.93244295 3.5813209 3.37743111 0 2 C0 1.34 0 0.68 0 0 Z " fill="#091D50" transform="translate(10,19)"/>
<path d="M0 0 C1.32 0.33 2.64 0.66 4 1 C4 8.59 4 16.18 4 24 C0.30808984 23.38468164 -3.3393506 22.75366311 -7 22 C-7 21.67 -7 21.34 -7 21 C-5.02 20.67 -3.04 20.34 -1 20 C-1.00523682 19.42967041 -1.01047363 18.85934082 -1.01586914 18.27172852 C-1.03658221 15.70199677 -1.0496419 13.13228253 -1.0625 10.5625 C-1.07087891 9.66466797 -1.07925781 8.76683594 -1.08789062 7.84179688 C-1.09111328 6.98779297 -1.09433594 6.13378906 -1.09765625 5.25390625 C-1.10289307 4.46314697 -1.10812988 3.6723877 -1.11352539 2.85766602 C-1 1 -1 1 0 0 Z " fill="#28274A" transform="translate(193,36)"/>
<path d="M0 0 C2.125 0.375 2.125 0.375 4 1 C3.67 1.66 3.34 2.32 3 3 C2.01 3 1.02 3 0 3 C0.5775 3.98742187 1.155 4.97484375 1.75 5.9921875 C2.500226 7.28632735 3.25021368 8.58060537 4 9.875 C4.3815625 10.52597656 4.763125 11.17695312 5.15625 11.84765625 C8 16.7734375 8 16.7734375 8 19 C3.49272353 18.39733215 0.1412037 16.63400206 -3.8125 14.4375 C-4.40998047 14.10814453 -5.00746094 13.77878906 -5.62304688 13.43945312 C-7.08533998 12.63226733 -8.5431399 11.81695083 -10 11 C-10 10.67 -10 10.34 -10 10 C-7.69 10 -5.38 10 -3 10 C-2.814375 8.081875 -2.814375 8.081875 -2.625 6.125 C-2.25 2.25 -2.25 2.25 0 0 Z " fill="#062361" transform="translate(76,27)"/>
<path d="M0 0 C1.98 0.495 1.98 0.495 4 1 C4.33 8.26 4.66 15.52 5 23 C3.35 23.33 1.7 23.66 0 24 C-0.1958691 20.18788097 -0.38029565 16.37529466 -0.5625 12.5625 C-0.61857422 11.47388672 -0.67464844 10.38527344 -0.73242188 9.26367188 C-0.78076172 8.22919922 -0.82910156 7.19472656 -0.87890625 6.12890625 C-0.9260376 5.17056885 -0.97316895 4.21223145 -1.02172852 3.22485352 C-1 1 -1 1 0 0 Z " fill="#1C213F" transform="translate(146,36)"/>
<path d="M0 0 C0.99 0 1.98 0 3 0 C3 8.25 3 16.5 3 25 C1.68 25 0.36 25 -1 25 C-1.02886984 21.02084841 -1.04675406 17.04172347 -1.0625 13.0625 C-1.07087891 11.92619141 -1.07925781 10.78988281 -1.08789062 9.61914062 C-1.09111328 8.53955078 -1.09433594 7.45996094 -1.09765625 6.34765625 C-1.10289307 5.34742432 -1.10812988 4.34719238 -1.11352539 3.31665039 C-1 1 -1 1 0 0 Z " fill="#25274C" transform="translate(201,36)"/>
<path d="M0 0 C4.43090471 1.20842856 6.98112756 2.51668565 10 6 C7.11371599 7.57554035 4.46657616 8.46276373 1.25 9.125 C0.45078125 9.29257812 -0.3484375 9.46015625 -1.171875 9.6328125 C-1.77515625 9.75398438 -2.3784375 9.87515625 -3 10 C-3 12.31 -3 14.62 -3 17 C-3.33 15.68 -3.66 14.36 -4 13 C-6.64 13.33 -9.28 13.66 -12 14 C-12 13.34 -12 12.68 -12 12 C-9.69 12 -7.38 12 -5 12 C-4.9175 11.319375 -4.835 10.63875 -4.75 9.9375 C-3.77667472 6.1253093 -2.04192545 3.35929671 0 0 Z " fill="#0B1F54" transform="translate(25,29)"/>
<path d="M0 0 C1.14819277 5.8685408 0.77313045 11.0885256 0 17 C-0.66 17 -1.32 17 -2 17 C-2.66 13.37 -3.32 9.74 -4 6 C-8.21878192 5.80377759 -11.17010894 6.19769832 -15 8 C-14.7421875 6.10546875 -14.7421875 6.10546875 -14 4 C-12.2578125 2.98828125 -12.2578125 2.98828125 -10.125 2.3125 C-9.42632812 2.08175781 -8.72765625 1.85101563 -8.0078125 1.61328125 C-7.34523438 1.41089844 -6.68265625 1.20851562 -6 1 C-3 0 -3 0 0 0 Z " fill="#042563" transform="translate(39,37)"/>
<path d="M0 0 C2.97 0 5.94 0 9 0 C9.66 1.32 10.32 2.64 11 4 C13.05000871 4.80528889 13.05000871 4.80528889 15 5 C14.67 6.32 14.34 7.64 14 9 C12.68 8.67 11.36 8.34 10 8 C9.67 8.66 9.34 9.32 9 10 C6.6875 10.25 6.6875 10.25 4 10 C2.02389614 7.95575462 1 6.8823175 1 4 C1.99 4 2.98 4 4 4 C4 3.01 4 2.02 4 1 C2.68 0.67 1.36 0.34 0 0 Z " fill="#344E73" transform="translate(42,39)"/>
<path d="M0 0 C3.45201639 1.47721422 5.64961936 3.43794001 8.25 6.125 C8.95640625 6.84945313 9.6628125 7.57390625 10.390625 8.3203125 C11.18726562 9.15175781 11.18726562 9.15175781 12 10 C10.84826645 12.46800047 9.95216435 14.04783565 8 16 C7.83318891 19.08347826 7.83318891 19.08347826 8 22 C4.78475695 20.59155282 2.67816132 18.89655214 0.25 16.375 C-0.36359375 15.74335937 -0.9771875 15.11171875 -1.609375 14.4609375 C-2.06828125 13.97882812 -2.5271875 13.49671875 -3 13 C-2.67 12.34 -2.34 11.68 -2 11 C-1.01 11.33 -0.02 11.66 1 12 C1 12.66 1 13.32 1 14 C2.32 14.33 3.64 14.66 5 15 C5 14.01 5 13.02 5 12 C6.5 10.3125 6.5 10.3125 8 9 C4.82679218 5.46413986 2.83256305 3.41421969 -2 3 C-1.34 2.01 -0.68 1.02 0 0 Z " fill="#06265F" transform="translate(83,18)"/>
<path d="M0 0 C1.98 0 3.96 0 6 0 C5.95875 0.70125 5.9175 1.4025 5.875 2.125 C6.01684067 5.38733531 6.93169663 7.92862782 8 11 C8 11.99 8 12.98 8 14 C5.69 13.34 3.38 12.68 1 12 C1.33 10.68 1.66 9.36 2 8 C0.68 8.33 -0.64 8.66 -2 9 C-3 6 -3 6 -1.5625 2.8125 C-1.046875 1.884375 -0.53125 0.95625 0 0 Z " fill="#1C1C39" transform="translate(247,36)"/>
<path d="M0 0 C1.32 0 2.64 0 4 0 C3.8611021 5.55591586 1.47697155 8.41815163 -2.1796875 12.296875 C-6.49691795 16.33617216 -10.56556121 16.19915521 -16.20703125 16.0703125 C-16.79871094 16.04710938 -17.39039063 16.02390625 -18 16 C-18 15.34 -18 14.68 -18 14 C-14.7 14 -11.4 14 -8 14 C-8.33 12.68 -8.66 11.36 -9 10 C-6.03 10.495 -6.03 10.495 -3 11 C-3.66 9.35 -4.32 7.7 -5 6 C-4.34 5.67 -3.68 5.34 -3 5 C-2.67 4.01 -2.34 3.02 -2 2 C-1.34 2 -0.68 2 0 2 C0 1.34 0 0.68 0 0 Z " fill="#C39920" transform="translate(72,50)"/>
<path d="M0 0 C2.25 -0.3125 2.25 -0.3125 5 0 C6.35386936 1.65002828 7.68678142 3.3174387 9 5 C11.63460948 5.87943404 11.63460948 5.87943404 14 6 C14 7.65 14 9.3 14 11 C12.02 11.33 10.04 11.66 8 12 C8 11.34 8 10.68 8 10 C6.68 9.67 5.36 9.34 4 9 C4 8.34 4 7.68 4 7 C3.01 6.67 2.02 6.34 1 6 C0.67 4.02 0.34 2.04 0 0 Z " fill="#354D75" transform="translate(46,49)"/>
<path d="M0 0 C1.62752231 0.25523874 3.25203196 0.52974494 4.875 0.8125 C6.23238281 1.03873047 6.23238281 1.03873047 7.6171875 1.26953125 C10 2 10 2 12 5 C12.07905064 7.33199388 12.08798769 9.66832622 12 12 C12.66 12.33 13.32 12.66 14 13 C13.34 13.66 12.68 14.32 12 15 C11.01 15 10.02 15 9 15 C9 11.37 9 7.74 9 4 C8.67 4 8.34 4 8 4 C8 6.97 8 9.94 8 13 C6.68 13.33 5.36 13.66 4 14 C3.01 13.34 2.02 12.68 1 12 C0.59156077 9.28796348 0.86663133 6.7562858 1 4 C0.34 3.67 -0.32 3.34 -1 3 C-0.67 2.01 -0.34 1.02 0 0 Z M3 5 C1.70366379 6.06645115 1.70366379 6.06645115 1.9375 8.5625 C1.958125 9.366875 1.97875 10.17125 2 11 C4.475 11.495 4.475 11.495 7 12 C7 10.02 7 8.04 7 6 C5.05396726 5.40929986 5.05396726 5.40929986 3 5 Z " fill="#2B2E4D" transform="translate(110,45)"/>
<path d="M0 0 C3.3 0 6.6 0 10 0 C9.773125 0.763125 9.54625 1.52625 9.3125 2.3125 C9.1578125 3.6428125 9.1578125 3.6428125 9 5 C10.33378575 6.8354799 10.33378575 6.8354799 12 8 C11.67 8.66 11.34 9.32 11 10 C10.67 9.67 10.34 9.34 10 9 C8.52351124 8.90176004 7.04224583 8.87026481 5.5625 8.875 C4.75941406 8.87242188 3.95632812 8.86984375 3.12890625 8.8671875 C0.94602069 8.86421674 0.94602069 8.86421674 -1 10 C-0.649375 9.278125 -0.29875 8.55625 0.0625 7.8125 C1.10409017 4.6877295 0.89096572 3.11838004 0 0 Z " fill="#272B4D" transform="translate(216,40)"/>
<path d="M0 0 C2.02350324 3.03525486 2.32124018 4.19426202 2.625 7.6875 C2.69976563 8.49574219 2.77453125 9.30398437 2.8515625 10.13671875 C2.92503906 11.05904297 2.92503906 11.05904297 3 12 C0.66705225 12.04241723 -1.66702567 12.04092937 -4 12 C-5 11 -5 11 -5.1875 7.5625 C-5 4 -5 4 -3 2 C-2.34 2.33 -1.68 2.66 -1 3 C-0.67 2.01 -0.34 1.02 0 0 Z " fill="#022463" transform="translate(19,44)"/>
<path d="M0 0 C2.64 0 5.28 0 8 0 C9.32 2.64 10.64 5.28 12 8 C11.01 7.67 10.02 7.34 9 7 C8.7525 6.34 8.505 5.68 8.25 5 C7.8375 4.34 7.425 3.68 7 3 C3.43793339 2.18129815 3.43793339 2.18129815 0 2 C0 3.65 0 5.3 0 7 C-11.52164009 6.03644647 -11.52164009 6.03644647 -17 5 C-16.67 3.68 -16.34 2.36 -16 1 C-15.67 1.99 -15.34 2.98 -15 4 C-8.07 4.495 -8.07 4.495 -1 5 C-0.67 3.35 -0.34 1.7 0 0 Z " fill="#0C1F4A" transform="translate(52,85)"/>
<path d="M0 0 C2.31 0.66 4.62 1.32 7 2 C7 2.66 7 3.32 7 4 C3.125 5 3.125 5 2 5 C2 5.66 2 6.32 2 7 C-2.62 7.33 -7.24 7.66 -12 8 C-11.01 7.67 -10.02 7.34 -9 7 C-9 6.01 -9 5.02 -9 4 C-4.545 3.505 -4.545 3.505 0 3 C0 2.01 0 1.02 0 0 Z " fill="#AE8112" transform="translate(62,57)"/>
<path d="M0 0 C0.20086443 3.71599191 0.1519437 4.77208445 -2 8 C-4.97903963 9.15317663 -5.86559131 9.0448029 -9 8 C-9 7.34 -9 6.68 -9 6 C-9.66 6 -10.32 6 -11 6 C-10.6875 4.125 -10.6875 4.125 -10 2 C-6.3558226 -0.4294516 -4.28758728 -0.16179575 0 0 Z M-6 2 C-5.01 2.495 -5.01 2.495 -4 3 C-3.375 5.0625 -3.375 5.0625 -3 7 C-3 5.35 -3 3.7 -3 2 C-3.99 2 -4.98 2 -6 2 Z M-7 3 C-7 3.99 -7 4.98 -7 6 C-6.34 5.67 -5.68 5.34 -5 5 C-5.66 4.34 -6.32 3.68 -7 3 Z " fill="#192656" transform="translate(226,49)"/>
<path d="M0 0 C6.6 0 13.2 0 20 0 C20.33 1.32 20.66 2.64 21 4 C17.59437148 4.77842938 14.49234244 5.09978121 11 5 C10.67 3.68 10.34 2.36 10 1 C6.7 1 3.4 1 0 1 C0 0.67 0 0.34 0 0 Z " fill="#1A1D41" transform="translate(219,62)"/>
<path d="M0 0 C2.125 0.375 2.125 0.375 4 1 C3.67 1.66 3.34 2.32 3 3 C2.01 3 1.02 3 0 3 C0.5775 3.98742187 1.155 4.97484375 1.75 5.9921875 C2.500226 7.28632735 3.25021368 8.58060537 4 9.875 C4.3815625 10.52597656 4.763125 11.17695312 5.15625 11.84765625 C8 16.7734375 8 16.7734375 8 19 C4.31245243 18.50168276 2.39509338 17.89932357 0 15 C1.65 15.33 3.3 15.66 5 16 C4.67 14.68 4.34 13.36 4 12 C3.34 12 2.68 12 2 12 C2 11.01 2 10.02 2 9 C1.34 9 0.68 9 0 9 C0 8.34 0 7.68 0 7 C-0.66 7 -1.32 7 -2 7 C-2.125 4.625 -2.125 4.625 -2 2 C-1.34 1.34 -0.68 0.68 0 0 Z " fill="#0F1B49" transform="translate(76,27)"/>
<path d="M0 0 C1.65 0 3.3 0 5 0 C5 2.64 5 5.28 5 8 C4.34 8 3.68 8 3 8 C3 7.34 3 6.68 3 6 C2.34 6 1.68 6 1 6 C1.33 7.65 1.66 9.3 2 11 C2.33 11 2.66 11 3 11 C3 12.98 3 14.96 3 17 C2.01 16.34 1.02 15.68 0 15 C-0.22137393 12.37302936 -0.28162025 9.99106036 -0.1875 7.375 C-0.17396484 6.66859375 -0.16042969 5.9621875 -0.14648438 5.234375 C-0.1111104 3.48925872 -0.05730221 1.74453392 0 0 Z " fill="#0C1440" transform="translate(262,47)"/>
<path d="M0 0 C0.66 0.33 1.32 0.66 2 1 C2 1.99 2 2.98 2 4 C4.31 4.33 6.62 4.66 9 5 C9 5.66 9 6.32 9 7 C8.34 7 7.68 7 7 7 C6.67 8.98 6.34 10.96 6 13 C5.34 13 4.68 13 4 13 C4 11.02 4 9.04 4 7 C0.9254644 7.7763932 0.9254644 7.7763932 -1 10 C-0.67 8.02 -0.34 6.04 0 4 C-0.99 3.67 -1.98 3.34 -3 3 C-2.01 2.67 -1.02 2.34 0 2 C0 1.34 0 0.68 0 0 Z " fill="#212A5A" transform="translate(247,44)"/>
<path d="M0 0 C1.98 0.99 3.96 1.98 6 3 C6 3.66 6 4.32 6 5 C6.969375 5.2475 7.93875 5.495 8.9375 5.75 C9.948125 6.1625 10.95875 6.575 12 7 C12.875 9.125 12.875 9.125 13 11 C7.63176008 10.91199607 7.63176008 10.91199607 5 10 C3.125 6.5 3.125 6.5 2 3 C1.34 2.67 0.68 2.34 0 2 C0 1.34 0 0.68 0 0 Z " fill="#07225C" transform="translate(50,31)"/>
<path d="M0 0 C5.60461531 0.42089996 10.72086547 0.91613111 16 3 C15.67 5.31 15.34 7.62 15 10 C14.34 10 13.68 10 13 10 C13 8.02 13 6.04 13 4 C8.71 3.34 4.42 2.68 0 2 C0 1.34 0 0.68 0 0 Z " fill="#091B48" transform="translate(60,7)"/>
<path d="M0 0 C2.33294775 -0.04241723 4.66702567 -0.04092937 7 0 C8 1 8 1 8.125 4.3125 C8.02893262 7.14648763 7.85249568 9.33595099 7 12 C10.465 11.505 10.465 11.505 14 11 C13.67 11.66 13.34 12.32 13 13 C9.37 13 5.74 13 2 13 C2.99 12.01 3.98 11.02 5 10 C5.57323807 7.72838745 5.57323807 7.72838745 5.6875 5.3125 C5.75324219 4.50425781 5.81898437 3.69601563 5.88671875 2.86328125 C5.92410156 2.24839844 5.96148437 1.63351563 6 1 C4.02 1 2.04 1 0 1 C0 0.67 0 0.34 0 0 Z " fill="#0D1634" transform="translate(112,48)"/>
<path d="M0 0 C0.763125 0.20625 1.52625 0.4125 2.3125 0.625 C2.3125 1.285 2.3125 1.945 2.3125 2.625 C3.6325 2.295 4.9525 1.965 6.3125 1.625 C5.20059524 4.96071429 4.84929327 5.20917079 1.9375 6.8125 C1.33164063 7.15667969 0.72578125 7.50085938 0.1015625 7.85546875 C-1.6875 8.625 -1.6875 8.625 -4.6875 8.625 C-4.6875 7.965 -4.6875 7.305 -4.6875 6.625 C-4.048125 6.356875 -3.40875 6.08875 -2.75 5.8125 C-0.35618314 4.73832248 -0.35618314 4.73832248 0.3125 1.625 C-1.6675 1.625 -3.6475 1.625 -5.6875 1.625 C-2.6875 -0.375 -2.6875 -0.375 0 0 Z " fill="#072B69" transform="translate(69.6875,65.375)"/>
<path d="M0 0 C0.99 0 1.98 0 3 0 C2.67 6.6 2.34 13.2 2 20 C1.34 20 0.68 20 0 20 C0 13.4 0 6.8 0 0 Z " fill="#05123B" transform="translate(283,38)"/>
<path d="M0 0 C-3 2 -3 2 -6 2 C-6 4.31 -6 6.62 -6 9 C-5.34 9 -4.68 9 -4 9 C-3.67 10.65 -3.34 12.3 -3 14 C-4.98 13.34 -6.96 12.68 -9 12 C-8.67421616 9.99875639 -8.33944795 7.99897128 -8 6 C-7.9175 5.0925 -7.835 4.185 -7.75 3.25 C-7 1 -7 1 -4.5625 -0.375 C-2 -1 -2 -1 0 0 Z " fill="#0C1E4D" transform="translate(43,10)"/>
<path d="M0 0 C3.3 0 6.6 0 10 0 C10.33 1.32 10.66 2.64 11 4 C8.03 4 5.06 4 2 4 C1.34 2.68 0.68 1.36 0 0 Z " fill="#0F1C31" transform="translate(168,57)"/>
<path d="M0 0 C1.134375 0.020625 2.26875 0.04125 3.4375 0.0625 C3.7675 1.7125 4.0975 3.3625 4.4375 5.0625 C1.7975 5.0625 -0.8425 5.0625 -3.5625 5.0625 C-4.125 3.125 -4.125 3.125 -4.5625 1.0625 C-3.5625 0.0625 -3.5625 0.0625 0 0 Z " fill="#221F38" transform="translate(114.5625,38.9375)"/>
<path d="M0 0 C5.53846154 -0.36923077 5.53846154 -0.36923077 7.875 1.5 C8.24625 1.995 8.6175 2.49 9 3 C4.56923077 6.07692308 4.56923077 6.07692308 1.6875 5.6875 C1.130625 5.460625 0.57375 5.23375 0 5 C0 3.35 0 1.7 0 0 Z " fill="#21244A" transform="translate(257,62)"/>
<path d="M0 0 C1.32 0 2.64 0 4 0 C3.67 0.99 3.34 1.98 3 3 C2.77281504 5.56634861 2.58391816 8.11678107 2.4375 10.6875 C2.39431641 11.38939453 2.35113281 12.09128906 2.30664062 12.81445312 C2.2008264 14.54275206 2.09993419 16.2713511 2 18 C0 16 0 16 -0.1953125 12.3046875 C-0.182009 10.82799892 -0.15814835 9.35137642 -0.125 7.875 C-0.11146484 6.74384766 -0.11146484 6.74384766 -0.09765625 5.58984375 C-0.0740687 3.72642746 -0.03819719 1.86317407 0 0 Z " fill="#403E69" transform="translate(273,37)"/>
<path d="M0 0 C0.80824219 0.19464844 1.61648437 0.38929687 2.44921875 0.58984375 C3.06410156 0.74582031 3.67898437 0.90179688 4.3125 1.0625 C4.6425 0.4025 4.9725 -0.2575 5.3125 -0.9375 C5.6425 0.3825 5.9725 1.7025 6.3125 3.0625 C2.0225 3.0625 -2.2675 3.0625 -6.6875 3.0625 C-7.0175 2.0725 -7.3475 1.0825 -7.6875 0.0625 C-4.39053895 -1.03648702 -3.28255097 -0.80874444 0 0 Z " fill="#131A3D" transform="translate(189.6875,57.9375)"/>
<path d="M0 0 C3.66666667 0 7.33333333 0 11 0 C11 1.32 11 2.64 11 4 C7.7 4 4.4 4 1 4 C0.67 2.68 0.34 1.36 0 0 Z " fill="#0B1844" transform="translate(267,57)"/>
<path d="M0 0 C1.32 0 2.64 0 4 0 C4.125 7.75 4.125 7.75 3 10 C2.01 10 1.02 10 0 10 C0 6.7 0 3.4 0 0 Z " fill="#141830" transform="translate(127,47)"/>
<path d="M0 0 C5.71608833 3.69164038 5.71608833 3.69164038 6.46875 7.16015625 C6.52653891 11.48710095 6.01155912 15.1026042 4 19 C3.34 19 2.68 19 2 19 C1.67 17.35 1.34 15.7 1 14 C1.66 14 2.32 14 3 14 C4.42041821 11.15916359 4.31452272 9.14522722 4 6 C2.08333079 3.74934898 2.08333079 3.74934898 0 2 C0 1.34 0 0.68 0 0 Z " fill="#091A47" transform="translate(92,44)"/>
<path d="M0 0 C3.91211733 1.15585285 6.8745041 2.35534962 10 5 C8.68 5 7.36 5 6 5 C6 5.66 6 6.32 6 7 C5.34 7 4.68 7 4 7 C3.67 7.99 3.34 8.98 3 10 C2.34 8.68 1.68 7.36 1 6 C1.99 6 2.98 6 4 6 C4 5.34 4 4.68 4 4 C2.68 4 1.36 4 0 4 C0 2.68 0 1.36 0 0 Z " fill="#5F615A" transform="translate(66,45)"/>
<path d="M0 0 C0.33 0.99 0.66 1.98 1 3 C0.67 3.66 0.34 4.32 0 5 C0.99 5.33 1.98 5.66 3 6 C1.68 6.33 0.36 6.66 -1 7 C-1 9.31 -1 11.62 -1 14 C-1.33 12.68 -1.66 11.36 -2 10 C-4.64 10.33 -7.28 10.66 -10 11 C-10 10.34 -10 9.68 -10 9 C-7.69 9 -5.38 9 -3 9 C-2.814375 7.88625 -2.814375 7.88625 -2.625 6.75 C-2.04513299 4.19858515 -1.26291261 2.2732427 0 0 Z " fill="#0D1544" transform="translate(23,32)"/>
<path d="M0 0 C3 0 3 0 4.75390625 1.64453125 C5.35074219 2.35996094 5.94757813 3.07539062 6.5625 3.8125 C7.46162109 4.87404297 7.46162109 4.87404297 8.37890625 5.95703125 C10 8 10 8 12 11 C11.34 11 10.68 11 10 11 C9.34 11.66 8.68 12.32 8 13 C6.8529806 11.20909242 5.70742065 9.41725003 4.5625 7.625 C3.60537109 6.12839844 3.60537109 6.12839844 2.62890625 4.6015625 C1 2 1 2 0 0 Z " fill="#0E1948" transform="translate(76,30)"/>
<path d="M0 0 C3 1 3 1 5 4 C4.625 6.6875 4.625 6.6875 4 9 C1.69 7.02 -0.62 5.04 -3 3 C-2.01 2.01 -1.02 1.02 0 0 Z " fill="#022764" transform="translate(50,33)"/>
<path d="M0 0 C2.31 0.66 4.62 1.32 7 2 C7 1.34 7 0.68 7 0 C10.82097239 0.53069061 13.06171403 1.49701566 16 4 C15.67 4.99 15.34 5.98 15 7 C15 6.34 15 5.68 15 5 C10.32047386 3.19558808 10.32047386 3.19558808 5.5625 3.875 C5.046875 4.24625 4.53125 4.6175 4 5 C2.68 3.35 1.36 1.7 0 0 Z " fill="#0F1C4A" transform="translate(22,76)"/>
<path d="M0 0 C0.66 0 1.32 0 2 0 C2.38289206 9.76374745 2.38289206 9.76374745 0 14 C-0.99 14.495 -0.99 14.495 -2 15 C-3.125 10.25 -3.125 10.25 -2 8 C-1.34 8 -0.68 8 0 8 C-0.2784375 6.2984375 -0.2784375 6.2984375 -0.5625 4.5625 C-0.706875 3.386875 -0.85125 2.21125 -1 1 C-0.67 0.67 -0.34 0.34 0 0 Z " fill="#1F2F4E" transform="translate(255,52)"/>
<path d="M0 0 C3.45201639 1.47721422 5.64961936 3.43794001 8.25 6.125 C8.95640625 6.84945313 9.6628125 7.57390625 10.390625 8.3203125 C11.18726562 9.15175781 11.18726562 9.15175781 12 10 C10.25 13.875 10.25 13.875 8 15 C8.433125 13.948125 8.433125 13.948125 8.875 12.875 C9.28115206 10.07124059 9.28115206 10.07124059 7.90625 8.3671875 C4.88558582 5.17699625 2.55532784 3.26796046 -2 3 C-1.34 2.01 -0.68 1.02 0 0 Z " fill="#0A1C49" transform="translate(83,18)"/>
<path d="M0 0 C0.99 0.33 1.98 0.66 3 1 C2.67 2.32 2.34 3.64 2 5 C-0.64 5 -3.28 5 -6 5 C-6 3.68 -6 2.36 -6 1 C-4.7934375 1.0309375 -4.7934375 1.0309375 -3.5625 1.0625 C-1.06645115 1.29633621 -1.06645115 1.29633621 0 0 Z " fill="#18192F" transform="translate(131,63)"/>
<path d="M0 0 C3.18005028 3.88672813 6.10554447 7.89952133 9 12 C3.70841026 10.59928507 1.22521956 7.14512755 -2 3 C-1.34 3 -0.68 3 0 3 C0 2.01 0 1.02 0 0 Z " fill="#151D40" transform="translate(31,58)"/>
<path d="M0 0 C1.21236328 0.02707031 1.21236328 0.02707031 2.44921875 0.0546875 C3.37154297 0.08949219 3.37154297 0.08949219 4.3125 0.125 C4.3125 0.455 4.3125 0.785 4.3125 1.125 C2.6728125 1.3415625 2.6728125 1.3415625 1 1.5625 C-2.61872987 2.00788104 -2.61872987 2.00788104 -5.6875 3.125 C-6.42073796 5.14008358 -6.42073796 5.14008358 -6.6875 7.125 C-6.0275 7.125 -5.3675 7.125 -4.6875 7.125 C-4.3575 8.445 -4.0275 9.765 -3.6875 11.125 C-5.0075 10.795 -6.3275 10.465 -7.6875 10.125 C-7.98046875 4.0703125 -7.98046875 4.0703125 -7.6875 2.125 C-4.48369983 -0.01086678 -3.66810033 -0.10632175 0 0 Z " fill="#0D173E" transform="translate(221.6875,47.875)"/>
<path d="M0 0 C0.598125 0.185625 1.19625 0.37125 1.8125 0.5625 C4.16408762 1.22093687 4.16408762 1.22093687 7 0 C7 0.99 7 1.98 7 3 C7.66 3 8.32 3 9 3 C8.649375 3.763125 8.29875 4.52625 7.9375 5.3125 C6.67639116 8.04759379 6.67639116 8.04759379 8 11 C6.68 11.33 5.36 11.66 4 12 C4.66 9.03 5.32 6.06 6 3 C4.68 2.67 3.36 2.34 2 2 C1.34 1.34 0.68 0.68 0 0 Z " fill="#1B2D4C" transform="translate(70,46)"/>
<path d="M0 0 C0.99 0.495 0.99 0.495 2 1 C2.625 3.0625 2.625 3.0625 3 5 C5.31 5.33 7.62 5.66 10 6 C10 8.31 10 10.62 10 13 C8 11 8 11 7 8 C3.48809191 6.77030122 3.48809191 6.77030122 0 6 C0 4.02 0 2.04 0 0 Z " fill="#19214C" transform="translate(12,50)"/>
<path d="M0 0 C1.32 0.33 2.64 0.66 4 1 C4 5.62 4 10.24 4 15 C3.34 14.67 2.68 14.34 2 14 C2.33 13.34 2.66 12.68 3 12 C2.34 12 1.68 12 1 12 C1.01160156 11.30132812 1.02320313 10.60265625 1.03515625 9.8828125 C1.04417969 8.97273438 1.05320313 8.06265625 1.0625 7.125 C1.07410156 6.22007813 1.08570313 5.31515625 1.09765625 4.3828125 C1.16249257 1.9831415 1.16249257 1.9831415 0 0 Z " fill="#24284F" transform="translate(235,46)"/>
<path d="M0 0 C3.37462715 0.54723683 5.08235 1.0549 8 3 C8 3.99 8 4.98 8 6 C5.125 5.8125 5.125 5.8125 2 5 C0.625 2.4375 0.625 2.4375 0 0 Z " fill="#0B2251" transform="translate(44,62)"/>
<path d="M0 0 C2.40829792 2.40829792 2.25602579 2.99283556 2.265625 6.28125 C2.26820313 7.12300781 2.27078125 7.96476562 2.2734375 8.83203125 C2.26570313 9.71246094 2.25796875 10.59289063 2.25 11.5 C2.25773437 12.38042969 2.26546875 13.26085938 2.2734375 14.16796875 C2.27085937 15.00972656 2.26828125 15.85148437 2.265625 16.71875 C2.26336914 17.49154297 2.26111328 18.26433594 2.25878906 19.06054688 C2 21 2 21 0 23 C0 15.41 0 7.82 0 0 Z " fill="#192045" transform="translate(280,37)"/>
<path d="M0 0 C2.31 0.66 4.62 1.32 7 2 C7 2.66 7 3.32 7 4 C3.47652211 4.9395941 0.68770169 5 -3 5 C-3 4.34 -3 3.68 -3 3 C-2.01 3 -1.02 3 0 3 C0 2.01 0 1.02 0 0 Z " fill="#95752A" transform="translate(62,57)"/>
<path d="M0 0 C2.64 0 5.28 0 8 0 C9.32 2.64 10.64 5.28 12 8 C11.01 7.67 10.02 7.34 9 7 C8.7525 6.34 8.505 5.68 8.25 5 C7.8375 4.34 7.425 3.68 7 3 C3.43793339 2.18129815 3.43793339 2.18129815 0 2 C0 1.34 0 0.68 0 0 Z " fill="#15254F" transform="translate(52,85)"/>
<path d="M0 0 C1.65 0.33 3.3 0.66 5 1 C5.33 2.32 5.66 3.64 6 5 C3.69 5 1.38 5 -1 5 C-0.67 3.35 -0.34 1.7 0 0 Z " fill="#15163F" transform="translate(244,63)"/>
<path d="M0 0 C2.97 0.495 2.97 0.495 6 1 C6 1.33 6 1.66 6 2 C4.35 2 2.7 2 1 2 C0.67 4.64 0.34 7.28 0 10 C-0.99 10 -1.98 10 -3 10 C-2.21302675 6.58978257 -1.12880057 3.31114834 0 0 Z " fill="#0B2A66" transform="translate(39,76)"/>
<path d="M0 0 C0.99 0 1.98 0 3 0 C3 1.65 3 3.3 3 5 C1.02 5.33 -0.96 5.66 -3 6 C-3 5.34 -3 4.68 -3 4 C-3.99 3.67 -4.98 3.34 -6 3 C-4.68 2.67 -3.36 2.34 -2 2 C-1.67 2.66 -1.34 3.32 -1 4 C-0.67 2.68 -0.34 1.36 0 0 Z " fill="#48525F" transform="translate(57,55)"/>
<path d="M0 0 C2.4375 0.375 2.4375 0.375 5 1 C5.33 1.66 5.66 2.32 6 3 C8.02463255 3.65213292 8.02463255 3.65213292 10 4 C9.67 4.99 9.34 5.98 9 7 C7.68127338 6.60348083 6.37002899 6.18201309 5.0625 5.75 C3.96615234 5.40195312 3.96615234 5.40195312 2.84765625 5.046875 C1 4 1 4 0.24609375 1.890625 C0.16488281 1.26671875 0.08367187 0.6428125 0 0 Z " fill="#042568" transform="translate(65,41)"/>
<path d="M0 0 C1.45742463 -0.08096803 2.91612807 -0.13917774 4.375 -0.1875 C5.18710937 -0.22230469 5.99921875 -0.25710937 6.8359375 -0.29296875 C7.55007812 -0.19628906 8.26421875 -0.09960938 9 0 C9.66 0.99 10.32 1.98 11 3 C9.35 2.67 7.7 2.34 6 2 C5.34 3.98 4.68 5.96 4 8 C3.01 7.34 2.02 6.68 1 6 C1 5.34 1 4.68 1 4 C1.99 4 2.98 4 4 4 C4 3.01 4 2.02 4 1 C2.68 0.67 1.36 0.34 0 0 Z " fill="#7F7045" transform="translate(42,39)"/>
<path d="M0 0 C0.70125 0.721875 1.4025 1.44375 2.125 2.1875 C4.92770745 4.99823813 7.92262792 7.49516226 11 10 C10.01 10.495 10.01 10.495 9 11 C5.41766316 9.20883158 2.54024821 7.10474782 0 4 C0 2.68 0 1.36 0 0 Z " fill="#0A1E4B" transform="translate(27,62)"/>
<path d="M0 0 C1.65 0.33 3.3 0.66 5 1 C4.67 2.32 4.34 3.64 4 5 C2.35 4.67 0.7 4.34 -1 4 C-0.67 2.68 -0.34 1.36 0 0 Z " fill="#26233F" transform="translate(235,62)"/>
<path d="M0 0 C0.99 0.33 1.98 0.66 3 1 C3 1.66 3 2.32 3 3 C3.99 2.67 4.98 2.34 6 2 C6 2.66 6 3.32 6 4 C5.01 4.495 5.01 4.495 4 5 C3.67 5.66 3.34 6.32 3 7 C0 6 0 6 -1.1875 3.9375 C-1.5896875 2.9784375 -1.5896875 2.9784375 -2 2 C-1.34 2 -0.68 2 0 2 C0 1.34 0 0.68 0 0 Z " fill="#202953" transform="translate(179,54)"/>
<path d="M0 0 C-0.33 0.66 -0.66 1.32 -1 2 C-4.96 1.67 -8.92 1.34 -13 1 C-8.69592553 -3.30407447 -5.26367255 -1.46692514 0 0 Z " fill="#24263E" transform="translate(188,47)"/>
<path d="M0 0 C0.99 0.33 1.98 0.66 3 1 C1.35 4.63 -0.3 8.26 -2 12 C-2.66 12 -3.32 12 -4 12 C-3.38722388 9.03824877 -2.74627478 7.61941217 -1 5 C-0.61500109 3.34450469 -0.27206865 1.6777567 0 0 Z " fill="#1B264C" transform="translate(92,66)"/>
<path d="M0 0 C1.32 0 2.64 0 4 0 C4 1.32 4 2.64 4 4 C1.03 4 -1.94 4 -5 4 C-4.34 3.67 -3.68 3.34 -3 3 C-2.67 2.34 -2.34 1.68 -2 1 C-1.34 1.33 -0.68 1.66 0 2 C0 1.34 0 0.68 0 0 Z " fill="#101A33" transform="translate(151,57)"/>
<path d="M0 0 C0.66 0.99 1.32 1.98 2 3 C4.05925139 3.72382467 4.05925139 3.72382467 6 4 C5.01 4.495 5.01 4.495 4 5 C4.66 6.32 5.32 7.64 6 9 C4.35 8.67 2.7 8.34 1 8 C1 7.01 1 6.02 1 5 C0.34 4.67 -0.32 4.34 -1 4 C-0.67 2.68 -0.34 1.36 0 0 Z " fill="#272E50" transform="translate(164,52)"/>
<path d="M0 0 C4.29 0 8.58 0 13 0 C13.33 1.32 13.66 2.64 14 4 C13.01 4 12.02 4 11 4 C11 3.01 11 2.02 11 1 C7.37 1.33 3.74 1.66 0 2 C0 1.34 0 0.68 0 0 Z " fill="#101634" transform="translate(174,48)"/>
<path d="M0 0 C2 1 2 1 3 3 C-2.75 6 -2.75 6 -5 6 C-4.75 4.125 -4.75 4.125 -4 2 C-2.0625 0.6875 -2.0625 0.6875 0 0 Z " fill="#031B5B" transform="translate(29,39)"/>
<path d="M0 0 C1.75 1.4375 1.75 1.4375 3 3 C2.67 3.99 2.34 4.98 2 6 C0.35 5.67 -1.3 5.34 -3 5 C-2.67 4.01 -2.34 3.02 -2 2 C-2.66 1.67 -3.32 1.34 -4 1 C-2.1875 0.3125 -2.1875 0.3125 0 0 Z " fill="#1C2243" transform="translate(157,55)"/>
<path d="M0 0 C1.32 0.66 2.64 1.32 4 2 C4 3.65 4 5.3 4 7 C3.34 6.67 2.68 6.34 2 6 C2 5.34 2 4.68 2 4 C0.35 4.33 -1.3 4.66 -3 5 C-2.67 4.01 -2.34 3.02 -2 2 C-1.34 2 -0.68 2 0 2 C0 1.34 0 0.68 0 0 Z " fill="#1D427A" transform="translate(53,53)"/>
<path d="M0 0 C0.33 0 0.66 0 1 0 C1 7.59 1 15.18 1 23 C0.67 23 0.34 23 0 23 C0 15.41 0 7.82 0 0 Z " fill="#34375D" transform="translate(198,37)"/>
<path d="M0 0 C0.33 0 0.66 0 1 0 C1 7.59 1 15.18 1 23 C0.67 23 0.34 23 0 23 C0 15.41 0 7.82 0 0 Z " fill="#212A46" transform="translate(143,37)"/>
<path d="M0 0 C0.33 0 0.66 0 1 0 C1 7.59 1 15.18 1 23 C0.67 23 0.34 23 0 23 C0 15.41 0 7.82 0 0 Z " fill="#1F2E5D" transform="translate(289,37)"/>
<path d="M0 0 C2.31 0.33 4.62 0.66 7 1 C7 1.66 7 2.32 7 3 C6.34 3 5.68 3 5 3 C5.33 3.99 5.66 4.98 6 6 C5.34 6 4.68 6 4 6 C4 5.34 4 4.68 4 4 C2.68 3.67 1.36 3.34 0 3 C0 2.01 0 1.02 0 0 Z " fill="#0E193D" transform="translate(244,55)"/>
<path d="M0 0 C2.80561393 1.40280696 3.00680507 3.0509005 4.125 5.9375 C4.47820313 6.83339844 4.83140625 7.72929688 5.1953125 8.65234375 C6 11 6 11 6 13 C5.34 13 4.68 13 4 13 C1.55302334 8.63799813 0.49730652 4.97306516 0 0 Z " fill="#0C2048" transform="translate(21,49)"/>
<path d="M0 0 C1.32 0 2.64 0 4 0 C4 0.66 4 1.32 4 2 C3.01 2.495 3.01 2.495 2 3 C2.33 3.99 2.66 4.98 3 6 C1.0625 5.625 1.0625 5.625 -1 5 C-1.33 4.34 -1.66 3.68 -2 3 C-1.34 2.01 -0.68 1.02 0 0 Z " fill="#1D417E" transform="translate(66,49)"/>
<path d="M0 0 C1.98 0.66 3.96 1.32 6 2 C6 2.99 6 3.98 6 5 C3.69 4.34 1.38 3.68 -1 3 C-0.67 2.01 -0.34 1.02 0 0 Z " fill="#171D4B" transform="translate(249,45)"/>
<path d="M0 0 C0.99 0.33 1.98 0.66 3 1 C3 1.99 3 2.98 3 4 C3.66 4 4.32 4 5 4 C5.33 5.32 5.66 6.64 6 8 C3.5625 7.375 3.5625 7.375 1 6 C0.1875 2.875 0.1875 2.875 0 0 Z " fill="#03286A" transform="translate(75,35)"/>
<path d="M0 0 C1.98 0 3.96 0 6 0 C6 0.99 6 1.98 6 3 C4.8553125 3.2165625 4.8553125 3.2165625 3.6875 3.4375 C0.91827092 3.9632594 0.91827092 3.9632594 -2 5 C-1.34 3.35 -0.68 1.7 0 0 Z " fill="#161131" transform="translate(247,36)"/>
<path d="M0 0 C1.09054688 0.02320312 2.18109375 0.04640625 3.3046875 0.0703125 C4.40039062 0.08835937 5.49609375 0.10640625 6.625 0.125 C7.46804687 0.14820312 8.31109375 0.17140625 9.1796875 0.1953125 C9.1796875 0.5253125 9.1796875 0.8553125 9.1796875 1.1953125 C4.50767545 2.40099303 -0.03527542 2.28913676 -4.8203125 2.1953125 C-2.8203125 0.1953125 -2.8203125 0.1953125 0 0 Z " fill="#092052" transform="translate(54.8203125,69.8046875)"/>
<path d="M0 0 C1.32 0 2.64 0 4 0 C3.75 1.875 3.75 1.875 3 4 C0.9375 5.25 0.9375 5.25 -1 6 C-0.67 4.02 -0.34 2.04 0 0 Z " fill="#101E4C" transform="translate(243,48)"/>
<path d="M0 0 C1.98 0.495 1.98 0.495 4 1 C4 3.97 4 6.94 4 10 C3.67 10 3.34 10 3 10 C2.67 8.02 2.34 6.04 2 4 C1.01 4 0.02 4 -1 4 C-0.67 2.68 -0.34 1.36 0 0 Z " fill="#313249" transform="translate(193,36)"/>
<path d="M0 0 C1.98 0.495 1.98 0.495 4 1 C3.67 2.32 3.34 3.64 3 5 C1.68 4.67 0.36 4.34 -1 4 C-0.67 2.68 -0.34 1.36 0 0 Z " fill="#C6C3B1" transform="translate(53,43)"/>
<path d="M0 0 C1.32 0.66 2.64 1.32 4 2 C4 2.66 4 3.32 4 4 C1.69 4.33 -0.62 4.66 -3 5 C-3 4.01 -3 3.02 -3 2 C-2.01 1.34 -1.02 0.68 0 0 Z " fill="#352F59" transform="translate(249,38)"/>
<path d="M0 0 C2 0 4 0 6 0 C6.33 1.98 6.66 3.96 7 6 C3.63279613 4.60667426 2.0140476 3.0210714 0 0 Z " fill="#0B163E" transform="translate(84,34)"/>
<path d="M0 0 C0.33 0 0.66 0 1 0 C1.33 2.97 1.66 5.94 2 9 C1.34 9 0.68 9 0 9 C0 9.99 0 10.98 0 12 C-0.99 12 -1.98 12 -3 12 C-2.67 10.68 -2.34 9.36 -2 8 C-1.34 8 -0.68 8 0 8 C0 5.36 0 2.72 0 0 Z " fill="#2E3560" transform="translate(233,48)"/>
<path d="M0 0 C0.99 0.495 0.99 0.495 2 1 C1.01 1.495 1.01 1.495 0 2 C0 1.34 0 0.68 0 0 Z M-1 2 C1 4 1 4 1.125 6.625 C1.08375 7.40875 1.0425 8.1925 1 9 C-0.32 8.67 -1.64 8.34 -3 8 C-3 7.34 -3 6.68 -3 6 C-2.34 6 -1.68 6 -1 6 C-1 4.68 -1 3.36 -1 2 Z " fill="#0B1C51" transform="translate(254,51)"/>
<path d="M0 0 C0.33 0 0.66 0 1 0 C1.33 4.95 1.66 9.9 2 15 C1.34 15 0.68 15 0 15 C0 10.05 0 5.1 0 0 Z " fill="#1A1E3A" transform="translate(151,41)"/>
<path d="M0 0 C1.65 0 3.3 0 5 0 C5 0.99 5 1.98 5 3 C3.35 3.33 1.7 3.66 0 4 C0 2.68 0 1.36 0 0 Z " fill="#1D2342" transform="translate(216,40)"/>
<path d="M0 0 C1.65 0 3.3 0 5 0 C5 1.32 5 2.64 5 4 C3.0625 3.6875 3.0625 3.6875 1 3 C0.67 2.01 0.34 1.02 0 0 Z " fill="#191F47" transform="translate(168,57)"/>
<path d="M0 0 C1.65 0 3.3 0 5 0 C5.33 0.99 5.66 1.98 6 3 C6.99 3 7.98 3 9 3 C9 3.66 9 4.32 9 5 C5.54074837 3.7508258 2.85306797 2.32472205 0 0 Z " fill="#0D1E4B" transform="translate(66,37)"/>
<path d="M0 0 C2.375 0.25 2.375 0.25 5 1 C6.3125 3.0625 6.3125 3.0625 7 5 C6.01 5 5.02 5 4 5 C1.8125 2.5 1.8125 2.5 0 0 Z " fill="#143374" transform="translate(48,36)"/>
<path d="M0 0 C6.52307692 0.49230769 6.52307692 0.49230769 8.9375 3.0625 C9.288125 3.701875 9.63875 4.34125 10 5 C6.08788267 3.84414715 3.1254959 2.64465038 0 0 Z " fill="#13214F" transform="translate(40,24)"/>
<path d="M0 0 C-1.36983503 3.16115776 -1.9890638 3.9927092 -5 6 C-5 4.35 -5 2.7 -5 1 C-2 0 -2 0 0 0 Z " fill="#062F70" transform="translate(48,8)"/>
<path d="M0 0 C5.28 0 10.56 0 16 0 C16 0.33 16 0.66 16 1 C10.72 1 5.44 1 0 1 C0 0.67 0 0.34 0 0 Z " fill="#131939" transform="translate(112,62)"/>
<path d="M0 0 C0.33 0 0.66 0 1 0 C1 4.29 1 8.58 1 13 C0.01 12.67 -0.98 12.34 -2 12 C-1.34 12 -0.68 12 0 12 C0 8.04 0 4.08 0 0 Z " fill="#121946" transform="translate(260,48)"/>
<path d="M0 0 C3.96 0 7.92 0 12 0 C12 0.33 12 0.66 12 1 C8.04 1 4.08 1 0 1 C0 0.67 0 0.34 0 0 Z " fill="#161A3D" transform="translate(183,62)"/>
<path d="M0 0 C0.33 0 0.66 0 1 0 C1 2.31 1 4.62 1 7 C0.01 7 -0.98 7 -2 7 C-1.42415568 4.61435923 -0.77772405 2.33317216 0 0 Z " fill="#202A43" transform="translate(125,49)"/>
<path d="M0 0 C0.99 0.495 0.99 0.495 2 1 C1.67 3.64 1.34 6.28 1 9 C0.67 9 0.34 9 0 9 C0 6.03 0 3.06 0 0 Z " fill="#0E2454" transform="translate(30,44)"/>
<path d="M0 0 C2.97 0 5.94 0 9 0 C9 0.33 9 0.66 9 1 C6.03 1 3.06 1 0 1 C0 0.67 0 0.34 0 0 Z " fill="#0C1541" transform="translate(268,62)"/>
<path d="M0 0 C2.97 0 5.94 0 9 0 C9 0.33 9 0.66 9 1 C6.03 1 3.06 1 0 1 C0 0.67 0 0.34 0 0 Z " fill="#151C3A" transform="translate(169,62)"/>
<path d="M0 0 C2.97 0 5.94 0 9 0 C9 0.33 9 0.66 9 1 C6.03 1 3.06 1 0 1 C0 0.67 0 0.34 0 0 Z " fill="#121837" transform="translate(132,62)"/>
<path d="M0 0 C0.33 0 0.66 0 1 0 C1 2.97 1 5.94 1 9 C0.67 9 0.34 9 0 9 C0 6.03 0 3.06 0 0 Z " fill="#232C53" transform="translate(240,49)"/>
<path d="M0 0 C2.97 0 5.94 0 9 0 C9 0.33 9 0.66 9 1 C6.03 1 3.06 1 0 1 C0 0.67 0 0.34 0 0 Z " fill="#061E52" transform="translate(15,18)"/>
<path d="M0 0 C0.33 0.99 0.66 1.98 1 3 C-0.98 3 -2.96 3 -5 3 C-4.67 2.34 -4.34 1.68 -4 1 C-2.02 1.495 -2.02 1.495 0 2 C0 1.34 0 0.68 0 0 Z " fill="#021A4C" transform="translate(57,9)"/>
<path d="M0 0 C1.98 0 3.96 0 6 0 C6 0.33 6 0.66 6 1 C4.35 1 2.7 1 1 1 C0.67 1.66 0.34 2.32 0 3 C0 2.01 0 1.02 0 0 Z " fill="#0C214C" transform="translate(53,88)"/>
<path d="M0 0 C1.98 0 3.96 0 6 0 C5.67 0.99 5.34 1.98 5 3 C5 2.34 5 1.68 5 1 C3.35 1 1.7 1 0 1 C0 0.67 0 0.34 0 0 Z " fill="#031442" transform="translate(13,58)"/>
<path d="M0 0 C0.33 0.99 0.66 1.98 1 3 C1.99 2.67 2.98 2.34 4 2 C4 2.66 4 3.32 4 4 C2.68 4 1.36 4 0 4 C0 2.68 0 1.36 0 0 Z " fill="#151B3F" transform="translate(159,52)"/>
<path d="M0 0 C0.33 0 0.66 0 1 0 C1 2.64 1 5.28 1 8 C0.67 8 0.34 8 0 8 C0 5.36 0 2.72 0 0 Z " fill="#021A51" transform="translate(99,49)"/>
<path d="M0 0 C2.31 0 4.62 0 7 0 C7 0.33 7 0.66 7 1 C4.69 1 2.38 1 0 1 C0 0.67 0 0.34 0 0 Z " fill="#161F38" transform="translate(147,62)"/>
<path d="M0 0 C1.98 0 3.96 0 6 0 C6 0.33 6 0.66 6 1 C4.02 1 2.04 1 0 1 C0 0.67 0 0.34 0 0 Z " fill="#060931" transform="translate(245,69)"/>
<path d="M0 0 C1.98 0 3.96 0 6 0 C6 0.33 6 0.66 6 1 C4.02 1 2.04 1 0 1 C0 0.67 0 0.34 0 0 Z " fill="#0F1334" transform="translate(158,62)"/>
<path d="M0 0 C0.33 0 0.66 0 1 0 C1 1.98 1 3.96 1 6 C0.67 6 0.34 6 0 6 C0 4.02 0 2.04 0 0 Z " fill="#0B1235" transform="translate(212,51)"/>
<path d="M0 0 C0.66 0 1.32 0 2 0 C2 0.99 2 1.98 2 3 C1.34 3 0.68 3 0 3 C0 2.01 0 1.02 0 0 Z " fill="#1B2A57" transform="translate(248,52)"/>
<path d="M0 0 C0.33 0 0.66 0 1 0 C1 1.98 1 3.96 1 6 C0.67 6 0.34 6 0 6 C0 4.02 0 2.04 0 0 Z " fill="#080E22" transform="translate(132,49)"/>
<path d="M0 0 C0.33 0 0.66 0 1 0 C1 1.98 1 3.96 1 6 C0.67 6 0.34 6 0 6 C0 4.02 0 2.04 0 0 Z " fill="#00000E" transform="translate(268,48)"/>
<path d="M0 0 C1.98 0 3.96 0 6 0 C6 0.33 6 0.66 6 1 C4.02 1 2.04 1 0 1 C0 0.67 0 0.34 0 0 Z " fill="#051645" transform="translate(13,39)"/>
<path d="M0 0 C0.33 0 0.66 0 1 0 C1 1.98 1 3.96 1 6 C0.67 6 0.34 6 0 6 C0 4.02 0 2.04 0 0 Z " fill="#0B2854" transform="translate(76,12)"/>
<path d="M0 0 C1.65 0 3.3 0 5 0 C5 0.33 5 0.66 5 1 C3.35 1 1.7 1 0 1 C0 0.67 0 0.34 0 0 Z " fill="#082554" transform="translate(41,92)"/>
<path d="M0 0 C0.33 0.66 0.66 1.32 1 2 C-0.32 1.67 -1.64 1.34 -3 1 C-2.01 0.67 -1.02 0.34 0 0 Z " fill="#00072D" transform="translate(272,53)"/>
<path d="M0 0 C0.33 0 0.66 0 1 0 C1 1.65 1 3.3 1 5 C0.67 5 0.34 5 0 5 C0 3.35 0 1.7 0 0 Z " fill="#121533" transform="translate(189,48)"/>
<path d="M0 0 C0.33 0 0.66 0 1 0 C1 1.65 1 3.3 1 5 C0.67 5 0.34 5 0 5 C0 3.35 0 1.7 0 0 Z " fill="#0B1C4D" transform="translate(33,45)"/>
<path d="M0 0 C1.65 0 3.3 0 5 0 C5 0.33 5 0.66 5 1 C3.35 1 1.7 1 0 1 C0 0.67 0 0.34 0 0 Z " fill="#041A4E" transform="translate(64,6)"/>
<path d="M0 0 C4 1 4 1 4 1 Z " fill="#0A2D50" transform="translate(36,91)"/>
<path d="M0 0 C1 4 1 4 1 4 Z " fill="#18326C" transform="translate(34,83)"/>
<path d="M0 0 C0 3 0 3 0 3 Z " fill="#0B214F" transform="translate(92,61)"/>
<path d="M0 0 C1 4 1 4 1 4 Z " fill="#0A2D5B" transform="translate(19,61)"/>
<path d="M0 0 C4 1 4 1 4 1 Z " fill="#282E4F" transform="translate(170,55)"/>
<path d="M0 0 C4 1 4 1 4 1 Z " fill="#072554" transform="translate(26,19)"/>
<path d="M0 0 C3 1 3 1 3 1 Z " fill="#0A174C" transform="translate(48,93)"/>
<path d="M0 0 C0.99 0.495 0.99 0.495 2 1 C1.01 1.495 1.01 1.495 0 2 C0 1.34 0 0.68 0 0 Z " fill="#081F54" transform="translate(76,81)"/>
<path d="M0 0 C3 1 3 1 3 1 Z " fill="#051747" transform="translate(79,79)"/>
<path d="M0 0 C3 1 3 1 3 1 Z " fill="#0D133C" transform="translate(284,62)"/>
<path d="" fill="#061B54" transform="translate(0,0)"/>
<path d="" fill="#0D2B57" transform="translate(0,0)"/>
<path d="" fill="#0F2E52" transform="translate(0,0)"/>
<path d="M0 0 C0.66 0 1.32 0 2 0 C1.67 0.66 1.34 1.32 1 2 C0.67 1.34 0.34 0.68 0 0 Z " fill="#1C234A" transform="translate(114,51)"/>
<path d="M0 0 C3 1 3 1 3 1 Z " fill="#000006" transform="translate(263,45)"/>
<path d="" fill="#0A1E52" transform="translate(0,0)"/>
<path d="M0 0 C3 1 3 1 3 1 Z " fill="#0C1A49" transform="translate(12,23)"/>
<path d="M0 0 C3 1 3 1 3 1 Z " fill="#071747" transform="translate(30,20)"/>
<path d="M0 0 C3 1 3 1 3 1 Z " fill="#0C214D" transform="translate(71,7)"/>
<path d="M0 0 C3 1 3 1 3 1 Z " fill="#06143D" transform="translate(60,5)"/>
<path d="" fill="#152C5E" transform="translate(0,0)"/>
<path d="M0 0 C2 1 2 1 2 1 Z " fill="#0B1D4A" transform="translate(72,90)"/>
<path d="" fill="#151741" transform="translate(0,0)"/>
<path d="" fill="#0C2258" transform="translate(0,0)"/>
<path d="M0 0 C2 1 2 1 2 1 Z " fill="#1B1B48" transform="translate(86,82)"/>
<path d="M0 0 C2 1 2 1 2 1 Z " fill="#0A2957" transform="translate(84,81)"/>
<path d="M0 0 C2 1 2 1 2 1 Z " fill="#0A1A4B" transform="translate(82,80)"/>
<path d="M0 0 C2 1 2 1 2 1 Z " fill="#082754" transform="translate(32,80)"/>
<path d="M0 0 C2 1 2 1 2 1 Z " fill="#091944" transform="translate(30,79)"/>
<path d="M0 0 C2 1 2 1 2 1 Z " fill="#152B5E" transform="translate(48,75)"/>
<path d="M0 0 C2 1 2 1 2 1 Z " fill="#0D1E4E" transform="translate(45,74)"/>
<path d="M0 0 C2 1 2 1 2 1 Z " fill="#061D4C" transform="translate(42,73)"/>
<path d="M0 0 C2 1 2 1 2 1 Z " fill="#061847" transform="translate(40,72)"/>
<path d="" fill="#0F2152" transform="translate(0,0)"/>
<path d="M0 0 C2 1 2 1 2 1 Z " fill="#042A6C" transform="translate(38,71)"/>
<path d="" fill="#0A1B4A" transform="translate(0,0)"/>
<path d="M0 0 C2 1 2 1 2 1 Z " fill="#032247" transform="translate(49,69)"/>
<path d="M0 0 C2 1 2 1 2 1 Z " fill="#1E1E35" transform="translate(236,68)"/>
<path d="M0 0 C2 1 2 1 2 1 Z " fill="#1D1933" transform="translate(231,68)"/>
<path d="M0 0 C2 1 2 1 2 1 Z " fill="#061A4F" transform="translate(46,68)"/>
<path d="" fill="#1F1D3F" transform="translate(0,0)"/>
<path d="M0 0 C2 1 2 1 2 1 Z " fill="#16142E" transform="translate(201,62)"/>
<path d="" fill="#192E4A" transform="translate(0,0)"/>
<path d="" fill="#0A1E4D" transform="translate(0,0)"/>
<path d="" fill="#0A1B4E" transform="translate(0,0)"/>
<path d="" fill="#042152" transform="translate(0,0)"/>
<path d="M0 0 C2 1 2 1 2 1 Z " fill="#2A334D" transform="translate(114,55)"/>
<path d="" fill="#031C4B" transform="translate(0,0)"/>
<path d="" fill="#010D1A" transform="translate(0,0)"/>
<path d="M0 0 C2 1 2 1 2 1 Z " fill="#19254D" transform="translate(160,51)"/>
<path d="M0 0 C2 1 2 1 2 1 Z " fill="#13122D" transform="translate(128,45)"/>
<path d="" fill="#1E1F3E" transform="translate(0,0)"/>
<path d="" fill="#00032A" transform="translate(0,0)"/>
<path d="" fill="#0A1B47" transform="translate(0,0)"/>
<path d="" fill="#081A43" transform="translate(0,0)"/>
<path d="M0 0 C2 1 2 1 2 1 Z " fill="#031848" transform="translate(22,27)"/>
<path d="M0 0 C2 1 2 1 2 1 Z " fill="#021B53" transform="translate(20,26)"/>
<path d="M0 0 C2 1 2 1 2 1 Z " fill="#052255" transform="translate(18,25)"/>
<path d="M0 0 C2 1 2 1 2 1 Z " fill="#091A4E" transform="translate(15,24)"/>
<path d="" fill="#0C204A" transform="translate(0,0)"/>
<path d="M0 0 C2 1 2 1 2 1 Z " fill="#141B4F" transform="translate(83,16)"/>
<path d="" fill="#121D4F" transform="translate(0,0)"/>
<path d="M0 0 C2 1 2 1 2 1 Z " fill="#0C193E" transform="translate(47,4)"/>
<path d="" fill="#0B2458" transform="translate(0,0)"/>
<path d="" fill="#021E4B" transform="translate(0,0)"/>
<path d="" fill="#091C50" transform="translate(0,0)"/>
<path d="" fill="#141F4A" transform="translate(0,0)"/>
<path d="" fill="#081A3F" transform="translate(0,0)"/>
<path d="" fill="#0F2557" transform="translate(0,0)"/>
<path d="" fill="#0E234A" transform="translate(0,0)"/>
<path d="" fill="#09194A" transform="translate(0,0)"/>
<path d="" fill="#020D38" transform="translate(0,0)"/>
<path d="" fill="#051E48" transform="translate(0,0)"/>
<path d="" fill="#0B1946" transform="translate(0,0)"/>
<path d="" fill="#000B33" transform="translate(0,0)"/>
<path d="" fill="#091F45" transform="translate(0,0)"/>
<path d="" fill="#000638" transform="translate(0,0)"/>
<path d="" fill="#092048" transform="translate(0,0)"/>
<path d="" fill="#071443" transform="translate(0,0)"/>
<path d="" fill="#091C48" transform="translate(0,0)"/>
<path d="" fill="#0D1A4C" transform="translate(0,0)"/>
<path d="" fill="#0E2145" transform="translate(0,0)"/>
<path d="" fill="#142555" transform="translate(0,0)"/>
<path d="" fill="#1E2D5B" transform="translate(0,0)"/>
<path d="" fill="#0C1C48" transform="translate(0,0)"/>
<path d="" fill="#1D2957" transform="translate(0,0)"/>
<path d="" fill="#131E4C" transform="translate(0,0)"/>
<path d="" fill="#122A57" transform="translate(0,0)"/>
<path d="" fill="#171F4D" transform="translate(0,0)"/>
<path d="" fill="#061D51" transform="translate(0,0)"/>
<path d="" fill="#0C1A3E" transform="translate(0,0)"/>
<path d="" fill="#060A36" transform="translate(0,0)"/>
<path d="" fill="#091D35" transform="translate(0,0)"/>
<path d="" fill="#000C3A" transform="translate(0,0)"/>
<path d="" fill="#00001E" transform="translate(0,0)"/>
<path d="" fill="#06215A" transform="translate(0,0)"/>
<path d="" fill="#000D37" transform="translate(0,0)"/>
<path d="" fill="#152151" transform="translate(0,0)"/>
<path d="" fill="#030717" transform="translate(0,0)"/>
<path d="" fill="#001948" transform="translate(0,0)"/>
<path d="" fill="#000D38" transform="translate(0,0)"/>
<path d="" fill="#0B184A" transform="translate(0,0)"/>
<path d="" fill="#000E35" transform="translate(0,0)"/>
<path d="" fill="#001948" transform="translate(0,0)"/>
<path d="" fill="#001F48" transform="translate(0,0)"/>
<path d="" fill="#1A1F4D" transform="translate(0,0)"/>
<path d="" fill="#081648" transform="translate(0,0)"/>
<path d="" fill="#002B5D" transform="translate(0,0)"/>
<path d="" fill="#071B47" transform="translate(0,0)"/>
<path d="" fill="#1C234E" transform="translate(0,0)"/>
<path d="" fill="#0D1C43" transform="translate(0,0)"/>
<path d="" fill="#0D1B4F" transform="translate(0,0)"/>
<path d="" fill="#121637" transform="translate(0,0)"/>
<path d="" fill="#141F44" transform="translate(0,0)"/>
<path d="" fill="#071C47" transform="translate(0,0)"/>
<path d="" fill="#041A4D" transform="translate(0,0)"/>
<path d="" fill="#000017" transform="translate(0,0)"/>
<path d="" fill="#3C3651" transform="translate(0,0)"/>
<path d="" fill="#333E70" transform="translate(0,0)"/>
<path d="" fill="#23274F" transform="translate(0,0)"/>
<path d="" fill="#282846" transform="translate(0,0)"/>
<path d="" fill="#091945" transform="translate(0,0)"/>
<path d="" fill="#001043" transform="translate(0,0)"/>
<path d="" fill="#001142" transform="translate(0,0)"/>
<path d="" fill="#141B3E" transform="translate(0,0)"/>
<path d="" fill="#011041" transform="translate(0,0)"/>
<path d="" fill="#041B4C" transform="translate(0,0)"/>
<path d="" fill="#051C46" transform="translate(0,0)"/>
<path d="" fill="#051B43" transform="translate(0,0)"/>
<path d="" fill="#02163D" transform="translate(0,0)"/>
<path d="" fill="#14183C" transform="translate(0,0)"/>
<path d="" fill="#2A2944" transform="translate(0,0)"/>
<path d="" fill="#0C0929" transform="translate(0,0)"/>
<path d="" fill="#1D2330" transform="translate(0,0)"/>
<path d="" fill="#252439" transform="translate(0,0)"/>
<path d="" fill="#001447" transform="translate(0,0)"/>
<path d="" fill="#051643" transform="translate(0,0)"/>
<path d="" fill="#012350" transform="translate(0,0)"/>
<path d="" fill="#001C4A" transform="translate(0,0)"/>
<path d="" fill="#040F47" transform="translate(0,0)"/>
<path d="" fill="#001E4F" transform="translate(0,0)"/>
<path d="" fill="#00143D" transform="translate(0,0)"/>
<path d="" fill="#141845" transform="translate(0,0)"/>
<path d="" fill="#0C1649" transform="translate(0,0)"/>
<path d="" fill="#091647" transform="translate(0,0)"/>
<path d="" fill="#00173F" transform="translate(0,0)"/>
<path d="" fill="#00123E" transform="translate(0,0)"/>
<path d="" fill="#031844" transform="translate(0,0)"/>
<path d="" fill="#001845" transform="translate(0,0)"/>
<path d="" fill="#001339" transform="translate(0,0)"/>
<path d="" fill="#021B43" transform="translate(0,0)"/>
<path d="" fill="#001A48" transform="translate(0,0)"/>
<path d="" fill="#00204F" transform="translate(0,0)"/>
<path d="" fill="#001073" transform="translate(0,0)"/>
<path d="" fill="#002761" transform="translate(0,0)"/>
<path d="" fill="#072150" transform="translate(0,0)"/>
<path d="" fill="#072D5D" transform="translate(0,0)"/>
<path d="" fill="#061441" transform="translate(0,0)"/>
<path d="" fill="#081947" transform="translate(0,0)"/>
<path d="" fill="#0B1846" transform="translate(0,0)"/>
<path d="" fill="#02143F" transform="translate(0,0)"/>
<path d="" fill="#011E4B" transform="translate(0,0)"/>
<path d="" fill="#0A2252" transform="translate(0,0)"/>
<path d="" fill="#061943" transform="translate(0,0)"/>
<path d="" fill="#081D4A" transform="translate(0,0)"/>
<path d="" fill="#00092C" transform="translate(0,0)"/>
<path d="" fill="#101F51" transform="translate(0,0)"/>
<path d="" fill="#041034" transform="translate(0,0)"/>
<path d="" fill="#041C51" transform="translate(0,0)"/>
</svg>
