<?xml version="1.0" encoding="UTF-8"?>
<svg version="1.1" xmlns="http://www.w3.org/2000/svg" width="150" height="150">
<path d="M0 0 C0.18433594 0.56589844 0.36867187 1.13179687 0.55859375 1.71484375 C1.50742676 4.114337 2.37683867 5.9848942 4 8 C7.01814399 9.00258484 9.83661334 9.10814997 13 9 C13.33 6.36 13.66 3.72 14 1 C21.13393752 1.51537952 28.01812817 2.44005901 35 4 C35 5.98 35 7.96 35 10 C35.33 10 35.66 10 36 10 C36.495 13.465 36.495 13.465 37 17 C38.65 17.66 40.3 18.32 42 19 C43.65 17.68 45.3 16.36 47 15 C51.62 19.62 56.24 24.24 61 29 C59 33 59 33 56.8125 34.8125 C54.56885882 37.00990884 54.56885882 37.00990884 55.25 40.75 C55.4975 41.8225 55.745 42.895 56 44 C52.69881206 43.4194679 51.08865924 42.45131901 48.765625 40.05859375 C48.19199219 39.47529297 47.61835937 38.89199219 47.02734375 38.29101562 C46.44082031 37.67935547 45.85429688 37.06769531 45.25 36.4375 C44.34701172 35.51420898 44.34701172 35.51420898 43.42578125 34.57226562 C41.94365619 33.05485187 40.4709033 31.52829404 39 30 C37.515 30.495 37.515 30.495 36 31 C36.34786708 32.97536745 36.34786708 32.97536745 37 35 C37.66 35.33 38.32 35.66 39 36 C39.33 35.01 39.66 34.02 40 33 C40.4125 33.41773682 40.825 33.83547363 41.25 34.26586914 C51.08504092 44.33894943 51.08504092 44.33894943 61.58203125 53.703125 C64.33272792 56.21891369 64.98810947 57.86444791 65.3125 61.5625 C65.20862868 66.63330878 63.63861372 71.24021728 62 76 C61.34 76 60.68 76 60 76 C58.68 73.03 57.36 70.06 56 67 C54.68 67.33 53.36 67.66 52 68 C53.98 68.495 53.98 68.495 56 69 C55.67 71.64 55.34 74.28 55 77 C56.65 77.99 58.3 78.98 60 80 C58.05709049 87.05582926 54.95742848 92.8653455 51 99 C47.66666667 97.66666667 44.33333333 96.33333333 41 95 C38.23100861 97.50102448 36.35676815 99.19447304 36 103 C36.33 104.32 36.66 105.64 37 107 C30.73 109.97 24.46 112.94 18 116 C16.35 113.03 14.7 110.06 13 107 C10.36 107 7.72 107 5 107 C4.34 109.31 3.68 111.62 3 114 C-3.93 113.01 -10.86 112.02 -18 111 C-18 107.04 -18 103.08 -18 99 C-20.31 97.68 -22.62 96.36 -25 95 C-26.65 96.32 -28.3 97.64 -30 99 C-34.62 94.38 -39.24 89.76 -44 85 C-42 81 -42 81 -39.75 79.3125 C-37.73246318 77.18109277 -37.73246318 77.18109277 -38.1875 74.74609375 C-38.69938349 72.47461076 -39.34299102 70.23383054 -40 68 C-42.97 67.67 -45.94 67.34 -49 67 C-49.02688864 63.87494304 -49.04678462 60.75011575 -49.0625 57.625 C-49.07087891 56.73554687 -49.07925781 55.84609375 -49.08789062 54.9296875 C-49.09111328 54.07890625 -49.09433594 53.228125 -49.09765625 52.3515625 C-49.10289307 51.56604004 -49.10812988 50.78051758 -49.11352539 49.97119141 C-49 48 -49 48 -48 46 C-45.03 46 -42.06 46 -39 46 C-38.74476562 45.02160156 -38.74476562 45.02160156 -38.484375 44.0234375 C-36.98961902 38.63277496 -35.39793098 34.45246128 -32 30 C-30.68 30.33 -29.36 30.66 -28 31 C-30.05192345 28.76050134 -31.82680913 27.43263627 -34.6171875 26.24609375 C-35.30683594 25.94896484 -35.99648438 25.65183594 -36.70703125 25.34570312 C-37.42246094 25.04599609 -38.13789062 24.74628906 -38.875 24.4375 C-39.93654297 23.98213867 -39.93654297 23.98213867 -41.01953125 23.51757812 C-44.66011941 21.9616843 -48.31645145 20.45175149 -52 19 C-52 18.34 -52 17.68 -52 17 C-26.15449309 18.15138249 -26.15449309 18.15138249 -18 23 C-17.505 22.505 -17.505 22.505 -17 22 C-18.32 21.34 -19.64 20.68 -21 20 C-20.67 19.01 -20.34 18.02 -20 17 C-19.34 16.67 -18.68 16.34 -18 16 C-18.495 11.545 -18.495 11.545 -19 7 C-16.58757287 5.82379175 -14.17072309 4.6589044 -11.75 3.5 C-11.06808594 3.16613281 -10.38617188 2.83226562 -9.68359375 2.48828125 C-6.1479008 0.80625256 -3.98070714 0 0 0 Z M-15 23 C-14.67 23.99 -14.34 24.98 -14 26 C-13.01 25.67 -12.02 25.34 -11 25 C-11.33 24.34 -11.66 23.68 -12 23 C-12.99 23 -13.98 23 -15 23 Z M-10 25 C-10 25.99 -10 26.98 -10 28 C-8.68 27.34 -7.36 26.68 -6 26 C-7.32 25.67 -8.64 25.34 -10 25 Z M-4 28 C-4.33 28.66 -4.66 29.32 -5 30 C-3.02 30.66 -1.04 31.32 1 32 C1 31.34 1 30.68 1 30 C-1.475 29.01 -1.475 29.01 -4 28 Z M-26 31 C-25.67 31.99 -25.34 32.98 -25 34 C-24.34 34 -23.68 34 -23 34 C-23.33 33.01 -23.66 32.02 -24 31 C-24.66 31 -25.32 31 -26 31 Z M3 32 C3 32.66 3 33.32 3 34 C3.99 34.33 4.98 34.66 6 35 C6.33 34.34 6.66 33.68 7 33 C5.68 32.67 4.36 32.34 3 32 Z M-22 33 C-22 33.99 -22 34.98 -22 36 C-21.34 36 -20.68 36 -20 36 C-19.67 36.66 -19.34 37.32 -19 38 C-18.67 37.01 -18.34 36.02 -18 35 C-19.32 34.34 -20.64 33.68 -22 33 Z M7 34 C7 34.66 7 35.32 7 36 C7.99 36.33 8.98 36.66 10 37 C10.33 36.34 10.66 35.68 11 35 C9.68 34.67 8.36 34.34 7 34 Z M11 36 C11 36.66 11 37.32 11 38 C11.99 38.33 12.98 38.66 14 39 C14.33 38.34 14.66 37.68 15 37 C13.68 36.67 12.36 36.34 11 36 Z M39 36 C39 36.99 39 37.98 39 39 C39.66 39 40.32 39 41 39 C40.67 38.01 40.34 37.02 40 36 C39.67 36 39.34 36 39 36 Z M15 38 C15.33 38.66 15.66 39.32 16 40 C16.33 39.34 16.66 38.68 17 38 C16.34 38 15.68 38 15 38 Z M-36 43 C-36.33328851 51.56674915 -36.11584616 58.95073076 -33 67 C-32.34 66.67 -31.68 66.34 -31 66 C-31.2165625 65.2265625 -31.433125 64.453125 -31.65625 63.65625 C-33.27977446 57.5830659 -34.36253225 52.28389231 -34 46 C-28.06084316 43.49289691 -22.29722557 41.39938346 -16 40 C-16 39.67 -16 39.34 -16 39 C-23.33813334 38.4355282 -29.16088115 40.44672896 -36 43 Z M17 39 C17.33 39.66 17.66 40.32 18 41 C18.33 40.34 18.66 39.68 19 39 C18.34 39 17.68 39 17 39 Z M41 39 C40.67 39.66 40.34 40.32 40 41 C40.99 41.99 41.98 42.98 43 44 C43.33 43.34 43.66 42.68 44 42 C43.01 41.01 42.02 40.02 41 39 Z M19 40 C19.67163455 43.04682789 19.67163455 43.04682789 21.77734375 44.16796875 C22.84662109 44.67263672 22.84662109 44.67263672 23.9375 45.1875 C24.64777344 45.53167969 25.35804687 45.87585937 26.08984375 46.23046875 C27.96596296 47.12455962 27.96596296 47.12455962 30 47 C29.32836545 43.95317211 29.32836545 43.95317211 27.22265625 42.83203125 C26.50980469 42.49558594 25.79695313 42.15914062 25.0625 41.8125 C24.35222656 41.46832031 23.64195313 41.12414063 22.91015625 40.76953125 C21.03403704 39.87544038 21.03403704 39.87544038 19 40 Z M44 43 C45 45 45 45 45 45 Z M31 46 C30.67 46.66 30.34 47.32 30 48 C30.66 48 31.32 48 32 48 C31.67 47.34 31.34 46.68 31 46 Z M44 46 C45.26974972 50.41522109 45.26974972 50.41522109 48 54 C47.67 51.69 47.34 49.38 47 47 C46.01 46.67 45.02 46.34 44 46 Z M33 47 C32.67 47.66 32.34 48.32 32 49 C32.99 49.33 33.98 49.66 35 50 C35.33 49.34 35.66 48.68 36 48 C35.01 47.67 34.02 47.34 33 47 Z M-26 49 C-27.75478582 50.75478582 -27.25528528 53.11504963 -27.3125 55.5 C-27.20677765 65.42615369 -22.558181 72.09150247 -17 80 C-16.34 80.99 -15.68 81.98 -15 83 C-20.31746297 79.43702989 -24.19876819 75.87111113 -27.7734375 70.5390625 C-28.17820312 70.03117187 -28.58296875 69.52328125 -29 69 C-29.66 69 -30.32 69 -31 69 C-28.98397253 77.9601221 -21.95451199 83.56714748 -14.625 88.4609375 C-6.19795311 93.40179535 1.60895641 95.17523107 11.3125 95.0625 C12.05306641 95.05798828 12.79363281 95.05347656 13.55664062 95.04882812 C15.37112899 95.03712175 17.18557534 95.01918898 19 95 C19 94.67 19 94.34 19 94 C20.32 94 21.64 94 23 94 C22.67 93.34 22.34 92.68 22 92 C15.07 91.67 8.14 91.34 1 91 C1 90.34 1 89.68 1 89 C2.50240234 88.94392578 2.50240234 88.94392578 4.03515625 88.88671875 C16.15999978 88.49771635 16.15999978 88.49771635 26 82 C25.38592285 82.02094727 24.7718457 82.04189453 24.13916016 82.06347656 C21.30127983 82.14768034 18.46366348 82.19898423 15.625 82.25 C14.17673828 82.30027344 14.17673828 82.30027344 12.69921875 82.3515625 C4.49418086 82.46169724 -2.44771368 80.93449739 -8.875 75.625 C-9.57625 74.75875 -10.2775 73.8925 -11 73 C-11.70125 72.154375 -12.4025 71.30875 -13.125 70.4375 C-16.53017908 64.19467169 -18.26136987 57.12232905 -18 50 C-21.98399958 49.30903529 -21.98399958 49.30903529 -26 49 Z M36 49 C36.33 49.99 36.66 50.98 37 52 C37.99 51.67 38.98 51.34 40 51 C38.68 50.34 37.36 49.68 36 49 Z M40 51 C40 51.66 40 52.32 40 53 C42.31 53.66 44.62 54.32 47 55 C45.18777466 52.9375006 45.18777466 52.9375006 43 51 C42.01 51 41.02 51 40 51 Z M-32 67 C-31.67 67.66 -31.34 68.32 -31 69 C-30.67 68.34 -30.34 67.68 -30 67 C-30.66 67 -31.32 67 -32 67 Z M47.4921875 71.46875 C46.95851563 72.1390625 46.42484375 72.809375 45.875 73.5 C42.55173975 77.48084154 38.93914637 80.85664483 35.015625 84.23828125 C33.26751123 85.76618689 31.61768133 87.33624547 30 89 C30.66 89.33 31.32 89.66 32 90 C37.30197838 86.32939958 41.93486578 82.28262288 46.5 77.75 C47.04043945 77.21858398 47.58087891 76.68716797 48.13769531 76.13964844 C51.07078841 73.55488362 51.07078841 73.55488362 52 70 C49.0073409 69.65111646 49.0073409 69.65111646 47.4921875 71.46875 Z M28 89 C26.02 89.66 24.04 90.32 22 91 C23.76529595 92.21690533 23.76529595 92.21690533 26 93 C28.23470405 92.21690533 28.23470405 92.21690533 30 91 C29.34 90.34 28.68 89.68 28 89 Z M34 99 C35 101 35 101 35 101 Z " fill="#09245B" transform="translate(67,17)"/>
<path d="M0 0 C4.84574672 4.02093877 9.30152171 8.26860424 13.71875 12.75390625 C16.48695086 15.47944648 19.39226705 18.00080517 22.37109375 20.4921875 C25.191365 23.1027983 25.97543251 24.71993066 26.3125 28.5625 C26.20862868 33.63330878 24.63861372 38.24021728 23 43 C22.34 43 21.68 43 21 43 C19.68 40.03 18.36 37.06 17 34 C15.68 34.33 14.36 34.66 13 35 C13 35.66 13 36.32 13 37 C12.01 37 11.02 37 10 37 C9.76667969 37.55558594 9.53335938 38.11117187 9.29296875 38.68359375 C5.3653364 45.7201073 -1.31560819 51.63557175 -9 54 C-10.7015625 54.5878125 -10.7015625 54.5878125 -12.4375 55.1875 C-13.283125 55.455625 -14.12875 55.72375 -15 56 C-15 56.66 -15 57.32 -15 58 C-18.11216459 59.55608229 -21.4007658 59.14322832 -24.8125 59.125 C-25.52470703 59.12886719 -26.23691406 59.13273437 -26.97070312 59.13671875 C-30.77280929 59.12968433 -34.30487007 58.914708 -38 58 C-38 57.34 -38 56.68 -38 56 C-36.73285156 55.85304687 -35.46570313 55.70609375 -34.16015625 55.5546875 C-21.02479676 53.96167098 -21.02479676 53.96167098 -10 47 C-11.65 46.34 -13.3 45.68 -15 45 C-14.34 44.01 -13.68 43.02 -13 42 C-14.0725 42.66 -15.145 43.32 -16.25 44 C-22.54406105 47.10254953 -29.06006986 47.16572613 -35.74609375 45.1875 C-42.25147575 42.3358257 -46.31686635 38.01465862 -50 32 C-51.1053873 28.6838381 -51.16753642 26.11463365 -51.1875 22.625 C-51.20167969 21.50351563 -51.21585938 20.38203125 -51.23046875 19.2265625 C-50.99865056 15.98110787 -50.62381042 13.81733669 -49 11 C-45.85188044 9.55299437 -42.29720212 9.8335209 -38.875 9.8125 C-37.82054688 9.79832031 -36.76609375 9.78414062 -35.6796875 9.76953125 C-33 10 -33 10 -31 12 C-31.99 12.99 -32.98 13.98 -34 15 C-32.35 15.66 -30.7 16.32 -29 17 C-29.33 18.65 -29.66 20.3 -30 22 C-34.875 21.125 -34.875 21.125 -36 20 C-35.62022539 24.62276538 -35.62022539 24.62276538 -33.9375 28.875 C-30.16889185 31.06322409 -25.73699654 31.3039744 -21.5 30.5625 C-21.005 30.376875 -20.51 30.19125 -20 30 C-20 29.34 -20 28.68 -20 28 C-19.34 28 -18.68 28 -18 28 C-18 24.04 -18 20.08 -18 16 C-18.66 16 -19.32 16 -20 16 C-21.61949011 13.42786866 -22.04408751 12.32330841 -21.625 9.25 C-21.315625 8.13625 -21.315625 8.13625 -21 7 C-20.52691406 7.31453125 -20.05382812 7.6290625 -19.56640625 7.953125 C-15.21151774 10.77149339 -10.85598114 13.08605114 -6.078125 15.10546875 C-0.17724551 17.64550898 -0.17724551 17.64550898 1 20 C3.32156597 20.40729228 5.6568787 20.74438677 8 21 C7.67039784 15.98464948 7.67039784 15.98464948 5 12 C4.690625 11.21625 4.38125 10.4325 4.0625 9.625 C3.11942333 6.96163887 3.11942333 6.96163887 1.375 4.875 C0 3 0 3 0 0 Z " fill="#052563" transform="translate(106,50)"/>
<path d="M0 0 C0.18433594 0.56589844 0.36867188 1.13179687 0.55859375 1.71484375 C1.50742676 4.114337 2.37683867 5.9848942 4 8 C7.01814399 9.00258484 9.83661334 9.10814997 13 9 C13.33 6.36 13.66 3.72 14 1 C21.13393752 1.51537952 28.01812817 2.44005901 35 4 C35 5.98 35 7.96 35 10 C35.33 10 35.66 10 36 10 C36.495 13.465 36.495 13.465 37 17 C39.475 17.99 39.475 17.99 42 19 C43.65 17.68 45.3 16.36 47 15 C51.62 19.62 56.24 24.24 61 29 C59 33 59 33 56.8125 34.8125 C54.56885882 37.00990884 54.56885882 37.00990884 55.25 40.75 C55.4975 41.8225 55.745 42.895 56 44 C52.69881206 43.4194679 51.08865924 42.45131901 48.765625 40.05859375 C48.19199219 39.47529297 47.61835937 38.89199219 47.02734375 38.29101562 C46.44082031 37.67935547 45.85429688 37.06769531 45.25 36.4375 C44.64800781 35.82197266 44.04601562 35.20644531 43.42578125 34.57226562 C41.94365619 33.05485187 40.4709033 31.52829404 39 30 C38.01 30.33 37.02 30.66 36 31 C36.57344937 33.86724686 36.8614515 34.8614515 39 37 C39.66666667 38.33333333 40.33333333 39.66666667 41 41 C41.66 41.66 42.32 42.32 43 43 C43.33 43.99 43.66 44.98 44 46 C44.53625 47.010625 45.0725 48.02125 45.625 49.0625 C46.305625 50.5165625 46.305625 50.5165625 47 52 C46.505 52.99 46.505 52.99 46 54 C45.18015625 53.57847656 44.3603125 53.15695313 43.515625 52.72265625 C42.43796875 52.17480469 41.3603125 51.62695312 40.25 51.0625 C39.18265625 50.51722656 38.1153125 49.97195312 37.015625 49.41015625 C34.19966591 47.96415615 34.19966591 47.96415615 31.796875 47.49609375 C30 47 30 47 28.72973633 45.65136719 C26.53303806 43.5541947 24.24469291 42.43656045 21.52734375 41.08203125 C20.46322266 40.55029297 19.39910156 40.01855469 18.30273438 39.47070312 C17.19220703 38.92349609 16.08167969 38.37628906 14.9375 37.8125 C13.2659082 36.97428711 13.2659082 36.97428711 11.56054688 36.11914062 C6.50756936 33.22849536 6.50756936 33.22849536 1 32 C1 31.34 1 30.68 1 30 C0.01 29.67 -0.98 29.34 -2 29 C-2.66 28.01 -3.32 27.02 -4 26 C-6.30144109 24.92863949 -8.6340213 23.92010283 -11 23 C-11 22.34 -11 21.68 -11 21 C-12.32 21 -13.64 21 -15 21 C-15.67528223 19.42032193 -16.33989694 17.83608097 -17 16.25 C-17.37125 15.36828125 -17.7425 14.4865625 -18.125 13.578125 C-19 11 -19 11 -19 7 C-16.58757287 5.82379175 -14.17072309 4.6589044 -11.75 3.5 C-11.06808594 3.16613281 -10.38617188 2.83226562 -9.68359375 2.48828125 C-6.1479008 0.80625256 -3.98070714 0 0 0 Z " fill="#042867" transform="translate(67,17)"/>
<path d="M0 0 C0.495 2.475 0.495 2.475 1 5 C2.32 5 3.64 5 5 5 C5 5.66 5 6.32 5 7 C5.556875 7.103125 6.11375 7.20625 6.6875 7.3125 C9.44176578 8.13133577 11.58727657 9.45853781 14 11 C13.34 11.66 12.68 12.32 12 13 C13.4540625 13.680625 13.4540625 13.680625 14.9375 14.375 C18 16 18 16 19 18 C20.32 18 21.64 18 23 18 C23 18.66 23 19.32 23 20 C24.32 20 25.64 20 27 20 C27 20.66 27 21.32 27 22 C28.98 22.33 30.96 22.66 33 23 C33.2165625 24.6396875 33.2165625 24.6396875 33.4375 26.3125 C33.88288104 29.93122987 33.88288104 29.93122987 35 33 C35.66 33 36.32 33 37 33 C38.49498913 35.98997825 38.11577446 38.70042775 38 42 C37.67 42.99 37.34 43.98 37 45 C36.34 45 35.68 45 35 45 C35 45.66 35 46.32 35 47 C31.76881649 49.28875499 28.82737377 49.28369934 24.97265625 48.6640625 C21.3244259 47.43594535 19.90477229 45.21430325 18 42 C17.6875 38.125 17.6875 38.125 18 35 C18.4125 35.495 18.825 35.99 19.25 36.5 C21.12202338 38.43386092 21.12202338 38.43386092 25 38 C25 36.68 25 35.36 25 34 C23.35 33.67 21.7 33.34 20 33 C20.99 31.68 21.98 30.36 23 29 C17.49017726 27.62254432 11.45954909 27.1801503 6 29 C3.92722535 36.01685188 3.65346334 44.30171459 6.9375 50.9375 C10.46851935 56.43132093 15.866992 59.955664 22 62 C29.92986579 62.71662491 35.12642691 61.9459401 42 58 C42.66 58.33 43.32 58.66 44 59 C43.01 59.99 43.01 59.99 42 61 C43.32 61.99 44.64 62.98 46 64 C40.17164794 66.49125706 35.44653765 67.52150714 29.125 67.4375 C28.33778564 67.43137695 27.55057129 67.42525391 26.73950195 67.41894531 C18.44180711 67.1965558 10.93663751 65.10625572 5 59 C-0.91426933 51.68264576 -2.2216077 43.00722768 -4 34 C-5.98 34 -7.96 34 -10 34 C-10.75604243 46.41169658 -7.40107937 54.17136659 0 64 C0.97820614 65.02132891 1.97142502 66.02941589 3 67 C2.67 67.66 2.34 68.32 2 69 C-4.05293402 64.47499107 -8.88858132 60.35401069 -13 54 C-13.51433594 53.53078125 -14.02867188 53.0615625 -14.55859375 52.578125 C-16.35455908 50.61181065 -16.64266713 49.16271263 -17.125 46.5625 C-17.27195312 45.80066406 -17.41890625 45.03882813 -17.5703125 44.25390625 C-17.71210937 43.51011719 -17.85390625 42.76632813 -18 42 C-18.1753125 41.3296875 -18.350625 40.659375 -18.53125 39.96875 C-19.36971884 36.44718085 -19.34622598 33.63537277 -19 30 C-14.29075228 25.4426635 -6.22896434 24.88490782 0.0625 24.875 C1.361875 24.91625 2.66125 24.9575 4 25 C0.98585228 21.638066 -1.93199456 19.90947194 -6 18 C-8.84414889 16.35338748 -11.5456506 14.62224189 -14.25 12.75 C-20.95590281 8.50032903 -28.64281565 5.90107156 -36 3 C-36 2.34 -36 1.68 -36 1 C-10.15449309 2.15138249 -10.15449309 2.15138249 -2 7 C-1.67 6.67 -1.34 6.34 -1 6 C-2.32 5.34 -3.64 4.68 -5 4 C-4.67 3.01 -4.34 2.02 -4 1 C-2 0 -2 0 0 0 Z M1 7 C1.33 7.99 1.66 8.98 2 10 C2.99 9.67 3.98 9.34 5 9 C4.67 8.34 4.34 7.68 4 7 C3.01 7 2.02 7 1 7 Z M6 9 C6 9.99 6 10.98 6 12 C7.32 11.34 8.64 10.68 10 10 C8.68 9.67 7.36 9.34 6 9 Z " fill="#08255F" transform="translate(51,33)"/>
<path d="M0 0 C0.66 0 1.32 0 2 0 C2 0.66 2 1.32 2 2 C1.34 2 0.68 2 0 2 C0 1.34 0 0.68 0 0 Z M2 3 C1.67 4.65 1.34 6.3 1 8 C-0.65 8.33 -2.3 8.66 -4 9 C-4.33 10.98 -4.66 12.96 -5 15 C-4.34 15 -3.68 15 -3 15 C-2.505 16.485 -2.505 16.485 -2 18 C-4.24307028 19.20250158 -6.4928791 20.3869162 -8.75 21.5625 C-9.38421875 21.90474609 -10.0184375 22.24699219 -10.671875 22.59960938 C-13.24305946 23.92537636 -15.40997158 24.97723045 -18.328125 25.08984375 C-20 24 -20 24 -22 18 C-26.29 17.67 -30.58 17.34 -35 17 C-35 18.98 -35 20.96 -35 23 C-45.6737013 23.42694805 -45.6737013 23.42694805 -50 21 C-52.19196767 16.01825529 -52.36228913 11.34376462 -52 6 C-51.34 5.34 -50.68 4.68 -50 4 C-47.29582993 4.29234271 -45.07732595 4.96827653 -42.5625 6 C-36.71391372 8.28237513 -30.62860981 8.2116946 -24.4375 8.25 C-23.60025391 8.270625 -22.76300781 8.29125 -21.90039062 8.3125 C-16.98352476 8.34364404 -14.09311414 7.96623547 -10 5 C-7.6484375 4.015625 -7.6484375 4.015625 -5.375 3.25 C-4.61960938 2.98703125 -3.86421875 2.7240625 -3.0859375 2.453125 C-1 2 -1 2 2 3 Z " fill="#062E6E" transform="translate(104,105)"/>
<path d="M0 0 C0 0.66 0 1.32 0 2 C-0.99 2 -1.98 2 -3 2 C-0.40503742 5.00469351 0.9214699 5.36858796 5 7 C5.495 13.93 5.495 13.93 6 21 C6.66 21 7.32 21 8 21 C7.97679688 20.32195312 7.95359375 19.64390625 7.9296875 18.9453125 C7.80105772 12.31169095 8.50139395 6.4627386 10 0 C14.95 0 19.9 0 25 0 C24.67 0.66 24.34 1.32 24 2 C22.14375 1.9690625 22.14375 1.9690625 20.25 1.9375 C17.3359175 1.93233319 14.79046673 2.06984442 12 3 C9.92722535 10.01685188 9.65346334 18.30171459 12.9375 24.9375 C16.46851935 30.43132093 21.866992 33.955664 28 36 C35.92986579 36.71662491 41.12642691 35.9459401 48 32 C48.99 32.495 48.99 32.495 50 33 C49.34 33.66 48.68 34.32 48 35 C49.32 35.99 50.64 36.98 52 38 C46.17164794 40.49125706 41.44653765 41.52150714 35.125 41.4375 C34.33778564 41.43137695 33.55057129 41.42525391 32.73950195 41.41894531 C24.44180711 41.1965558 16.93663751 39.10625572 11 33 C5.08573067 25.68264576 3.7783923 17.00722768 2 8 C0.02 8 -1.96 8 -4 8 C-4.75604243 20.41169658 -1.40107937 28.17136659 6 38 C6.97820614 39.02132891 7.97142502 40.02941589 9 41 C8.67 41.66 8.34 42.32 8 43 C1.94706598 38.47499107 -2.88858132 34.35401069 -7 28 C-7.51433594 27.53078125 -8.02867188 27.0615625 -8.55859375 26.578125 C-10.35455908 24.61181065 -10.64266713 23.16271263 -11.125 20.5625 C-11.27195313 19.80066406 -11.41890625 19.03882812 -11.5703125 18.25390625 C-11.71210937 17.51011719 -11.85390625 16.76632813 -12 16 C-12.1753125 15.3296875 -12.350625 14.659375 -12.53125 13.96875 C-13.36971884 10.44718085 -13.34622598 7.63537277 -13 4 C-9.02835504 0.67240558 -5.08087288 -0.13732089 0 0 Z " fill="#122851" transform="translate(45,59)"/>
<path d="M0 0 C-0.33 1.98 -0.66 3.96 -1 6 C-1.99 6 -2.98 6 -4 6 C-3.979375 7.0725 -3.95875 8.145 -3.9375 9.25 C-3.9857984 12.14790424 -4.13155885 14.28612141 -5 17 C-4.01 17.33 -3.02 17.66 -2 18 C1 23.22222222 1 23.22222222 1 26 C6.95795479 27.98598493 12.74892565 28.57045059 19 29 C19 28.34 19 27.68 19 27 C20.65 26.67 22.3 26.34 24 26 C24.495 24.515 24.495 24.515 25 23 C25.99 23 26.98 23 28 23 C28.309375 22.05125 28.61875 21.1025 28.9375 20.125 C30 17 30 17 31 15 C32.65 15 34.3 15 36 15 C36.6350569 20.08045517 35.32474507 23.00717656 32.55859375 27.10546875 C28.41009327 32.14813225 22.73131601 35.4986209 16.23828125 36.37109375 C8.76757072 36.54065594 3.06740436 35.55055327 -3 31 C-8.57317235 25.19291713 -11.14105858 20.74296019 -11.1875 12.625 C-11.20167969 11.50351563 -11.21585938 10.38203125 -11.23046875 9.2265625 C-11.00177142 6.02479995 -10.46485072 3.84139484 -9 1 C-6.09879049 -0.3005422 -3.14412969 -0.08733694 0 0 Z " fill="#C3A029" transform="translate(66,60)"/>
<path d="M0 0 C3.5625 0.1875 3.5625 0.1875 5.5625 2.1875 C4.5725 3.1775 3.5825 4.1675 2.5625 5.1875 C5.0375 6.1775 5.0375 6.1775 7.5625 7.1875 C7.2325 8.8375 6.9025 10.4875 6.5625 12.1875 C1.6875 11.3125 1.6875 11.3125 0.5625 10.1875 C0.94227461 14.81026538 0.94227461 14.81026538 2.625 19.0625 C5.74124032 20.87192986 9.01902338 21.23465653 12.5625 21.1875 C13.614375 20.81625 14.66625 20.445 15.75 20.0625 C18.5625 19.1875 18.5625 19.1875 21.4375 20.5625 C22.13875 21.09875 22.84 21.635 23.5625 22.1875 C23.0675 19.7125 23.0675 19.7125 22.5625 17.1875 C23.5525 17.1875 24.5425 17.1875 25.5625 17.1875 C25.5625 15.8675 25.5625 14.5475 25.5625 13.1875 C23.9125 13.1875 22.2625 13.1875 20.5625 13.1875 C20.5625 12.5275 20.5625 11.8675 20.5625 11.1875 C25.82303037 10.87186818 29.00823816 11.52159063 33.5625 14.1875 C33.5625 15.8375 33.5625 17.4875 33.5625 19.1875 C33.0675 17.2075 33.0675 17.2075 32.5625 15.1875 C30.9125 15.1875 29.2625 15.1875 27.5625 15.1875 C27.253125 16.13625 26.94375 17.085 26.625 18.0625 C25.5625 21.1875 25.5625 21.1875 24.5625 23.1875 C23.5725 23.1875 22.5825 23.1875 21.5625 23.1875 C21.2325 24.5075 20.9025 25.8275 20.5625 27.1875 C18.9125 27.1875 17.2625 27.1875 15.5625 27.1875 C15.5625 27.8475 15.5625 28.5075 15.5625 29.1875 C3.08881579 29.79652256 3.08881579 29.79652256 -2.4375 26.1875 C-3.73576839 24.15436271 -4.70865921 22.16463606 -5.61328125 19.9296875 C-6.30956842 17.99427372 -6.30956842 17.99427372 -8.4375 17.1875 C-8.32398483 15.37424449 -8.19637039 13.56186643 -8.0625 11.75 C-7.99289063 10.74066406 -7.92328125 9.73132813 -7.8515625 8.69140625 C-7.71492188 7.86511719 -7.57828125 7.03882812 -7.4375 6.1875 C-6.7775 5.8575 -6.1175 5.5275 -5.4375 5.1875 C-5.0653958 3.86446283 -4.73119827 2.53012065 -4.4375 1.1875 C-3.4375 0.1875 -3.4375 0.1875 0 0 Z " fill="#3F5371" transform="translate(69.4375,59.8125)"/>
<path d="M0 0 C3.2542015 2.83430453 4.5206753 4.68607774 5 9 C5.66 9 6.32 9 7 9 C7.185625 9.70125 7.37125 10.4025 7.5625 11.125 C9.54820026 15.09640051 12.53933276 17.3073418 16 20 C15.401875 20.515625 14.80375 21.03125 14.1875 21.5625 C11.4926464 24.56533687 10.44279381 27.24873609 9 31 C6 31 6 31 3.8125 29.125 C2 27 2 27 2 25 C1.071875 24.731875 0.14375 24.46375 -0.8125 24.1875 C-3.76240366 23.08851629 -5.05615186 22.37581439 -7 20 C-5.78993645 17.13984979 -4.62038978 15.62038978 -2.375 13.375 C0.72242708 9.85065482 0.40862241 6.48702837 0.17578125 1.9765625 C0.11777344 1.32429688 0.05976563 0.67203125 0 0 Z " fill="#032867" transform="translate(30,82)"/>
<path d="M0 0 C5.27754845 0.53852535 9.30037439 1.65018719 14 4 C15.49498913 6.98997825 15.11577446 9.70042775 15 13 C14.67 13.99 14.34 14.98 14 16 C13.34 16 12.68 16 12 16 C12 16.66 12 17.32 12 18 C8.76881649 20.28875499 5.82737377 20.28369934 1.97265625 19.6640625 C-1.6755741 18.43594535 -3.09522771 16.21430325 -5 13 C-5.3125 9.125 -5.3125 9.125 -5 6 C-4.38125 6.7425 -4.38125 6.7425 -3.75 7.5 C-1.87797662 9.43386092 -1.87797662 9.43386092 2 9 C2 7.68 2 6.36 2 5 C0.35 4.67 -1.3 4.34 -3 4 C-2.01 2.68 -1.02 1.36 0 0 Z " fill="#04050B" transform="translate(74,62)"/>
<path d="M0 0 C0.66 0.33 1.32 0.66 2 1 C3.68750779 1.0201924 5.37575372 0.99206423 7.0625 0.9375 C13.5720777 0.87762215 19.50266606 1.3351107 25 5 C25 5.66 25 6.32 25 7 C25.66 7.33 26.32 7.66 27 8 C26 9 26 9 22.75 9.1875 C19 9 19 9 16.75390625 8.02734375 C13.25631081 6.72256701 9.87659361 6.54445119 6.1875 6.375 C5.49462891 6.33632813 4.80175781 6.29765625 4.08789062 6.2578125 C2.39232985 6.16426432 0.69620288 6.08107636 -1 6 C-1.71325905 12.99600901 -2.3741355 19.99564408 -3 27 C-3.66 27 -4.32 27 -5 27 C-5.06316406 26.02417969 -5.12632813 25.04835938 -5.19140625 24.04296875 C-5.46305282 17.11472146 -5.46305282 17.11472146 -8.69140625 11.40234375 C-10.81425101 10.47486241 -10.81425101 10.47486241 -14 10 C-14 9.34 -14 8.68 -14 8 C-13.01 8 -12.02 8 -11 8 C-11 7.34 -11 6.68 -11 6 C-11.66 5.67 -12.32 5.34 -13 5 C-9.04 5 -5.08 5 -1 5 C-1.33 3.68 -1.66 2.36 -2 1 C-1.34 0.67 -0.68 0.34 0 0 Z " fill="#052664" transform="translate(56,53)"/>
<path d="M0 0 C1.65 0 3.3 0 5 0 C5.6350569 5.08045517 4.32474507 8.00717656 1.55859375 12.10546875 C-2.05269301 16.49512809 -6.62743355 19.24313156 -12 21 C-15.11328125 21.1953125 -15.11328125 21.1953125 -18.3125 21.125 C-19.38113281 21.10695313 -20.44976562 21.08890625 -21.55078125 21.0703125 C-22.35902344 21.04710938 -23.16726562 21.02390625 -24 21 C-24.33 20.01 -24.66 19.02 -25 18 C-23.02 18 -21.04 18 -19 18 C-19 16.68 -19 15.36 -19 14 C-16.69 14 -14.38 14 -12 14 C-12 13.34 -12 12.68 -12 12 C-10.35 11.67 -8.7 11.34 -7 11 C-6.67 10.01 -6.34 9.02 -6 8 C-5.01 8 -4.02 8 -3 8 C-2.690625 7.05125 -2.38125 6.1025 -2.0625 5.125 C-1 2 -1 2 0 0 Z " fill="#C69B20" transform="translate(97,75)"/>
<path d="M0 0 C5.26053037 -0.31563182 8.44573816 0.33409063 13 3 C13 4.65 13 6.3 13 8 C12.505 6.02 12.505 6.02 12 4 C10.35 4 8.7 4 7 4 C6.690625 4.94875 6.38125 5.8975 6.0625 6.875 C5 10 5 10 4 12 C3.01 12 2.02 12 1 12 C0.67 13.32 0.34 14.64 0 16 C-1.65 16 -3.3 16 -5 16 C-5 16.66 -5 17.32 -5 18 C-8.63 18 -12.26 18 -16 18 C-16.33 16.68 -16.66 15.36 -17 14 C-18.65 14 -20.3 14 -22 14 C-20.63016497 10.83884224 -20.0109362 10.0072908 -17 8 C-16.484375 8.350625 -15.96875 8.70125 -15.4375 9.0625 C-11.51836638 10.56985908 -7.76601892 9.6233008 -3.875 8.25 C-0.95562516 7.86075002 0.66704011 9.37988896 3 11 C2.67 9.35 2.34 7.7 2 6 C2.99 6 3.98 6 5 6 C5 4.68 5 3.36 5 2 C3.35 2 1.7 2 0 2 C0 1.34 0 0.68 0 0 Z " fill="#3B4F6A" transform="translate(90,71)"/>
<path d="M0 0 C0.47308594 0.31453125 0.94617188 0.6290625 1.43359375 0.953125 C5.88115131 3.83146635 10.30009117 6.12439352 15.21484375 8.10546875 C17 9 17 9 18 11 C16.68 11.33 15.36 11.66 14 12 C14 12.66 14 13.32 14 14 C15.32 14.33 16.64 14.66 18 15 C18 15.66 18 16.32 18 17 C16.7315625 16.5359375 16.7315625 16.5359375 15.4375 16.0625 C11.9502146 14.98461179 8.61822465 14.43418696 5 14 C5 14.66 5 15.32 5 16 C6.65 16 8.3 16 10 16 C10 17.32 10 18.64 10 20 C9.34 20.33 8.68 20.66 8 21 C8 22.32 8 23.64 8 25 C4.73045798 24.43628586 3.17424117 23.50037734 1 21 C1.66 21 2.32 21 3 21 C3 17.04 3 13.08 3 9 C2.34 9 1.68 9 1 9 C-0.61949011 6.42786866 -1.04408751 5.32330841 -0.625 2.25 C-0.41875 1.5075 -0.2125 0.765 0 0 Z " fill="#122454" transform="translate(85,57)"/>
<path d="M0 0 C1.32 0.33 2.64 0.66 4 1 C4 1.99 4 2.98 4 4 C2.68 4 1.36 4 0 4 C0.57344937 6.86724686 0.8614515 7.8614515 3 10 C3.66666667 11.33333333 4.33333333 12.66666667 5 14 C5.66 14.66 6.32 15.32 7 16 C7.495 17.485 7.495 17.485 8 19 C8.53625 20.010625 9.0725 21.02125 9.625 22.0625 C10.305625 23.5165625 10.305625 23.5165625 11 25 C10.67 25.66 10.34 26.32 10 27 C9.18015625 26.57847656 8.3603125 26.15695313 7.515625 25.72265625 C6.43796875 25.17480469 5.3603125 24.62695312 4.25 24.0625 C3.18265625 23.51722656 2.1153125 22.97195312 1.015625 22.41015625 C-1.80033409 20.96415615 -1.80033409 20.96415615 -4.203125 20.49609375 C-6 20 -6 20 -7.26806641 18.64697266 C-9.47580509 16.54753578 -11.76471044 15.47535226 -14.5078125 14.15234375 C-15.57644531 13.62962891 -16.64507812 13.10691406 -17.74609375 12.56835938 C-18.86113281 12.03017578 -19.97617188 11.49199219 -21.125 10.9375 C-23.3386169 9.86881354 -25.54970483 8.79486739 -27.7578125 7.71484375 C-28.7389502 7.24167725 -29.72008789 6.76851074 -30.73095703 6.28100586 C-33 5 -33 5 -34 3 C-33.05125 3.020625 -32.1025 3.04125 -31.125 3.0625 C-28.09333717 3.22551826 -28.09333717 3.22551826 -26 2 C-26.33 3.32 -26.66 4.64 -27 6 C-26.16726562 6.24621094 -25.33453125 6.49242187 -24.4765625 6.74609375 C-20.52794927 8.1702565 -17.03308318 10.02577839 -13.375 12.0625 C-7.92309753 15.10909593 -7.92309753 15.10909593 -2 17 C-2 16.34 -2 15.68 -2 15 C-1.34 15.33 -0.68 15.66 0 16 C-0.495 17.485 -0.495 17.485 -1 19 C0.98 19.66 2.96 20.32 5 21 C4.690625 20.2575 4.38125 19.515 4.0625 18.75 C3.1905075 16.49307824 2.52332993 14.3549847 2 12 C0.68 11.67 -0.64 11.34 -2 11 C-2.33 8.36 -2.66 5.72 -3 3 C-2.34 3 -1.68 3 -1 3 C-0.67 2.01 -0.34 1.02 0 0 Z " fill="#122252" transform="translate(103,44)"/>
<path d="M0 0 C5.51890034 0.50171821 5.51890034 0.50171821 7.75 2.8125 C11.2056349 6.17214504 15.51686568 7.39154723 20 9 C20 9.66 20 10.32 20 11 C15.545 11.495 15.545 11.495 11 12 C11.33 11.34 11.66 10.68 12 10 C6.49191603 10.59015185 1.35121931 11.56663769 -4 13 C-4 15.31 -4 17.62 -4 20 C-4.33 18.68 -4.66 17.36 -5 16 C-5.66 16 -6.32 16 -7 16 C-5.42334814 9.95616788 -3.80824293 4.99011142 0 0 Z " fill="#101946" transform="translate(35,47)"/>
<path d="M0 0 C0.36164523 2.62416952 0.71461153 5.24900313 1.0625 7.875 C1.16626953 8.62136719 1.27003906 9.36773437 1.37695312 10.13671875 C2.11328125 15.7734375 2.11328125 15.7734375 1 18 C-2.3 18 -5.6 18 -9 18 C-9 12.39 -9 6.78 -9 1 C-1 0 -1 0 0 0 Z " fill="#022362" transform="translate(29,64)"/>
<path d="M0 0 C0.99 0 1.98 0 3 0 C3 1.98 3 3.96 3 6 C3.33 6 3.66 6 4 6 C4.33 8.31 4.66 10.62 5 13 C7.475 13.99 7.475 13.99 10 15 C11.65 13.68 13.3 12.36 15 11 C19.62 15.62 24.24 20.24 29 25 C27 29 27 29 24.8125 30.8125 C22.56885882 33.00990884 22.56885882 33.00990884 23.25 36.75 C23.4975 37.8225 23.745 38.895 24 40 C20.12488273 39.45015228 18.40423494 37.72444669 15.75 34.9375 C14.69039062 33.83728516 14.69039062 33.83728516 13.609375 32.71484375 C13.07828125 32.14894531 12.5471875 31.58304688 12 31 C15.51716303 31 16.37121748 31.82445585 19 34 C19 33.34 19 32.68 19 32 C19.78375 31.54625 20.5675 31.0925 21.375 30.625 C24.19297703 28.88053803 24.71047966 27.92853685 26 25 C24.59921602 23.46452525 23.17879097 21.94694852 21.75 20.4375 C20.96109375 19.59058594 20.1721875 18.74367188 19.359375 17.87109375 C17.22398896 15.73753036 17.22398896 15.73753036 14.89453125 16.18359375 C14.26933594 16.45300781 13.64414063 16.72242187 13 17 C7.41772152 18.13924051 7.41772152 18.13924051 4 17 C3.67 16.34 3.34 15.68 3 15 C1.68 14.34 0.36 13.68 -1 13 C-0.67 8.71 -0.34 4.42 0 0 Z " fill="#122657" transform="translate(99,21)"/>
<path d="M0 0 C4 4.75 4 4.75 4 7 C9.47774766 8.58321067 9.47774766 8.58321067 15 10 C15 11.32 15 12.64 15 14 C13.02 14 11.04 14 9 14 C9 14.66 9 15.32 9 16 C5.09219511 14.84542128 1.99874951 13.79883288 -1 11 C-1.828125 8.51953125 -1.828125 8.51953125 -2.25 5.8125 C-2.39953125 4.91144531 -2.5490625 4.01039062 -2.703125 3.08203125 C-2.80109375 2.39496094 -2.8990625 1.70789063 -3 1 C-2.01 0.67 -1.02 0.34 0 0 Z " fill="#C8A323" transform="translate(63,79)"/>
<path d="M0 0 C1.2065625 0.0309375 1.2065625 0.0309375 2.4375 0.0625 C1.9115625 1.67125 1.9115625 1.67125 1.375 3.3125 C0.11458333 7.10416667 0.11458333 7.10416667 1.4375 11.0625 C-7.9675 15.5175 -7.9675 15.5175 -17.5625 20.0625 C-19.2125 17.0925 -20.8625 14.1225 -22.5625 11.0625 C-25.2025 11.0625 -27.8425 11.0625 -30.5625 11.0625 C-31.2225 13.3725 -31.8825 15.6825 -32.5625 18.0625 C-34.8725 17.7325 -37.1825 17.4025 -39.5625 17.0625 C-39.5625 16.7325 -39.5625 16.4025 -39.5625 16.0625 C-37.5825 16.0625 -35.6025 16.0625 -33.5625 16.0625 C-33.5625 13.7525 -33.5625 11.4425 -33.5625 9.0625 C-29.2725 9.0625 -24.9825 9.0625 -20.5625 9.0625 C-19.5725 11.3725 -18.5825 13.6825 -17.5625 16.0625 C-11.53479862 15.58662884 -6.79571711 12.86527043 -1.5625 10.0625 C-1.5625 9.0725 -1.5625 8.0825 -1.5625 7.0625 C-2.2225 7.0625 -2.8825 7.0625 -3.5625 7.0625 C-3.60504356 5.06295254 -3.60330783 3.06208364 -3.5625 1.0625 C-2.5625 0.0625 -2.5625 0.0625 0 0 Z M-1.5625 3.0625 C-0.5625 5.0625 -0.5625 5.0625 -0.5625 5.0625 Z " fill="#17244D" transform="translate(102.5625,112.9375)"/>
<path d="M0 0 C0.78375 0.04125 1.5675 0.0825 2.375 0.125 C2.375 0.785 2.375 1.445 2.375 2.125 C2.94347656 2.10179687 3.51195312 2.07859375 4.09765625 2.0546875 C9.2599619 1.93403261 13.43237881 2.44637393 18.375 4.125 C19.509375 4.49625 20.64375 4.8675 21.8125 5.25 C22.658125 5.53875 23.50375 5.8275 24.375 6.125 C24.045 7.775 23.715 9.425 23.375 11.125 C22.385 11.125 21.395 11.125 20.375 11.125 C20.045 11.785 19.715 12.445 19.375 13.125 C18.385 12.465 17.395 11.805 16.375 11.125 C16.375 10.135 16.375 9.145 16.375 8.125 C15.80652344 8.01542969 15.23804687 7.90585937 14.65234375 7.79296875 C10.81385835 7.00476557 7.2073418 6.17574002 3.625 4.5625 C0.80062217 3.31325596 -1.59137862 2.5846396 -4.625 2.125 C-2.625 0.125 -2.625 0.125 0 0 Z " fill="#042563" transform="translate(26.625,35.875)"/>
<path d="M0 0 C3.5 0.25 3.5 0.25 5.5 2.25 C4.51 3.24 3.52 4.23 2.5 5.25 C4.975 6.24 4.975 6.24 7.5 7.25 C7.17 8.9 6.84 10.55 6.5 12.25 C1.75 11.375 1.75 11.375 -0.5 10.25 C-2.49960012 10.210008 -4.50047242 10.20653201 -6.5 10.25 C-5.54640371 0.39617169 -5.54640371 0.39617169 0 0 Z " fill="#36527A" transform="translate(69.5,59.75)"/>
<path d="M0 0 C5.29012124 4.40843437 10.18808428 9.07559794 15 14 C12 14 12 14 9 12 C9 12.99 9 13.98 9 15 C9.66 15 10.32 15 11 15 C11.125 18.375 11.125 18.375 11 22 C10.34 22.66 9.68 23.32 9 24 C4.01662989 23.69797757 -0.54387938 21.08728962 -5 19 C-2 18 -2 18 1 18 C1 18.66 1 19.32 1 20 C3.31 20.33 5.62 20.66 8 21 C7.67039784 15.98464948 7.67039784 15.98464948 5 12 C4.690625 11.21625 4.38125 10.4325 4.0625 9.625 C3.11942333 6.96163887 3.11942333 6.96163887 1.375 4.875 C0 3 0 3 0 0 Z " fill="#0F1D4D" transform="translate(106,50)"/>
<path d="M0 0 C2.07322655 2.07322655 2.6738974 3.38640274 3.75 6.0625 C6.46401623 12.35454511 9.98862286 18.27116341 15 23 C14.67 23.66 14.34 24.32 14 25 C7.94706598 20.47499107 3.11141868 16.35401069 -1 10 C-1.80050781 9.24203125 -1.80050781 9.24203125 -2.6171875 8.46875 C-4 7 -4 7 -4.1875 4.3125 C-4.125625 3.549375 -4.06375 2.78625 -4 2 C-3.34 2 -2.68 2 -2 2 C-1.67 2.99 -1.34 3.98 -1 5 C-0.67 3.35 -0.34 1.7 0 0 Z " fill="#0B2251" transform="translate(39,77)"/>
<path d="M0 0 C0 0.66 0 1.32 0 2 C-0.99 2 -1.98 2 -3 2 C-0.40503742 5.00469351 0.9214699 5.36858796 5 7 C5 10.63 5 14.26 5 18 C4.67 18 4.34 18 4 18 C3.67 15.03 3.34 12.06 3 9 C-0.37817425 8.15545644 -2.67465243 7.89155081 -6 9 C-6 7.35 -6 5.7 -6 4 C-7.32 4.33 -8.64 4.66 -10 5 C-10.33 7.64 -10.66 10.28 -11 13 C-11.66 12.67 -12.32 12.34 -13 12 C-13.43547531 6.68720127 -13.43547531 6.68720127 -13 4 C-9.02835504 0.67240558 -5.08087288 -0.13732089 0 0 Z " fill="#0C194B" transform="translate(45,59)"/>
<path d="M0 0 C25.12605822 1.11933202 25.12605822 1.11933202 34 6 C34.99 6 35.98 6 37 6 C38.6875 7.375 38.6875 7.375 40 9 C40 9.66 40 10.32 40 11 C38.68 10.67 37.36 10.34 36 10 C36 9.34 36 8.68 36 8 C34.7315625 7.814375 34.7315625 7.814375 33.4375 7.625 C30 7 30 7 26.6875 6 C22.46101521 4.85383463 18.35141931 4.37495223 14 4 C14 3.34 14 2.68 14 2 C13.40832031 2.16757812 12.81664062 2.33515625 12.20703125 2.5078125 C4.35852373 4.53075571 4.35852373 4.53075571 0 2 C0 1.34 0 0.68 0 0 Z " fill="#0E1F4E" transform="translate(15,34)"/>
<path d="M0 0 C1.32 0.33 2.64 0.66 4 1 C4 1.99 4 2.98 4 4 C2.68 4 1.36 4 0 4 C0.57344937 6.86724686 0.8614515 7.8614515 3 10 C3.66666667 11.33333333 4.33333333 12.66666667 5 14 C5.66 14.66 6.32 15.32 7 16 C7.33 16.99 7.66 17.98 8 19 C8.53625 20.010625 9.0725 21.02125 9.625 22.0625 C10.07875 23.031875 10.5325 24.00125 11 25 C10.67 25.66 10.34 26.32 10 27 C8.02 26.01 6.04 25.02 4 24 C4.99 23.67 5.98 23.34 7 23 C6.360625 21.9275 5.72125 20.855 5.0625 19.75 C3.59398727 17.19177818 2.47145458 14.94659114 2 12 C0.68 11.67 -0.64 11.34 -2 11 C-2.33 8.36 -2.66 5.72 -3 3 C-2.34 3 -1.68 3 -1 3 C-0.67 2.01 -0.34 1.02 0 0 Z " fill="#08174B" transform="translate(103,44)"/>
<path d="M0 0 C0.99 0 1.98 0 3 0 C1.78774852 3.63675444 0.9875632 3.93483486 -2.3125 5.6875 C-8.21190533 8.53902154 -13.56764294 8.49734719 -20 8 C-20.33 7.01 -20.66 6.02 -21 5 C-19.02 5 -17.04 5 -15 5 C-15 3.68 -15 2.36 -15 1 C-14.34 1 -13.68 1 -13 1 C-13 2.32 -13 3.64 -13 5 C-10.69 5 -8.38 5 -6 5 C-5.67 4.34 -5.34 3.68 -5 3 C-3.68352881 2.30062468 -2.34977849 1.63270867 -1 1 C-0.67 0.67 -0.34 0.34 0 0 Z " fill="#C8A326" transform="translate(93,88)"/>
<path d="M0 0 C3.80635497 3.20760251 7.54563567 6.40746109 11 10 C9.88345951 12.60526114 9.02918783 13.9758158 6.8125 15.8125 C4.56885882 18.00990884 4.56885882 18.00990884 5.25 21.75 C5.4975 22.8225 5.745 23.895 6 25 C2.12488273 24.45015228 0.40423494 22.72444669 -2.25 19.9375 C-2.95640625 19.20402344 -3.6628125 18.47054687 -4.390625 17.71484375 C-4.92171875 17.14894531 -5.4528125 16.58304688 -6 16 C-2.48283697 16 -1.62878252 16.82445585 1 19 C1 18.34 1 17.68 1 17 C2.175625 16.319375 2.175625 16.319375 3.375 15.625 C6.19297703 13.88053803 6.71047966 12.92853685 8 10 C7.4225 9.44570313 6.845 8.89140625 6.25 8.3203125 C5.5075 7.59585938 4.765 6.87140625 4 6.125 C3.2575 5.40570313 2.515 4.68640625 1.75 3.9453125 C0 2 0 2 0 0 Z " fill="#0B1946" transform="translate(117,36)"/>
<path d="M0 0 C0.99 0 1.98 0 3 0 C2.67 2.64 2.34 5.28 2 8 C3.65 8.99 5.3 9.98 7 11 C6.39816251 13.02045442 5.72693904 15.02111039 5 17 C4.34 17.33 3.68 17.66 3 18 C3 15.69 3 13.38 3 11 C2.01 10.67 1.02 10.34 0 10 C-0.33 8.35 -0.66 6.7 -1 5 C-3.52588702 7.36292656 -4.88820837 8.66462511 -6 12 C-6.66 12 -7.32 12 -8 12 C-8 12.66 -8 13.32 -8 14 C-8.99 14 -9.98 14 -11 14 C-9.61263874 10.84375314 -7.99607292 8.80136567 -5.5 6.4375 C-3.27903267 4.32475777 -1.72257583 2.58386374 0 0 Z " fill="#0F1E4D" transform="translate(120,86)"/>
<path d="M0 0 C0.66 0.33 1.32 0.66 2 1 C1.34 1.66 0.68 2.32 0 3 C1.32 3.99 2.64 4.98 4 6 C-2.97676379 9.35421336 -8.41129361 9.04977105 -16 8 C-12.91190305 6.23537317 -11.76687864 6 -8 6 C-8 5.34 -8 4.68 -8 4 C-6.71349294 3.30289269 -5.42059335 2.61757124 -4.125 1.9375 C-3.40570313 1.55464844 -2.68640625 1.17179687 -1.9453125 0.77734375 C-1.30335937 0.52082031 -0.66140625 0.26429687 0 0 Z " fill="#0C255B" transform="translate(93,91)"/>
<path d="M0 0 C4.72502701 0.63242669 8.90570197 1.91813563 13.375 3.5625 C14.01566406 3.79646484 14.65632813 4.03042969 15.31640625 4.27148438 C16.8793161 4.84299619 18.43990727 5.42084229 20 6 C20 6.99 20 7.98 20 9 C20.721875 9.268125 21.44375 9.53625 22.1875 9.8125 C24.99766383 10.99901362 27.48416557 12.27485639 30 14 C30 14.66 30 15.32 30 16 C29.2575 15.690625 28.515 15.38125 27.75 15.0625 C25.14396429 13.96876427 25.14396429 13.96876427 22.875 13.5625 C20.57860837 12.87358251 19.63354083 11.70779269 18 10 C17.34 10 16.68 10 16 10 C15.40251953 9.35611328 15.40251953 9.35611328 14.79296875 8.69921875 C12.27364417 6.31162356 9.47261681 5.22047284 6.3125 3.8125 C5.13300781 3.28269531 3.95351563 2.75289062 2.73828125 2.20703125 C1.83464844 1.80871094 0.93101563 1.41039062 0 1 C0 0.67 0 0.34 0 0 Z " fill="#0B1C4C" transform="translate(23,38)"/>
<path d="M0 0 C5.26053037 -0.31563182 8.44573816 0.33409063 13 3 C13 4.65 13 6.3 13 8 C12.67 6.68 12.34 5.36 12 4 C10.35 4 8.7 4 7 4 C6.690625 4.94875 6.38125 5.8975 6.0625 6.875 C5 10 5 10 4 12 C3.01 12 2.02 12 1 12 C0.67 13.32 0.34 14.64 0 16 C-0.66 15.67 -1.32 15.34 -2 15 C-2 13.68 -2 12.36 -2 11 C-2.66 10.01 -3.32 9.02 -4 8 C-3.401875 8.309375 -2.80375 8.61875 -2.1875 8.9375 C0.08956772 10.10209704 0.08956772 10.10209704 3 11 C2.67 9.35 2.34 7.7 2 6 C2.99 6 3.98 6 5 6 C5 4.68 5 3.36 5 2 C3.35 2 1.7 2 0 2 C0 1.34 0 0.68 0 0 Z " fill="#6D6A56" transform="translate(90,71)"/>
<path d="M0 0 C5.61 0.66 11.22 1.32 17 2 C15.02 2.99 15.02 2.99 13 4 C14.32 4.66 15.64 5.32 17 6 C8.99054432 6.30372936 2.30934715 6.50848663 -5 3 C-2 2 -2 2 1 2 C0.67 1.34 0.34 0.68 0 0 Z " fill="#122140" transform="translate(68,94)"/>
<path d="M0 0 C1.98 0.66 3.96 1.32 6 2 C6 2.33 6 2.66 6 3 C4.35 3 2.7 3 1 3 C1 3.66 1 4.32 1 5 C2.65 5 4.3 5 6 5 C6 6.32 6 7.64 6 9 C5.01 9.495 5.01 9.495 4 10 C4 11.32 4 12.64 4 14 C0.73045798 13.43628586 -0.82575883 12.50037734 -3 10 C-2.34 10 -1.68 10 -1 10 C-0.67 6.7 -0.34 3.4 0 0 Z " fill="#264276" transform="translate(89,68)"/>
<path d="M0 0 C0.99 0.33 1.98 0.66 3 1 C1.72942818 1.47985967 0.45853152 1.9588593 -0.8125 2.4375 C-1.87404297 2.83775391 -1.87404297 2.83775391 -2.95703125 3.24609375 C-4.62672396 3.86225186 -6.31157704 4.43719235 -8 5 C-5.36 5.33 -2.72 5.66 0 6 C0 6.33 0 6.66 0 7 C-2.5625718 7.02710123 -5.12485365 7.04688771 -7.6875 7.0625 C-8.7693457 7.07506836 -8.7693457 7.07506836 -9.87304688 7.08789062 C-13.71555382 7.10543632 -17.26639526 6.93524221 -21 6 C-21 5.34 -21 4.68 -21 4 C-20.43490723 3.91435791 -19.86981445 3.82871582 -19.28759766 3.74047852 C-16.73285367 3.35130182 -14.17893253 2.95696515 -11.625 2.5625 C-10.73554687 2.42779297 -9.84609375 2.29308594 -8.9296875 2.15429688 C-7.65351562 1.95610352 -7.65351562 1.95610352 -6.3515625 1.75390625 C-5.17327881 1.57323608 -5.17327881 1.57323608 -3.97119141 1.38891602 C-1.93388316 1.07761762 -1.93388316 1.07761762 0 0 Z " fill="#101D48" transform="translate(89,102)"/>
<path d="M0 0 C0.99 0.99 1.98 1.98 3 3 C0.63707344 5.52588702 -0.66462511 6.88820837 -4 8 C-6.33299825 8.03954234 -8.66708189 8.04401732 -11 8 C-11 6.68 -11 5.36 -11 4 C-9.35 4 -7.7 4 -6 4 C-6 3.34 -6 2.68 -6 2 C-4.02 1.34 -2.04 0.68 0 0 Z " fill="#B58718" transform="translate(91,85)"/>
<path d="M0 0 C3.12290635 0.48578543 5.99580359 0.9986012 9 2 C9.33 2.99 9.66 3.98 10 5 C5.71 5.99 1.42 6.98 -3 8 C-2 3 -2 3 0 0 Z " fill="#062261" transform="translate(35,50)"/>
<path d="M0 0 C0.061875 0.61875 0.12375 1.2375 0.1875 1.875 C0.80524198 4.22545065 0.80524198 4.22545065 3.25 5.0625 C4.61125 5.5265625 4.61125 5.5265625 6 6 C7.6829392 6.97236487 9.35443434 7.96564444 11 9 C9.8125 10.5625 9.8125 10.5625 8 12 C5.3125 11.6875 5.3125 11.6875 3 11 C3 10.34 3 9.68 3 9 C2.34 9 1.68 9 1 9 C-0.61949011 6.42786866 -1.04408751 5.32330841 -0.625 2.25 C-0.41875 1.5075 -0.2125 0.765 0 0 Z " fill="#042865" transform="translate(85,57)"/>
<path d="M0 0 C0.66 0.33 1.32 0.66 2 1 C0.35 3.97 -1.3 6.94 -3 10 C-5.56327512 8.97468995 -8.10910287 7.95064394 -10.625 6.8125 C-13.1017849 5.69710585 -13.1017849 5.69710585 -16 7 C-16 6.01 -16 5.02 -16 4 C-10.60550707 3.72570375 -7.48074195 3.63944354 -3 7 C-2.87625 6.21625 -2.7525 5.4325 -2.625 4.625 C-2 2 -2 2 0 0 Z " fill="#0F1E4E" transform="translate(121,106)"/>
<path d="M0 0 C0.85373365 3.41493459 1.0809485 5.64905965 0 9 C-0.12375 9.721875 -0.2475 10.44375 -0.375 11.1875 C-0.58125 11.785625 -0.7875 12.38375 -1 13 C-1.99 13.33 -2.98 13.66 -4 14 C-3.49396008 11.83125748 -3.00016187 10.00032373 -2 8 C-2.66 8 -3.32 8 -4 8 C-4.33 9.32 -4.66 10.64 -5 12 C-5.66 12 -6.32 12 -7 12 C-6.55149342 10.18504338 -6.09090429 8.37306866 -5.625 6.5625 C-5.36976562 5.55316406 -5.11453125 4.54382813 -4.8515625 3.50390625 C-3.81341212 0.45136315 -3.19247698 0 0 0 Z " fill="#0D2851" transform="translate(107,73)"/>
<path d="M0 0 C0.33 1.65 0.66 3.3 1 5 C2.32 5 3.64 5 5 5 C5 5.66 5 6.32 5 7 C5.556875 7.103125 6.11375 7.20625 6.6875 7.3125 C9.44176578 8.13133577 11.58727657 9.45853781 14 11 C12 12 12 12 9 11.125 C5.90103873 9.96288953 3.76835147 8.84556765 1 7 C-0.99212671 5.98440599 -2.9911515 4.98210371 -5 4 C-4.67 3.01 -4.34 2.02 -4 1 C-2 0 -2 0 0 0 Z " fill="#0D1C4A" transform="translate(51,33)"/>
<path d="M0 0 C1.98 0.99 3.96 1.98 6 3 C6 4.98 6 6.96 6 9 C4.68 9 3.36 9 2 9 C1.67 8.01 1.34 7.02 1 6 C-0.65 6 -2.3 6 -4 6 C-2.84826645 3.53199953 -1.95216435 1.95216435 0 0 Z " fill="#214377" transform="translate(72,79)"/>
<path d="M0 0 C-0.33 1.98 -0.66 3.96 -1 6 C-1.99 6 -2.98 6 -4 6 C-4 7.65 -4 9.3 -4 11 C-5.65 11 -7.3 11 -9 11 C-8.67 8.69 -8.34 6.38 -8 4 C-6.35 4.33 -4.7 4.66 -3 5 C-3.33 4.34 -3.66 3.68 -4 3 C-6.52733235 2.34444881 -6.52733235 2.34444881 -9 2 C-5.86501708 0.14223235 -3.62528568 -0.20140476 0 0 Z " fill="#A97D15" transform="translate(66,60)"/>
<path d="M0 0 C-0.33 1.32 -0.66 2.64 -1 4 C-1.99 4 -2.98 4 -4 4 C-3.67 6.31 -3.34 8.62 -3 11 C-6 11 -6 11 -7.6875 9.5 C-8.120625 9.005 -8.55375 8.51 -9 8 C-7.13554727 3.64961029 -5.02378599 0 0 0 Z " fill="#102556" transform="translate(32,94)"/>
<path d="M0 0 C2.44422017 2.34645136 4.57950364 4.84843225 6.6875 7.5 C7.31011719 8.2734375 7.93273438 9.046875 8.57421875 9.84375 C10 12 10 12 10 15 C8.34483581 13.76238177 6.70113202 12.50942545 5.0625 11.25 C4.14597656 10.55390625 3.22945312 9.8578125 2.28515625 9.140625 C-0.03260354 6.96945856 -0.80356653 6.11758933 -1 3 C-0.67 2.01 -0.34 1.02 0 0 Z " fill="#172453" transform="translate(43,87)"/>
<path d="M0 0 C0.66 0.33 1.32 0.66 2 1 C2.10251672 6.12583611 2.03590199 10.94997778 1 16 C0.34 15.67 -0.32 15.34 -1 15 C-1 14.01 -1 13.02 -1 12 C-1.99 11.67 -2.98 11.34 -4 11 C-3.34 11 -2.68 11 -2 11 C-2 9.35 -2 7.7 -2 6 C-1.67 6 -1.34 6 -1 6 C-0.67 4.02 -0.34 2.04 0 0 Z " fill="#1C3163" transform="translate(38,67)"/>
<path d="M0 0 C0.33 0 0.66 0 1 0 C1.8320582 5.72040011 2.12036664 11.22240116 2 17 C4.31 17.33 6.62 17.66 9 18 C9 18.33 9 18.66 9 19 C6.03 19 3.06 19 0 19 C0 12.73 0 6.46 0 0 Z " fill="#1C2854" transform="translate(18,65)"/>
<path d="M0 0 C4.95 0 9.9 0 15 0 C14.67 0.66 14.34 1.32 14 2 C11.0703125 1.95117188 11.0703125 1.95117188 8.140625 1.90234375 C5.66000824 1.94469744 5.66000824 1.94469744 2 3 C1.34 6.96 0.68 10.92 0 15 C-0.33 15 -0.66 15 -1 15 C-1.02730408 13.43759968 -1.04653226 11.8750573 -1.0625 10.3125 C-1.07410156 9.44238281 -1.08570313 8.57226562 -1.09765625 7.67578125 C-1 5 -1 5 0 0 Z " fill="#2F3541" transform="translate(55,59)"/>
<path d="M0 0 C0.66 0.33 1.32 0.66 2 1 C1.67 1.99 1.34 2.98 1 4 C2.98 4 4.96 4 7 4 C7 4.99 7 5.98 7 7 C5.02 7 3.04 7 1 7 C1 8.32 1 9.64 1 11 C0.34 11 -0.32 11 -1 11 C-0.67 7.37 -0.34 3.74 0 0 Z " fill="#5E5E59" transform="translate(62,66)"/>
<path d="M0 0 C3.875 2.625 3.875 2.625 5 6 C5.53625 7.010625 6.0725 8.02125 6.625 9.0625 C7.07875 10.031875 7.5325 11.00125 8 12 C7.67 12.66 7.34 13.32 7 14 C5.02 13.01 3.04 12.02 1 11 C1.99 10.67 2.98 10.34 4 10 C3.34 8.906875 2.68 7.81375 2 6.6875 C0.41535071 4.06292462 0 3.1743622 0 0 Z " fill="#121B44" transform="translate(106,57)"/>
<path d="M0 0 C1.65 0.33 3.3 0.66 5 1 C4.67 2.65 4.34 4.3 4 6 C2.35 5.67 0.7 5.34 -1 5 C-0.67 3.35 -0.34 1.7 0 0 Z " fill="#D7D3C0" transform="translate(72,66)"/>
<path d="M0 0 C3.78611227 0.54087318 5.55400767 2.11722332 8 5 C8 5.66 8 6.32 8 7 C9.98 6.34 11.96 5.68 14 5 C12.35 6.65 10.7 8.3 9 10 C7.49702124 8.52386015 5.99768715 7.04400843 4.5 5.5625 C3.6646875 4.73878906 2.829375 3.91507812 1.96875 3.06640625 C0 1 0 1 0 0 Z " fill="#0C1D4A" transform="translate(28,106)"/>
<path d="M0 0 C0.66 0.33 1.32 0.66 2 1 C1.34 1.66 0.68 2.32 0 3 C1.32 3.99 2.64 4.98 4 6 C1.2780754 7.3609623 -0.1831957 6.70366248 -3.125 6.0625 C-4.03507812 5.86785156 -4.94515625 5.67320313 -5.8828125 5.47265625 C-6.58148438 5.31667969 -7.28015625 5.16070312 -8 5 C-5.56159764 2.56159764 -3.14759102 1.37707107 0 0 Z " fill="#203550" transform="translate(93,91)"/>
<path d="M0 0 C2.375 0.6875 2.375 0.6875 3.375 1.6875 C3.41563832 3.35367115 3.417721 5.02138095 3.375 6.6875 C2.385 5.3675 1.395 4.0475 0.375 2.6875 C-0.945 3.0175 -2.265 3.3475 -3.625 3.6875 C-3.625 4.3475 -3.625 5.0075 -3.625 5.6875 C-4.615 5.6875 -5.605 5.6875 -6.625 5.6875 C-6.3125 3.8125 -6.3125 3.8125 -5.625 1.6875 C-2.625 -0.3125 -2.625 -0.3125 0 0 Z " fill="#0E1C4C" transform="translate(122.625,81.3125)"/>
<path d="M0 0 C1.2065625 0.0309375 1.2065625 0.0309375 2.4375 0.0625 C1.4475 3.0325 0.4575 6.0025 -0.5625 9.0625 C-0.8925 8.4025 -1.2225 7.7425 -1.5625 7.0625 C-2.2225 7.0625 -2.8825 7.0625 -3.5625 7.0625 C-3.60504356 5.06295254 -3.60330783 3.06208364 -3.5625 1.0625 C-2.5625 0.0625 -2.5625 0.0625 0 0 Z M-1.5625 3.0625 C-0.5625 5.0625 -0.5625 5.0625 -0.5625 5.0625 Z " fill="#192D60" transform="translate(102.5625,112.9375)"/>
<path d="M0 0 C2.31 0.66 4.62 1.32 7 2 C6.01 2.495 6.01 2.495 5 3 C4.67 3.99 4.34 4.98 4 6 C2.125 5.6875 2.125 5.6875 0 5 C-0.66 4.01 -1.32 3.02 -2 2 C-1.34 1.34 -0.68 0.68 0 0 Z " fill="#B07E12" transform="translate(66,85)"/>
<path d="M0 0 C5.26053037 -0.31563182 8.44573816 0.33409063 13 3 C13 4.65 13 6.3 13 8 C12.67 6.68 12.34 5.36 12 4 C10.35 4 8.7 4 7 4 C6.67 4.66 6.34 5.32 6 6 C6 4.35 6 2.7 6 1 C4.02 1 2.04 1 0 1 C0 0.67 0 0.34 0 0 Z " fill="#8C7C49" transform="translate(90,71)"/>
<path d="M0 0 C1.98 0 3.96 0 6 0 C6.33 0.99 6.66 1.98 7 3 C5.35 2.67 3.7 2.34 2 2 C1.87625 2.804375 1.7525 3.60875 1.625 4.4375 C1.41875 5.283125 1.2125 6.12875 1 7 C0.01 7.495 0.01 7.495 -1 8 C-0.67 5.36 -0.34 2.72 0 0 Z " fill="#C3A121" transform="translate(56,62)"/>
<path d="M0 0 C0.99 0.99 1.98 1.98 3 3 C2.34 4.32 1.68 5.64 1 7 C0.01 6.67 -0.98 6.34 -2 6 C-2.33 4.35 -2.66 2.7 -3 1 C-2.01 0.67 -1.02 0.34 0 0 Z " fill="#A47815" transform="translate(63,79)"/>
<path d="M0 0 C0.0825 0.61875 0.165 1.2375 0.25 1.875 C0.81258459 4.18437567 0.81258459 4.18437567 3.0625 5.25 C3.701875 5.4975 4.34125 5.745 5 6 C4.34 6 3.68 6 3 6 C3 6.66 3 7.32 3 8 C3.66 8 4.32 8 5 8 C4.67 8.99 4.34 9.98 4 11 C3.67 10.34 3.34 9.68 3 9 C2.34 9 1.68 9 1 9 C-0.61949011 6.42786866 -1.04408751 5.32330841 -0.625 2.25 C-0.41875 1.5075 -0.2125 0.765 0 0 Z " fill="#132B61" transform="translate(85,57)"/>
<path d="M0 0 C1.98 0 3.96 0 6 0 C6.33 1.32 6.66 2.64 7 4 C4.69 4 2.38 4 0 4 C0 2.68 0 1.36 0 0 Z " fill="#AE7C0D" transform="translate(80,89)"/>
<path d="M0 0 C1.65 0.33 3.3 0.66 5 1 C5 2.32 5 3.64 5 5 C3.02 5 1.04 5 -1 5 C-0.67 3.35 -0.34 1.7 0 0 Z " fill="#A57915" transform="translate(73,88)"/>
<path d="M0 0 C0.33 1.32 0.66 2.64 1 4 C-0.98 4.66 -2.96 5.32 -5 6 C-4.67 4.35 -4.34 2.7 -4 1 C-2.68 0.67 -1.36 0.34 0 0 Z " fill="#041B61" transform="translate(39,62)"/>
<path d="M0 0 C1.32 0 2.64 0 4 0 C4 1.32 4 2.64 4 4 C4.66 4.33 5.32 4.66 6 5 C4.35 5.33 2.7 5.66 1 6 C0.67 4.02 0.34 2.04 0 0 Z " fill="#B07C10" transform="translate(57,73)"/>
<path d="M0 0 C0.99 0.33 1.98 0.66 3 1 C2.67 2.32 2.34 3.64 2 5 C0.68 5 -0.64 5 -2 5 C-2.66 4.34 -3.32 3.68 -4 3 C-3.01 3 -2.02 3 -1 3 C-0.67 2.01 -0.34 1.02 0 0 Z " fill="#AC7C12" transform="translate(95,80)"/>
<path d="M0 0 C0.99 0.33 1.98 0.66 3 1 C2.34 1 1.68 1 1 1 C0.67 4.3 0.34 7.6 0 11 C-0.66 10.67 -1.32 10.34 -2 10 C-2.1953125 3.9453125 -2.1953125 3.9453125 -2 2 C-1.34 1.34 -0.68 0.68 0 0 Z " fill="#111135" transform="translate(34,61)"/>
<path d="M0 0 C0 0.66 0 1.32 0 2 C1.32 2 2.64 2 4 2 C4 2.99 4 3.98 4 5 C3.484375 4.855625 2.96875 4.71125 2.4375 4.5625 C-0.68509571 3.84190099 -3.82550692 3.42733561 -7 3 C-7 2.34 -7 1.68 -7 1 C-4.50935112 0.31292445 -2.62113708 0 0 0 Z " fill="#172A58" transform="translate(78,53)"/>
<path d="M0 0 C6.75 1.625 6.75 1.625 9 5 C5.625 4.75 5.625 4.75 2 4 C0.5625 1.9375 0.5625 1.9375 0 0 Z " fill="#072668" transform="translate(61,92)"/>
<path d="M0 0 C0.99 0 1.98 0 3 0 C2.67 2.97 2.34 5.94 2 9 C1.34 9 0.68 9 0 9 C0 6.03 0 3.06 0 0 Z " fill="#0B1E4A" transform="translate(99,21)"/>
<path d="M0 0 C0.99 0.33 1.98 0.66 3 1 C3 2.65 3 4.3 3 6 C1.68 6.33 0.36 6.66 -1 7 C-0.67 4.69 -0.34 2.38 0 0 Z " fill="#092F68" transform="translate(94,98)"/>
<path d="M0 0 C2.875 -0.125 2.875 -0.125 6 0 C6.66 0.66 7.32 1.32 8 2 C7.67 2.66 7.34 3.32 7 4 C4.69 3.34 2.38 2.68 0 2 C0 1.34 0 0.68 0 0 Z " fill="#0D133E" transform="translate(15,34)"/>
<path d="M0 0 C1.64846769 0.44876616 3.29373455 0.90930488 4.9375 1.375 C5.85402344 1.63023438 6.77054688 1.88546875 7.71484375 2.1484375 C10 3 10 3 11 5 C4.6 4.50769231 4.6 4.50769231 1.5625 1.9375 C1.046875 1.298125 0.53125 0.65875 0 0 Z " fill="#0D214E" transform="translate(55,107)"/>
<path d="M0 0 C-0.33 1.98 -0.66 3.96 -1 6 C-1.66 6 -2.32 6 -3 6 C-3.33 5.01 -3.66 4.02 -4 3 C-5.65 2.67 -7.3 2.34 -9 2 C-5.86501708 0.14223235 -3.62528568 -0.20140476 0 0 Z " fill="#927C44" transform="translate(66,60)"/>
<path d="M0 0 C2.3125 -0.25 2.3125 -0.25 5 0 C6.8125 2 6.8125 2 8 4 C3.545 3.01 3.545 3.01 -1 2 C-0.67 1.34 -0.34 0.68 0 0 Z " fill="#032570" transform="translate(65,56)"/>
<path d="M0 0 C1.9375 0.75 1.9375 0.75 4 2 C4.75 4.125 4.75 4.125 5 6 C3.02 5.34 1.04 4.68 -1 4 C-0.67 2.68 -0.34 1.36 0 0 Z " fill="#0C2659" transform="translate(41,107)"/>
<path d="M0 0 C3.79588866 0.54226981 5.47211993 2.20127563 8 5 C7.67 5.66 7.34 6.32 7 7 C5.83040013 6.02433888 4.66438823 5.044375 3.5 4.0625 C2.8503125 3.51722656 2.200625 2.97195312 1.53125 2.41015625 C1.0259375 1.94480469 0.520625 1.47945313 0 1 C0 0.67 0 0.34 0 0 Z " fill="#1A1B35" transform="translate(46,95)"/>
<path d="M0 0 C1.4606285 2.64738916 2 3.89448334 2 7 C-0.97 6.505 -0.97 6.505 -4 6 C-2.68 4.02 -1.36 2.04 0 0 Z " fill="#122C4D" transform="translate(99,85)"/>
<path d="M0 0 C0.433125 0.45375 0.86625 0.9075 1.3125 1.375 C3.10798342 3.20024334 3.10798342 3.20024334 6 5 C5.01 5 4.02 5 3 5 C2.67 5.66 2.34 6.32 2 7 C1.34 7 0.68 7 0 7 C0 4.69 0 2.38 0 0 Z " fill="#141A22" transform="translate(69,68)"/>
<path d="M0 0 C2.475 0.495 2.475 0.495 5 1 C5 1.66 5 2.32 5 3 C5.66 3.66 6.32 4.32 7 5 C6.34 5 5.68 5 5 5 C4.67 5.66 4.34 6.32 4 7 C4 6.01 4 5.02 4 4 C2.68 3.67 1.36 3.34 0 3 C0 2.01 0 1.02 0 0 Z " fill="#0E2252" transform="translate(101,52)"/>
<path d="M0 0 C0.99 0.33 1.98 0.66 3 1 C2.67 3.64 2.34 6.28 2 9 C1.67 7.68 1.34 6.36 1 5 C0.34 5 -0.32 5 -1 5 C-0.67 3.35 -0.34 1.7 0 0 Z " fill="#170F34" transform="translate(29,58)"/>
<path d="M0 0 C0.33 0 0.66 0 1 0 C1 4.95 1 9.9 1 15 C0.67 15 0.34 15 0 15 C0 10.05 0 5.1 0 0 Z " fill="#182653" transform="translate(16,68)"/>
<path d="M0 0 C2.49361571 1.20381448 4.68143083 2.45428722 7 4 C6.67 4.66 6.34 5.32 6 6 C3.97945196 4.35830472 1.97956942 2.69088222 0 1 C0 0.67 0 0.34 0 0 Z " fill="#0F1739" transform="translate(46,98)"/>
<path d="M0 0 C2.31 0 4.62 0 7 0 C6.34 0.66 5.68 1.32 5 2 C2.375 1.625 2.375 1.625 0 1 C0 0.67 0 0.34 0 0 Z " fill="#091847" transform="translate(82,101)"/>
<path d="M0 0 C2.64 0 5.28 0 8 0 C7.67 0.99 7.34 1.98 7 3 C7 2.34 7 1.68 7 1 C4.69 1 2.38 1 0 1 C0 0.67 0 0.34 0 0 Z " fill="#020F38" transform="translate(19,85)"/>
<path d="M0 0 C2.64 0 5.28 0 8 0 C8 0.33 8 0.66 8 1 C5.36 1 2.72 1 0 1 C0 0.67 0 0.34 0 0 Z " fill="#020E3E" transform="translate(19,61)"/>
<path d="M0 0 C2.64 0 5.28 0 8 0 C8 0.33 8 0.66 8 1 C5.36 1 2.72 1 0 1 C0 0.67 0 0.34 0 0 Z " fill="#0A1D52" transform="translate(22,33)"/>
<path d="M0 0 C0.33 0 0.66 0 1 0 C1 2.31 1 4.62 1 7 C0.67 7 0.34 7 0 7 C0 4.69 0 2.38 0 0 Z " fill="#051649" transform="translate(133,75)"/>
<path d="M0 0 C2.97 0.495 2.97 0.495 6 1 C6 1.33 6 1.66 6 2 C4.02 2 2.04 2 0 2 C0 1.34 0 0.68 0 0 Z " fill="#040843" transform="translate(71,23)"/>
<path d="M0 0 C1.98 0 3.96 0 6 0 C6 0.33 6 0.66 6 1 C4.02 1 2.04 1 0 1 C0 0.67 0 0.34 0 0 Z " fill="#162650" transform="translate(72,125)"/>
<path d="M0 0 C1.98 0 3.96 0 6 0 C6 0.33 6 0.66 6 1 C4.02 1 2.04 1 0 1 C0 0.67 0 0.34 0 0 Z " fill="#0E1A4F" transform="translate(77,103)"/>
<path d="M0 0 C1.98 0 3.96 0 6 0 C6 0.33 6 0.66 6 1 C4.02 1 2.04 1 0 1 C0 0.67 0 0.34 0 0 Z " fill="#041444" transform="translate(72,101)"/>
<path d="M0 0 C1.98 0 3.96 0 6 0 C6 0.33 6 0.66 6 1 C4.02 1 2.04 1 0 1 C0 0.67 0 0.34 0 0 Z " fill="#04164B" transform="translate(33,34)"/>
<path d="M0 0 C1.65 0 3.3 0 5 0 C5 0.33 5 0.66 5 1 C3.35 1 1.7 1 0 1 C0 0.67 0 0.34 0 0 Z " fill="#071750" transform="translate(62,131)"/>
<path d="M0 0 C1.65 0 3.3 0 5 0 C5 0.33 5 0.66 5 1 C3.35 1 1.7 1 0 1 C0 0.67 0 0.34 0 0 Z " fill="#0A234E" transform="translate(56,130)"/>
<path d="M0 0 C1.65 0 3.3 0 5 0 C5 0.33 5 0.66 5 1 C3.35 1 1.7 1 0 1 C0 0.67 0 0.34 0 0 Z " fill="#091E43" transform="translate(50,129)"/>
<path d="M0 0 C0.33 0 0.66 0 1 0 C1 1.65 1 3.3 1 5 C0.67 5 0.34 5 0 5 C0 3.35 0 1.7 0 0 Z " fill="#041846" transform="translate(47,122)"/>
<path d="M0 0 C0.66 0 1.32 0 2 0 C1.67 1.32 1.34 2.64 1 4 C0.67 2.68 0.34 1.36 0 0 Z " fill="#142051" transform="translate(47,116)"/>
<path d="M0 0 C0.33 0 0.66 0 1 0 C1 1.65 1 3.3 1 5 C0.67 5 0.34 5 0 5 C0 3.35 0 1.7 0 0 Z " fill="#071B3E" transform="translate(47,73)"/>
<path d="M0 0 C1.65 0 3.3 0 5 0 C5 0.33 5 0.66 5 1 C3.35 1 1.7 1 0 1 C0 0.67 0 0.34 0 0 Z " fill="#0C1E4D" transform="translate(87,17)"/>
<path d="M0 0 C4 1 4 1 4 1 Z " fill="#001339" transform="translate(70,104)"/>
<path d="M0 0 C0 3 0 3 0 3 Z " fill="#051747" transform="translate(124,88)"/>
<path d="M0 0 C1 4 1 4 1 4 Z " fill="#0E2353" transform="translate(41,74)"/>
<path d="M0 0 C0.99 0 1.98 0 3 0 C2.67 0.66 2.34 1.32 2 2 C1.34 1.34 0.68 0.68 0 0 Z " fill="#07184A" transform="translate(44,67)"/>
<path d="M0 0 C0.99 0.33 1.98 0.66 3 1 C2.01 1 1.02 1 0 1 C0 0.67 0 0.34 0 0 Z " fill="#042146" transform="translate(120,62)"/>
<path d="M0 0 C4 1 4 1 4 1 Z " fill="#09204F" transform="translate(94,18)"/>
<path d="M0 0 C4 1 4 1 4 1 Z " fill="#081640" transform="translate(82,16)"/>
<path d="" fill="#08133D" transform="translate(0,0)"/>
<path d="M0 0 C3 1 3 1 3 1 Z " fill="#031C35" transform="translate(68,100)"/>
<path d="M0 0 C0.66 0.66 1.32 1.32 2 2 C1.34 2 0.68 2 0 2 C0 1.34 0 0.68 0 0 Z " fill="#091B51" transform="translate(122,92)"/>
<path d="" fill="#040C38" transform="translate(0,0)"/>
<path d="" fill="#081C52" transform="translate(0,0)"/>
<path d="M0 0 C3 1 3 1 3 1 Z " fill="#021447" transform="translate(120,84)"/>
<path d="" fill="#061D4F" transform="translate(0,0)"/>
<path d="" fill="#0B2550" transform="translate(0,0)"/>
<path d="" fill="#0F234D" transform="translate(0,0)"/>
<path d="" fill="#0A1B52" transform="translate(0,0)"/>
<path d="M0 0 C0.66 0 1.32 0 2 0 C1.67 0.66 1.34 1.32 1 2 C0.67 1.34 0.34 0.68 0 0 Z " fill="#061349" transform="translate(104,47)"/>
<path d="M0 0 C3 1 3 1 3 1 Z " fill="#0D123C" transform="translate(17,38)"/>
<path d="" fill="#0A1944" transform="translate(0,0)"/>
<path d="" fill="#0D1947" transform="translate(0,0)"/>
<path d="M0 0 C2 1 2 1 2 1 Z " fill="#122A5C" transform="translate(86,133)"/>
<path d="M0 0 C2 1 2 1 2 1 Z " fill="#08214C" transform="translate(88,132)"/>
<path d="M0 0 C2 1 2 1 2 1 Z " fill="#081B4E" transform="translate(90,131)"/>
<path d="M0 0 C2 1 2 1 2 1 Z " fill="#091F4F" transform="translate(92,130)"/>
<path d="M0 0 C2 1 2 1 2 1 Z " fill="#091B42" transform="translate(94,129)"/>
<path d="M0 0 C2 1 2 1 2 1 Z " fill="#051B49" transform="translate(96,128)"/>
<path d="" fill="#071C3F" transform="translate(0,0)"/>
<path d="" fill="#141A48" transform="translate(0,0)"/>
<path d="" fill="#090F37" transform="translate(0,0)"/>
<path d="" fill="#0D2145" transform="translate(0,0)"/>
<path d="M0 0 C2 1 2 1 2 1 Z " fill="#0F1D4C" transform="translate(63,108)"/>
<path d="M0 0 C2 1 2 1 2 1 Z " fill="#10264C" transform="translate(60,107)"/>
<path d="M0 0 C2 1 2 1 2 1 Z " fill="#091538" transform="translate(57,106)"/>
<path d="M0 0 C2 1 2 1 2 1 Z " fill="#040B3B" transform="translate(55,105)"/>
<path d="M0 0 C2 1 2 1 2 1 Z " fill="#00132E" transform="translate(102,102)"/>
<path d="M0 0 C2 1 2 1 2 1 Z " fill="#041144" transform="translate(65,99)"/>
<path d="" fill="#030C34" transform="translate(0,0)"/>
<path d="M0 0 C2 1 2 1 2 1 Z " fill="#05144D" transform="translate(63,98)"/>
<path d="M0 0 C2 1 2 1 2 1 Z " fill="#06235C" transform="translate(61,97)"/>
<path d="M0 0 C2 1 2 1 2 1 Z " fill="#0F1D57" transform="translate(124,94)"/>
<path d="" fill="#112F60" transform="translate(0,0)"/>
<path d="" fill="#0C254F" transform="translate(0,0)"/>
<path d="" fill="#233956" transform="translate(0,0)"/>
<path d="" fill="#041245" transform="translate(0,0)"/>
<path d="" fill="#101C49" transform="translate(0,0)"/>
<path d="" fill="#14254A" transform="translate(0,0)"/>
<path d="" fill="#091E45" transform="translate(0,0)"/>
<path d="" fill="#081F4F" transform="translate(0,0)"/>
<path d="" fill="#0C0B35" transform="translate(0,0)"/>
<path d="" fill="#081444" transform="translate(0,0)"/>
<path d="" fill="#0C1549" transform="translate(0,0)"/>
<path d="" fill="#0B164C" transform="translate(0,0)"/>
<path d="M0 0 C2 1 2 1 2 1 Z " fill="#021A44" transform="translate(34,45)"/>
<path d="M0 0 C2 1 2 1 2 1 Z " fill="#00104D" transform="translate(57,43)"/>
<path d="M0 0 C2 1 2 1 2 1 Z " fill="#022557" transform="translate(30,43)"/>
<path d="M0 0 C2 1 2 1 2 1 Z " fill="#00133F" transform="translate(53,41)"/>
<path d="M0 0 C2 1 2 1 2 1 Z " fill="#081E4D" transform="translate(25,41)"/>
<path d="M0 0 C2 1 2 1 2 1 Z " fill="#030D3C" transform="translate(23,40)"/>
<path d="M0 0 C2 1 2 1 2 1 Z " fill="#061746" transform="translate(20,39)"/>
<path d="M0 0 C2 1 2 1 2 1 Z " fill="#0A1843" transform="translate(43,36)"/>
<path d="M0 0 C2 1 2 1 2 1 Z " fill="#0A2657" transform="translate(107,35)"/>
<path d="M0 0 C2 1 2 1 2 1 Z " fill="#071D4A" transform="translate(40,35)"/>
<path d="" fill="#051C4D" transform="translate(0,0)"/>
<path d="M0 0 C2 1 2 1 2 1 Z " fill="#13133B" transform="translate(17,32)"/>
<path d="" fill="#06234D" transform="translate(0,0)"/>
<path d="" fill="#072158" transform="translate(0,0)"/>
<path d="" fill="#041C48" transform="translate(0,0)"/>
<path d="" fill="#09164D" transform="translate(0,0)"/>
<path d="M0 0 C2 1 2 1 2 1 Z " fill="#02091D" transform="translate(99,19)"/>
<path d="M0 0 C2 1 2 1 2 1 Z " fill="#01235E" transform="translate(57,18)"/>
<path d="M0 0 C2 1 2 1 2 1 Z " fill="#0C1E56" transform="translate(59,17)"/>
<path d="M0 0 C2 1 2 1 2 1 Z " fill="#041045" transform="translate(61,16)"/>
<path d="M0 0 C2 1 2 1 2 1 Z " fill="#0D2B59" transform="translate(63,15)"/>
<path d="" fill="#272953" transform="translate(0,0)"/>
<path d="" fill="#111641" transform="translate(0,0)"/>
<path d="" fill="#1F3264" transform="translate(0,0)"/>
<path d="" fill="#101E4C" transform="translate(0,0)"/>
<path d="" fill="#16204E" transform="translate(0,0)"/>
<path d="" fill="#223058" transform="translate(0,0)"/>
<path d="" fill="#0A1443" transform="translate(0,0)"/>
<path d="" fill="#0B1E58" transform="translate(0,0)"/>
<path d="" fill="#1F1D44" transform="translate(0,0)"/>
<path d="" fill="#01153D" transform="translate(0,0)"/>
<path d="" fill="#061646" transform="translate(0,0)"/>
<path d="" fill="#001140" transform="translate(0,0)"/>
<path d="" fill="#0D174C" transform="translate(0,0)"/>
<path d="" fill="#001646" transform="translate(0,0)"/>
<path d="" fill="#00123D" transform="translate(0,0)"/>
<path d="" fill="#0C1A48" transform="translate(0,0)"/>
<path d="" fill="#19234E" transform="translate(0,0)"/>
<path d="" fill="#000830" transform="translate(0,0)"/>
<path d="" fill="#000024" transform="translate(0,0)"/>
<path d="" fill="#040F3F" transform="translate(0,0)"/>
<path d="" fill="#0B1C49" transform="translate(0,0)"/>
<path d="" fill="#0F1F4A" transform="translate(0,0)"/>
<path d="" fill="#000026" transform="translate(0,0)"/>
<path d="" fill="#001653" transform="translate(0,0)"/>
<path d="" fill="#00085B" transform="translate(0,0)"/>
<path d="" fill="#000E38" transform="translate(0,0)"/>
<path d="" fill="#000A3A" transform="translate(0,0)"/>
<path d="" fill="#001746" transform="translate(0,0)"/>
<path d="" fill="#0F1B46" transform="translate(0,0)"/>
<path d="" fill="#001A49" transform="translate(0,0)"/>
<path d="" fill="#001345" transform="translate(0,0)"/>
<path d="" fill="#031C4A" transform="translate(0,0)"/>
<path d="" fill="#0C1849" transform="translate(0,0)"/>
<path d="" fill="#0B2153" transform="translate(0,0)"/>
<path d="" fill="#02144A" transform="translate(0,0)"/>
<path d="" fill="#0C1B4B" transform="translate(0,0)"/>
<path d="" fill="#172B55" transform="translate(0,0)"/>
<path d="" fill="#00113E" transform="translate(0,0)"/>
<path d="" fill="#081C56" transform="translate(0,0)"/>
<path d="" fill="#091547" transform="translate(0,0)"/>
<path d="" fill="#000D41" transform="translate(0,0)"/>
<path d="" fill="#06123E" transform="translate(0,0)"/>
<path d="" fill="#051647" transform="translate(0,0)"/>
<path d="" fill="#0A153B" transform="translate(0,0)"/>
<path d="" fill="#001745" transform="translate(0,0)"/>
<path d="" fill="#0C1E4E" transform="translate(0,0)"/>
<path d="" fill="#000E3D" transform="translate(0,0)"/>
<path d="" fill="#001942" transform="translate(0,0)"/>
<path d="" fill="#131F40" transform="translate(0,0)"/>
<path d="" fill="#000E3E" transform="translate(0,0)"/>
<path d="" fill="#03112B" transform="translate(0,0)"/>
<path d="" fill="#000E3C" transform="translate(0,0)"/>
<path d="" fill="#00122C" transform="translate(0,0)"/>
<path d="" fill="#001A46" transform="translate(0,0)"/>
<path d="" fill="#1A234C" transform="translate(0,0)"/>
<path d="" fill="#02153D" transform="translate(0,0)"/>
<path d="" fill="#000734" transform="translate(0,0)"/>
<path d="" fill="#031741" transform="translate(0,0)"/>
<path d="" fill="#0D1B54" transform="translate(0,0)"/>
<path d="" fill="#312943" transform="translate(0,0)"/>
<path d="" fill="#131D46" transform="translate(0,0)"/>
<path d="" fill="#061641" transform="translate(0,0)"/>
<path d="" fill="#000531" transform="translate(0,0)"/>
<path d="" fill="#001242" transform="translate(0,0)"/>
<path d="" fill="#00165A" transform="translate(0,0)"/>
<path d="" fill="#2D2944" transform="translate(0,0)"/>
<path d="" fill="#14214A" transform="translate(0,0)"/>
<path d="" fill="#0E274F" transform="translate(0,0)"/>
<path d="" fill="#000F39" transform="translate(0,0)"/>
<path d="" fill="#232A57" transform="translate(0,0)"/>
<path d="" fill="#252A4B" transform="translate(0,0)"/>
<path d="" fill="#101E47" transform="translate(0,0)"/>
<path d="" fill="#10224D" transform="translate(0,0)"/>
<path d="" fill="#000835" transform="translate(0,0)"/>
<path d="" fill="#1C264E" transform="translate(0,0)"/>
<path d="" fill="#141E45" transform="translate(0,0)"/>
<path d="" fill="#0B1B46" transform="translate(0,0)"/>
<path d="" fill="#001745" transform="translate(0,0)"/>
<path d="" fill="#1F264C" transform="translate(0,0)"/>
<path d="" fill="#000C45" transform="translate(0,0)"/>
<path d="" fill="#161F3D" transform="translate(0,0)"/>
<path d="" fill="#061D4E" transform="translate(0,0)"/>
<path d="" fill="#262851" transform="translate(0,0)"/>
<path d="" fill="#07204F" transform="translate(0,0)"/>
<path d="" fill="#132150" transform="translate(0,0)"/>
<path d="" fill="#0C224D" transform="translate(0,0)"/>
<path d="" fill="#001A49" transform="translate(0,0)"/>
<path d="" fill="#001438" transform="translate(0,0)"/>
<path d="" fill="#001543" transform="translate(0,0)"/>
<path d="" fill="#011742" transform="translate(0,0)"/>
<path d="" fill="#071B40" transform="translate(0,0)"/>
<path d="" fill="#0A1D4D" transform="translate(0,0)"/>
<path d="" fill="#042452" transform="translate(0,0)"/>
<path d="" fill="#001A54" transform="translate(0,0)"/>
<path d="" fill="#001957" transform="translate(0,0)"/>
<path d="" fill="#0A1F4D" transform="translate(0,0)"/>
<path d="" fill="#041343" transform="translate(0,0)"/>
<path d="" fill="#00093C" transform="translate(0,0)"/>
<path d="" fill="#081843" transform="translate(0,0)"/>
<path d="" fill="#091446" transform="translate(0,0)"/>
<path d="" fill="#00225B" transform="translate(0,0)"/>
<path d="" fill="#0E204D" transform="translate(0,0)"/>
<path d="" fill="#071C46" transform="translate(0,0)"/>
<path d="" fill="#001B49" transform="translate(0,0)"/>
<path d="" fill="#061B44" transform="translate(0,0)"/>
<path d="" fill="#091C43" transform="translate(0,0)"/>
<path d="" fill="#03133C" transform="translate(0,0)"/>
<path d="" fill="#00235D" transform="translate(0,0)"/>
<path d="" fill="#000022" transform="translate(0,0)"/>
<path d="" fill="#00123D" transform="translate(0,0)"/>
<path d="" fill="#041C4A" transform="translate(0,0)"/>
<path d="" fill="#000F3A" transform="translate(0,0)"/>
<path d="" fill="#11154C" transform="translate(0,0)"/>
<path d="" fill="#071948" transform="translate(0,0)"/>
<path d="" fill="#000C3D" transform="translate(0,0)"/>
<path d="" fill="#061643" transform="translate(0,0)"/>
<path d="" fill="#002260" transform="translate(0,0)"/>
<path d="" fill="#000B4B" transform="translate(0,0)"/>
<path d="" fill="#151F46" transform="translate(0,0)"/>
<path d="" fill="#051746" transform="translate(0,0)"/>
<path d="" fill="#001652" transform="translate(0,0)"/>
<path d="" fill="#003273" transform="translate(0,0)"/>
<path d="" fill="#041742" transform="translate(0,0)"/>
<path d="" fill="#000D45" transform="translate(0,0)"/>
<path d="" fill="#01133F" transform="translate(0,0)"/>
<path d="" fill="#0E254E" transform="translate(0,0)"/>
<path d="" fill="#031845" transform="translate(0,0)"/>
<path d="" fill="#081F4D" transform="translate(0,0)"/>
<path d="" fill="#001240" transform="translate(0,0)"/>
<path d="" fill="#00123D" transform="translate(0,0)"/>
<path d="" fill="#05174D" transform="translate(0,0)"/>
<path d="" fill="#01153D" transform="translate(0,0)"/>
<path d="" fill="#091948" transform="translate(0,0)"/>
<path d="" fill="#00163D" transform="translate(0,0)"/>
<path d="" fill="#00143E" transform="translate(0,0)"/>
<path d="" fill="#0F204A" transform="translate(0,0)"/>
<path d="" fill="#021033" transform="translate(0,0)"/>
<path d="" fill="#00153F" transform="translate(0,0)"/>
<path d="" fill="#071A48" transform="translate(0,0)"/>
<path d="" fill="#0B205C" transform="translate(0,0)"/>
<path d="" fill="#05144A" transform="translate(0,0)"/>
<path d="" fill="#04153E" transform="translate(0,0)"/>
<path d="" fill="#0C2C4B" transform="translate(0,0)"/>
<path d="" fill="#00053C" transform="translate(0,0)"/>
<path d="" fill="#0E1D45" transform="translate(0,0)"/>
<path d="" fill="#11113A" transform="translate(0,0)"/>
<path d="" fill="#05133B" transform="translate(0,0)"/>
<path d="" fill="#000C39" transform="translate(0,0)"/>
<path d="" fill="#000732" transform="translate(0,0)"/>
<path d="" fill="#0A1D46" transform="translate(0,0)"/>
<path d="" fill="#071B44" transform="translate(0,0)"/>
<path d="" fill="#031245" transform="translate(0,0)"/>
<path d="" fill="#051541" transform="translate(0,0)"/>
<path d="" fill="#000E3C" transform="translate(0,0)"/>
<path d="" fill="#000A42" transform="translate(0,0)"/>
<path d="" fill="#00143F" transform="translate(0,0)"/>
<path d="" fill="#00143F" transform="translate(0,0)"/>
<path d="" fill="#00183C" transform="translate(0,0)"/>
<path d="" fill="#000026" transform="translate(0,0)"/>
<path d="" fill="#00163F" transform="translate(0,0)"/>
<path d="" fill="#001E52" transform="translate(0,0)"/>
<path d="" fill="#01153B" transform="translate(0,0)"/>
<path d="" fill="#000026" transform="translate(0,0)"/>
<path d="" fill="#00133F" transform="translate(0,0)"/>
<path d="" fill="#001C48" transform="translate(0,0)"/>
<path d="" fill="#000233" transform="translate(0,0)"/>
<path d="" fill="#001646" transform="translate(0,0)"/>
<path d="" fill="#001B46" transform="translate(0,0)"/>
<path d="" fill="#000026" transform="translate(0,0)"/>
<path d="" fill="#071641" transform="translate(0,0)"/>
<path d="" fill="#00013F" transform="translate(0,0)"/>
<path d="" fill="#000C3E" transform="translate(0,0)"/>
<path d="" fill="#020F39" transform="translate(0,0)"/>
<path d="" fill="#051847" transform="translate(0,0)"/>
<path d="" fill="#001743" transform="translate(0,0)"/>
<path d="" fill="#071741" transform="translate(0,0)"/>
<path d="" fill="#0F2051" transform="translate(0,0)"/>
<path d="" fill="#001743" transform="translate(0,0)"/>
</svg>
